<svg width="61" height="94" viewBox="0 0 61 94" fill="none" xmlns="http://www.w3.org/2000/svg">
<mask id="path-1-outside-1_6_68" maskUnits="userSpaceOnUse" x="-0.47998" y="-0.47998" width="61" height="94" fill="black">
<rect fill="white" x="-0.47998" y="-0.47998" width="61" height="94"/>
<path d="M52.7485 1.52002L52.8091 1.55029L47.2183 12.6704C52.6682 14.2204 57.6482 17.6902 58.5483 23.73C60.5783 37.4598 41.429 45.0899 30.8589 47.02C30.599 47.07 30.2588 47.1099 29.8989 47.1499L20.1382 66.5903C21.7682 67.8603 23.8088 68.6808 26.2388 69.0308C28.7086 69.3907 31.2185 69.1801 33.7583 68.3901C36.2382 67.6402 38.6586 66.3005 40.9985 64.3706H43.4985C43.2486 64.6505 42.9987 64.9307 42.7388 65.2007C40.3788 67.7206 37.7983 69.7403 35.0083 71.2603C32.2684 72.7502 29.3986 73.7605 26.4087 74.2905C23.4187 74.8205 20.4086 74.8606 17.3686 74.4106C17.0086 74.3606 16.6483 74.3 16.2983 74.23L7.44873 91.8306H4.64892L13.7983 73.6206C8.94853 72.1706 5.48891 69.2903 3.39892 65.0005C0.828966 59.7206 0.898508 52.5505 3.58838 43.4907C4.98838 38.6007 7.10873 34.1103 9.94873 30.0103C12.7787 25.9203 16.0383 22.42 19.7183 19.52C23.4382 16.6201 27.3684 14.4899 31.5083 13.1099C35.6883 11.7399 39.8187 11.3507 43.9087 11.9507C44.1785 11.9907 44.4484 12.0304 44.7183 12.0903L50.0288 1.52002H52.7485ZM43.769 13.3901C40.919 12.9701 37.7781 13.8598 34.3481 16.0698C30.9582 18.2898 27.7287 21.6005 24.6587 26.0005C21.6287 30.4005 19.249 35.6806 17.519 41.8306C15.0591 50.3003 14.6587 56.76 16.3286 61.23C16.8286 62.57 17.469 63.73 18.269 64.73L44.0386 13.4399C43.9488 13.42 43.8589 13.3902 43.769 13.3901ZM30.189 46.5698C35.8588 45.2497 41.2488 40.53 44.4487 36.1001C48.2787 30.81 53.9384 17.7799 46.4585 14.1899L30.189 46.5698Z"/>
</mask>
<path d="M52.7485 1.52002L52.8091 1.55029L47.2183 12.6704C52.6682 14.2204 57.6482 17.6902 58.5483 23.73C60.5783 37.4598 41.429 45.0899 30.8589 47.02C30.599 47.07 30.2588 47.1099 29.8989 47.1499L20.1382 66.5903C21.7682 67.8603 23.8088 68.6808 26.2388 69.0308C28.7086 69.3907 31.2185 69.1801 33.7583 68.3901C36.2382 67.6402 38.6586 66.3005 40.9985 64.3706H43.4985C43.2486 64.6505 42.9987 64.9307 42.7388 65.2007C40.3788 67.7206 37.7983 69.7403 35.0083 71.2603C32.2684 72.7502 29.3986 73.7605 26.4087 74.2905C23.4187 74.8205 20.4086 74.8606 17.3686 74.4106C17.0086 74.3606 16.6483 74.3 16.2983 74.23L7.44873 91.8306H4.64892L13.7983 73.6206C8.94853 72.1706 5.48891 69.2903 3.39892 65.0005C0.828966 59.7206 0.898508 52.5505 3.58838 43.4907C4.98838 38.6007 7.10873 34.1103 9.94873 30.0103C12.7787 25.9203 16.0383 22.42 19.7183 19.52C23.4382 16.6201 27.3684 14.4899 31.5083 13.1099C35.6883 11.7399 39.8187 11.3507 43.9087 11.9507C44.1785 11.9907 44.4484 12.0304 44.7183 12.0903L50.0288 1.52002H52.7485ZM43.769 13.3901C40.919 12.9701 37.7781 13.8598 34.3481 16.0698C30.9582 18.2898 27.7287 21.6005 24.6587 26.0005C21.6287 30.4005 19.249 35.6806 17.519 41.8306C15.0591 50.3003 14.6587 56.76 16.3286 61.23C16.8286 62.57 17.469 63.73 18.269 64.73L44.0386 13.4399C43.9488 13.42 43.8589 13.3902 43.769 13.3901ZM30.189 46.5698C35.8588 45.2497 41.2488 40.53 44.4487 36.1001C48.2787 30.81 53.9384 17.7799 46.4585 14.1899L30.189 46.5698Z" fill="url(#paint0_linear_6_68)"/>
<path d="M52.7485 1.52002L53.4283 0.16049L53.1074 1.95503e-05H52.7485V1.52002ZM52.8091 1.55029L54.1671 2.23306L54.8514 0.872033L53.4888 0.190764L52.8091 1.55029ZM47.2183 12.6704L45.8602 11.9876L45.0347 13.6297L46.8025 14.1324L47.2183 12.6704ZM58.5483 23.73L60.052 23.5077L60.0517 23.5059L58.5483 23.73ZM30.8589 47.02L30.5858 45.5247L30.5788 45.526L30.5718 45.5274L30.8589 47.02ZM29.8989 47.1499L29.7311 45.6392L28.9108 45.7303L28.5405 46.4679L29.8989 47.1499ZM20.1382 66.5903L18.7798 65.9083L18.2202 67.0229L19.204 67.7894L20.1382 66.5903ZM26.2388 69.0308L26.458 67.5266L26.4555 67.5263L26.2388 69.0308ZM33.7583 68.3901L33.3183 66.9352L33.3069 66.9387L33.7583 68.3901ZM40.9985 64.3706V62.8506H40.4526L40.0314 63.198L40.9985 64.3706ZM43.4985 64.3706L44.6324 65.3829L46.8934 62.8506H43.4985V64.3706ZM42.7388 65.2007L41.6439 64.1463L41.6366 64.154L41.6293 64.1617L42.7388 65.2007ZM35.0083 71.2603L35.7344 72.5956L35.7355 72.595L35.0083 71.2603ZM26.4087 74.2905L26.674 75.7872H26.674L26.4087 74.2905ZM17.3686 74.4106L17.5912 72.907L17.5778 72.9051L17.3686 74.4106ZM16.2983 74.23L16.5964 72.7395L15.4606 72.5123L14.9403 73.5472L16.2983 74.23ZM7.44873 91.8306V93.3506H8.38579L8.80673 92.5134L7.44873 91.8306ZM4.64892 91.8306L3.29072 91.1482L2.18414 93.3506H4.64892V91.8306ZM13.7983 73.6206L15.1565 74.303L15.9703 72.6835L14.2337 72.1643L13.7983 73.6206ZM3.39892 65.0005L2.03222 65.6657L2.03247 65.6662L3.39892 65.0005ZM3.58838 43.4907L5.04551 43.9233L5.04762 43.9162L5.04967 43.9091L3.58838 43.4907ZM9.94873 30.0103L11.1982 30.8758L11.1987 30.8751L9.94873 30.0103ZM19.7183 19.52L18.7837 18.3212L18.7774 18.3262L19.7183 19.52ZM31.5083 13.1099L31.0349 11.6654L31.0276 11.6679L31.5083 13.1099ZM43.9087 11.9507L44.1314 10.4471L44.1293 10.4468L43.9087 11.9507ZM44.7183 12.0903L44.3886 13.5742L45.5448 13.831L46.0765 12.7727L44.7183 12.0903ZM50.0288 1.52002V1.95503e-05H49.0914L48.6706 0.837646L50.0288 1.52002ZM43.769 13.3901L43.5474 14.8939L43.6568 14.91L43.7674 14.9101L43.769 13.3901ZM34.3481 16.0698L33.5248 14.792L33.5154 14.7982L34.3481 16.0698ZM24.6587 26.0005L23.4121 25.1307L23.4068 25.1384L24.6587 26.0005ZM17.519 41.8306L18.9788 42.2545L18.9823 42.2422L17.519 41.8306ZM16.3286 61.23L17.7527 60.6986L17.7525 60.6981L16.3286 61.23ZM18.269 64.73L17.0821 65.6795L18.563 67.5306L19.6272 65.4124L18.269 64.73ZM44.0386 13.4399L45.3968 14.1223L46.2725 12.3794L44.3684 11.9562L44.0386 13.4399ZM30.189 46.5698L28.8308 45.8874L27.3744 48.7858L30.5337 48.0502L30.189 46.5698ZM44.4487 36.1001L43.2175 35.2087L43.2166 35.21L44.4487 36.1001ZM46.4585 14.1899L47.1162 12.8196L45.7705 12.1737L45.1003 13.5075L46.4585 14.1899ZM52.7485 1.52002L52.0688 2.87955L52.1293 2.90982L52.8091 1.55029L53.4888 0.190764L53.4283 0.16049L52.7485 1.52002ZM52.8091 1.55029L51.4511 0.867525L45.8602 11.9876L47.2183 12.6704L48.5763 13.3532L54.1671 2.23306L52.8091 1.55029ZM47.2183 12.6704L46.8025 14.1324C51.9879 15.6072 56.272 18.768 57.0449 23.954L58.5483 23.73L60.0517 23.5059C59.0244 16.6124 53.3484 12.8336 47.6341 11.2084L47.2183 12.6704ZM58.5483 23.73L57.0447 23.9523C57.9299 29.9398 54.2613 34.7883 48.5912 38.5314C42.9523 42.2539 35.7303 44.5854 30.5858 45.5247L30.8589 47.02L31.1319 48.5153C36.5576 47.5246 44.1953 45.076 50.266 41.0684C56.3056 37.0815 61.1967 31.25 60.052 23.5077L58.5483 23.73ZM30.8589 47.02L30.5718 45.5274C30.3816 45.5639 30.1029 45.5979 29.7311 45.6392L29.8989 47.1499L30.0668 48.6606C30.4147 48.6219 30.8163 48.5761 31.1459 48.5127L30.8589 47.02ZM29.8989 47.1499L28.5405 46.4679L18.7798 65.9083L20.1382 66.5903L21.4966 67.2724L31.2573 47.8319L29.8989 47.1499ZM20.1382 66.5903L19.204 67.7894C21.0766 69.2484 23.3768 70.1542 26.0221 70.5352L26.2388 69.0308L26.4555 67.5263C24.2407 67.2073 22.4597 66.4722 21.0724 65.3913L20.1382 66.5903ZM26.2388 69.0308L26.0196 70.5349C28.7268 70.9294 31.4657 70.695 34.2097 69.8416L33.7583 68.3901L33.3069 66.9387C30.9712 67.6651 28.6904 67.852 26.458 67.5266L26.2388 69.0308ZM33.7583 68.3901L34.1983 69.8451C36.8991 69.0283 39.4949 67.581 41.9657 65.5432L40.9985 64.3706L40.0314 63.198C37.8223 65.02 35.5773 66.252 33.3183 66.9352L33.7583 68.3901ZM40.9985 64.3706V65.8906H43.4985V64.3706V62.8506H40.9985V64.3706ZM43.4985 64.3706L42.3647 63.3583C42.111 63.6425 41.8804 63.9007 41.6439 64.1463L42.7388 65.2007L43.8337 66.255C44.117 65.9608 44.3862 65.6586 44.6324 65.3829L43.4985 64.3706ZM42.7388 65.2007L41.6293 64.1617C39.3714 66.5726 36.9179 68.489 34.2811 69.9255L35.0083 71.2603L35.7355 72.595C38.6786 70.9916 41.3862 68.8686 43.8482 66.2397L42.7388 65.2007ZM35.0083 71.2603L34.2822 69.9249C31.6826 71.3385 28.968 72.2932 26.1434 72.7939L26.4087 74.2905L26.674 75.7872C29.8292 75.2279 32.8542 74.1618 35.7344 72.5956L35.0083 71.2603ZM26.4087 74.2905L26.1434 72.7939C23.3165 73.2949 20.4712 73.3333 17.5912 72.907L17.3686 74.4106L17.1461 75.9143C20.3461 76.3879 23.5209 76.3461 26.674 75.7872L26.4087 74.2905ZM17.3686 74.4106L17.5778 72.9051C17.2464 72.8591 16.9158 72.8034 16.5964 72.7395L16.2983 74.23L16.0002 75.7205C16.3809 75.7966 16.7709 75.8622 17.1595 75.9162L17.3686 74.4106ZM16.2983 74.23L14.9403 73.5472L6.09072 91.1478L7.44873 91.8306L8.80673 92.5134L17.6563 74.9128L16.2983 74.23ZM7.44873 91.8306V90.3106H4.64892V91.8306V93.3506H7.44873V91.8306ZM4.64892 91.8306L6.00712 92.513L15.1565 74.303L13.7983 73.6206L12.4401 72.9382L3.29072 91.1482L4.64892 91.8306ZM13.7983 73.6206L14.2337 72.1643C9.76685 70.8288 6.65837 68.2202 4.76538 64.3348L3.39892 65.0005L2.03247 65.6662C4.31946 70.3604 8.1302 73.5124 13.3629 75.0769L13.7983 73.6206ZM3.39892 65.0005L4.76562 64.3353C2.43853 59.5543 2.40083 52.8309 5.04551 43.9233L3.58838 43.4907L2.13124 43.0581C-0.603818 52.2701 -0.780599 59.8868 2.03222 65.6657L3.39892 65.0005ZM3.58838 43.4907L5.04967 43.9091C6.40476 39.1759 8.4544 34.8369 11.1982 30.8758L9.94873 30.0103L8.69921 29.1447C5.76305 33.3836 3.57199 38.0255 2.12709 43.0724L3.58838 43.4907ZM9.94873 30.0103L11.1987 30.8751C13.9479 26.9019 17.1051 23.5145 20.6591 20.7139L19.7183 19.52L18.7774 18.3262C14.9715 21.3254 11.6095 24.9387 8.69878 29.1454L9.94873 30.0103ZM19.7183 19.52L20.6528 20.7188C24.2458 17.9178 28.024 15.8735 31.989 14.5519L31.5083 13.1099L31.0276 11.6679C26.7127 13.1062 22.6306 15.3223 18.7837 18.3212L19.7183 19.52ZM31.5083 13.1099L31.9817 14.5543C35.9539 13.2524 39.8468 12.8911 43.6881 13.4546L43.9087 11.9507L44.1293 10.4468C39.7906 9.81029 35.4227 10.2274 31.0349 11.6655L31.5083 13.1099ZM43.9087 11.9507L43.6859 13.4543C43.9657 13.4957 44.181 13.528 44.3886 13.5742L44.7183 12.0903L45.0479 10.6065C44.7158 10.5327 44.3914 10.4856 44.1314 10.4471L43.9087 11.9507ZM44.7183 12.0903L46.0765 12.7727L51.387 2.20239L50.0288 1.52002L48.6706 0.837646L43.36 11.408L44.7183 12.0903ZM50.0288 1.52002V3.04002H52.7485V1.52002V1.95503e-05H50.0288V1.52002ZM43.769 13.3901L43.9906 11.8864C40.6515 11.3943 37.1384 12.4638 33.5249 14.7921L34.3481 16.0698L35.1714 17.3476C38.4179 15.2558 41.1866 14.546 43.5474 14.8939L43.769 13.3901ZM34.3481 16.0698L33.5154 14.7982C29.9197 17.153 26.559 20.6206 23.4121 25.1307L24.6587 26.0005L25.9053 26.8702C28.8983 22.5805 31.9966 19.4267 35.1809 17.3414L34.3481 16.0698ZM24.6587 26.0005L23.4068 25.1384C20.2654 29.7002 17.8223 35.1393 16.0558 41.419L17.519 41.8306L18.9823 42.2422C20.6757 36.2219 22.992 31.1008 25.9106 26.8626L24.6587 26.0005ZM17.519 41.8306L16.0594 41.4066C13.5758 49.958 13.0576 56.8175 14.9047 61.7619L16.3286 61.23L17.7525 60.6981C16.2599 56.7025 16.5425 50.6427 18.9787 42.2545L17.519 41.8306ZM16.3286 61.23L14.9045 61.7614C15.4534 63.2323 16.1688 64.5378 17.0821 65.6795L18.269 64.73L19.456 63.7804C18.7693 62.9221 18.2038 61.9077 17.7527 60.6986L16.3286 61.23ZM18.269 64.73L19.6272 65.4124L45.3968 14.1223L44.0386 13.4399L42.6804 12.7575L16.9108 64.0476L18.269 64.73ZM44.0386 13.4399L44.3684 11.9562C44.3697 11.9564 44.3685 11.9562 44.3633 11.9549C44.3574 11.9535 44.3509 11.9519 44.3387 11.9489C44.3193 11.944 44.2775 11.9335 44.2323 11.9235C44.1437 11.9039 43.9757 11.8704 43.7707 11.8701L43.769 13.3901L43.7674 14.9101C43.7068 14.9101 43.6587 14.9051 43.6277 14.9008C43.5973 14.8965 43.5776 14.8922 43.5754 14.8917C43.5738 14.8913 43.5748 14.8915 43.5798 14.8928C43.5854 14.8941 43.5918 14.8957 43.6036 14.8986C43.6139 14.9012 43.6299 14.9052 43.6465 14.9092C43.6637 14.9134 43.685 14.9184 43.7087 14.9237L44.0386 13.4399ZM30.189 46.5698L30.5337 48.0502C36.6963 46.6153 42.3646 41.5811 45.6809 36.9901L44.4487 36.1001L43.2166 35.21C40.133 39.4789 35.0213 43.884 29.8443 45.0894L30.189 46.5698ZM44.4487 36.1001L45.6799 36.9915C47.6934 34.2104 50.168 29.4412 51.1795 24.8333C51.6852 22.5292 51.8543 20.1366 51.3115 18.0083C50.7527 15.8177 49.4396 13.9347 47.1162 12.8196L46.4585 14.1899L45.8008 15.5603C47.2174 16.2402 48.0017 17.3322 48.3658 18.7597C48.7458 20.2496 48.6631 22.1182 48.2102 24.1816C47.3042 28.3088 45.0341 32.6997 43.2175 35.2087L44.4487 36.1001ZM46.4585 14.1899L45.1003 13.5075L28.8308 45.8874L30.189 46.5698L31.5472 47.2523L47.8167 14.8724L46.4585 14.1899Z" fill="#172B4A" mask="url(#path-1-outside-1_6_68)"/>
<defs>
<linearGradient id="paint0_linear_6_68" x1="1.52002" y1="15.9644" x2="43.5408" y2="19.7537" gradientUnits="userSpaceOnUse">
<stop stop-color="#172B4A"/>
<stop offset="1" stop-color="#D4537E"/>
</linearGradient>
</defs>
</svg>
