<svg width="273" height="99" viewBox="0 0 273 99" fill="none" xmlns="http://www.w3.org/2000/svg">
<mask id="path-1-outside-1_8_83" maskUnits="userSpaceOnUse" x="0" y="0" width="273" height="99" fill="black">
<rect fill="white" width="273" height="99"/>
<path d="M139.387 16.4912C141.383 17.1066 143.16 17.9349 144.702 18.9922C147.247 20.6863 149.102 22.7957 150.168 25.335C151.226 27.8568 151.429 30.5252 150.81 33.291L150.811 33.292C150.281 35.8192 149.263 37.8704 147.546 39.1035L147.547 39.1045C147.542 39.1082 147.536 39.1115 147.531 39.1152C147.528 39.1177 147.525 39.1206 147.521 39.123L147.521 39.1221C145.996 40.2457 144.297 40.7423 142.488 40.4756C140.84 40.2324 139.461 39.4526 138.439 38.1523L138.414 38.1201L138.392 38.0869C137.386 36.6537 137.156 34.9649 137.538 33.1816C137.814 31.6828 138.223 30.3201 138.779 29.1084C139.205 28.1809 139.539 26.9972 139.756 25.5293C139.954 24.1832 139.643 23.0367 138.8 21.9883C138.481 21.5916 138.076 21.2402 137.572 20.9375L116.547 72.4492C116.837 72.5098 117.134 72.5661 117.44 72.6113C119.673 72.9406 121.953 72.7525 124.295 72.0254L124.306 72.0225C126.569 71.3387 128.81 70.1034 131.028 68.2773L131.443 67.9355H137.785L135.608 70.4229C135.352 70.7154 135.089 71.0091 134.818 71.2979C132.358 73.9185 129.654 76.0413 126.707 77.6514L126.703 77.6533C123.823 79.2154 120.804 80.2787 117.652 80.8369C116.089 81.1137 114.518 81.2605 112.941 81.2832L106.208 97.7842H100.268L107.194 80.8096C100.756 79.6446 96.046 76.4872 93.3027 71.2627L93.0312 70.7256C90.2249 64.9572 90.3921 57.3497 93.1289 48.1416L93.4092 47.2012C94.8506 42.5216 96.9444 38.1943 99.6924 34.2275C102.608 30.0194 105.967 26.4107 109.77 23.4111L109.778 23.4043L110.502 22.8525C114.137 20.1392 117.976 18.1014 122.014 16.7539L122.021 16.752C126 15.4459 129.963 14.9872 133.896 15.3896L139.771 1H145.711L139.387 16.4912ZM228.136 45.7373L226.557 45.6543C224.349 45.5382 222.524 45.9275 221.021 46.751L221.009 46.7578L221.008 46.7568C219.506 47.5627 218.349 48.6863 217.509 50.1445C216.89 51.275 216.503 52.5538 216.36 54.001V73.2402H206V36.2559H216.36V39.8916C216.982 39.2924 217.658 38.7578 218.392 38.292L218.841 38.0117C221.108 36.6554 223.723 36 226.636 36H228.136V45.7373ZM175.276 34.9561C179.345 34.5911 182.963 34.9082 186.088 35.9727C189.236 37.0451 191.696 38.8405 193.356 41.3936C195.042 43.9639 195.588 47.1054 195.162 50.6826C194.871 53.4694 193.955 56.1263 192.437 58.6416C190.963 61.1385 188.996 63.3832 186.557 65.3789C184.145 67.3512 181.356 68.9904 178.207 70.3037L178.197 70.3076C175.021 71.6052 171.559 72.451 167.818 72.8555C163.936 73.2759 160.382 73.0396 157.182 72.1045L157.173 72.1025L157.164 72.0996C153.959 71.121 151.402 69.419 149.59 66.9561L149.586 66.9512C147.713 64.3812 147.077 61.1752 147.501 57.4951C147.841 54.5016 148.788 51.6984 150.337 49.1006L150.341 49.0947L150.345 49.0879C151.92 46.5077 153.96 44.2274 156.449 42.2461C158.968 40.2401 161.816 38.619 164.982 37.3779L165.587 37.1445C168.625 36.0044 171.855 35.2775 175.271 34.957L175.276 34.9561ZM19.7158 35C23.9221 35 27.4698 35.8717 30.2266 37.7578C32.9474 39.5761 34.8636 42.1558 35.9834 45.4219C37.0894 48.6479 37.4576 52.402 37.1484 56.6416L37.0469 58.0322H11.8486C11.9772 58.3842 12.1206 58.722 12.2812 59.0449C13.0996 60.6037 14.1916 61.7753 15.5566 62.6035C16.965 63.4324 18.5936 63.8643 20.4844 63.8643C23.8821 63.8642 26.6915 62.6803 29.0068 60.2891L30.0664 59.1934L36.0596 65.1855L35.0996 66.2441C33.2837 68.2463 31.0763 69.7988 28.499 70.9033L28.4883 70.9072L28.4785 70.9121C25.8848 71.9774 23.0203 72.4961 19.9082 72.4961C16.1988 72.4961 12.8875 71.7261 10.0254 70.1309C7.18552 68.548 4.95912 66.3454 3.37109 63.543L3.36523 63.5342C1.77315 60.6776 1.00004 57.4113 1 53.7803C1 50.1538 1.77124 46.907 3.36523 44.0898C4.95155 41.2438 7.17942 39.016 10.0254 37.4297C12.8729 35.8426 16.1106 35.0454 19.6973 35H19.7158ZM253.716 35C257.922 35 261.47 35.8717 264.227 37.7578C266.947 39.5761 268.864 42.1558 269.983 45.4219C271.089 48.6479 271.458 52.402 271.148 56.6416L271.047 58.0322H245.849C245.977 58.3842 246.121 58.722 246.281 59.0449C247.1 60.6038 248.192 61.7753 249.557 62.6035C250.965 63.4324 252.594 63.8643 254.484 63.8643C257.882 63.8642 260.692 62.6803 263.007 60.2891L264.066 59.1934L270.06 65.1855L269.1 66.2441C267.284 68.2462 265.076 69.7988 262.499 70.9033L262.488 70.9072L262.479 70.9121C259.885 71.9774 257.02 72.4961 253.908 72.4961C250.199 72.4961 246.887 71.7261 244.025 70.1309C241.186 68.548 238.959 66.3454 237.371 63.543L237.365 63.5342C235.773 60.6776 235 57.4113 235 53.7803C235 50.1537 235.771 46.907 237.365 44.0898C238.952 41.2438 241.179 39.016 244.025 37.4297C246.873 35.8426 250.111 35.0454 253.697 35H253.716ZM67.4043 35C70.2451 35 72.7699 35.5723 74.916 36.7881C77.0999 38.0014 78.7653 39.7397 79.8818 41.9727C81.035 44.151 81.5762 46.7201 81.5762 49.6201V72.2402H71.2158V51.54C71.2158 49.1745 70.5742 47.52 69.4639 46.377L69.4492 46.3623C68.343 45.191 66.7721 44.5311 64.5381 44.5283C61.8946 44.5672 59.9412 45.4765 58.5068 47.1904C57.2919 48.6847 56.5671 50.5013 56.3604 52.6982V72.2402H46V35.2559H56.3604V38.7646C57.0052 38.1683 57.7076 37.6452 58.4707 37.2012L58.8936 36.9668C61.3659 35.6376 64.2192 35 67.4043 35ZM132.03 19.9609C130.269 20.2237 128.314 21.003 126.147 22.3975C122.966 24.4825 119.866 27.6372 116.867 31.9268C113.952 36.1712 111.636 41.2896 109.941 47.3057L109.938 47.3174C107.5 55.7027 107.219 61.7758 108.714 65.7754C109.39 67.5852 110.346 69.0079 111.571 70.0879L132.03 19.9609ZM179.494 39.8984C178.505 39.3776 177.295 39.1252 175.809 39.21L175.808 39.209C174.475 39.3031 173.157 39.7232 171.841 40.502C170.483 41.3058 169.163 42.3966 167.889 43.7949L167.888 43.7939C166.637 45.1743 165.488 46.7514 164.442 48.5273C163.442 50.2835 162.629 52.136 162.002 54.0859L162 54.0928C161.371 56.0177 160.976 57.9439 160.811 59.873L160.809 59.9033L160.805 59.9336C160.466 62.6102 160.653 64.4706 161.165 65.6699C161.699 66.9205 162.461 67.6759 163.431 68.0879C164.527 68.5535 165.856 68.7405 167.469 68.5771L167.473 68.5762C168.73 68.4522 170.001 68.0118 171.296 67.207C172.617 66.3855 173.862 65.3064 175.026 63.9541L175.029 63.9502C176.24 62.5533 177.317 60.9911 178.254 59.2617L178.259 59.252L178.264 59.2432C179.239 57.5034 180.028 55.7042 180.632 53.8467C181.232 51.966 181.619 50.1202 181.797 48.3086L181.799 48.291L181.801 48.2744C182.114 45.6993 181.977 43.806 181.522 42.4932C181.062 41.1626 180.366 40.3577 179.494 39.8984ZM263.14 50.0459C263.164 50.2221 263.186 50.401 263.203 50.583C263.186 50.401 263.164 50.2221 263.14 50.0459ZM19.7803 43.6318C17.9697 43.6318 16.456 44.0446 15.1865 44.8203L15.1855 44.8193C13.9512 45.5995 12.9631 46.7037 12.2256 48.1787L12.2217 48.1855L12.2188 48.1924C11.966 48.6853 11.7546 49.2153 11.5859 49.7842H27.5771C27.4068 48.8674 27.1263 48.0795 26.748 47.4072L26.4678 46.9297C25.8581 45.9371 25.0309 45.1704 23.957 44.6172L23.9404 44.6094L23.9258 44.6006C22.7679 43.9691 21.3999 43.6319 19.7803 43.6318ZM253.78 43.6318C251.97 43.6318 250.456 44.0446 249.187 44.8203L249.186 44.8193C247.951 45.5995 246.963 46.7037 246.226 48.1787L246.222 48.1855L246.219 48.1924C245.966 48.6853 245.755 49.2153 245.586 49.7842H261.579C261.391 48.7735 261.068 47.9202 260.629 47.2041L260.614 47.1797L260.601 47.1553C259.978 46.0492 259.108 45.2099 257.957 44.6172L257.94 44.6094L257.926 44.6006C256.768 43.9691 255.4 43.6319 253.78 43.6318ZM262.187 46.9141C262.259 47.0548 262.328 47.1989 262.394 47.3457C262.33 47.2044 262.265 47.0654 262.195 46.9297L262.187 46.9141ZM261.546 45.8359C261.62 45.9445 261.692 46.0548 261.761 46.168L261.605 45.9229C261.586 45.8935 261.566 45.865 261.546 45.8359ZM261.296 45.4883C261.254 45.4327 261.211 45.3775 261.167 45.3232C261.211 45.3775 261.254 45.4327 261.296 45.4883Z"/>
</mask>
<path d="M139.387 16.4912C141.383 17.1066 143.16 17.9349 144.702 18.9922C147.247 20.6863 149.102 22.7957 150.168 25.335C151.226 27.8568 151.429 30.5252 150.81 33.291L150.811 33.292C150.281 35.8192 149.263 37.8704 147.546 39.1035L147.547 39.1045C147.542 39.1082 147.536 39.1115 147.531 39.1152C147.528 39.1177 147.525 39.1206 147.521 39.123L147.521 39.1221C145.996 40.2457 144.297 40.7423 142.488 40.4756C140.84 40.2324 139.461 39.4526 138.439 38.1523L138.414 38.1201L138.392 38.0869C137.386 36.6537 137.156 34.9649 137.538 33.1816C137.814 31.6828 138.223 30.3201 138.779 29.1084C139.205 28.1809 139.539 26.9972 139.756 25.5293C139.954 24.1832 139.643 23.0367 138.8 21.9883C138.481 21.5916 138.076 21.2402 137.572 20.9375L116.547 72.4492C116.837 72.5098 117.134 72.5661 117.44 72.6113C119.673 72.9406 121.953 72.7525 124.295 72.0254L124.306 72.0225C126.569 71.3387 128.81 70.1034 131.028 68.2773L131.443 67.9355H137.785L135.608 70.4229C135.352 70.7154 135.089 71.0091 134.818 71.2979C132.358 73.9185 129.654 76.0413 126.707 77.6514L126.703 77.6533C123.823 79.2154 120.804 80.2787 117.652 80.8369C116.089 81.1137 114.518 81.2605 112.941 81.2832L106.208 97.7842H100.268L107.194 80.8096C100.756 79.6446 96.046 76.4872 93.3027 71.2627L93.0312 70.7256C90.2249 64.9572 90.3921 57.3497 93.1289 48.1416L93.4092 47.2012C94.8506 42.5216 96.9444 38.1943 99.6924 34.2275C102.608 30.0194 105.967 26.4107 109.77 23.4111L109.778 23.4043L110.502 22.8525C114.137 20.1392 117.976 18.1014 122.014 16.7539L122.021 16.752C126 15.4459 129.963 14.9872 133.896 15.3896L139.771 1H145.711L139.387 16.4912ZM228.136 45.7373L226.557 45.6543C224.349 45.5382 222.524 45.9275 221.021 46.751L221.009 46.7578L221.008 46.7568C219.506 47.5627 218.349 48.6863 217.509 50.1445C216.89 51.275 216.503 52.5538 216.36 54.001V73.2402H206V36.2559H216.36V39.8916C216.982 39.2924 217.658 38.7578 218.392 38.292L218.841 38.0117C221.108 36.6554 223.723 36 226.636 36H228.136V45.7373ZM175.276 34.9561C179.345 34.5911 182.963 34.9082 186.088 35.9727C189.236 37.0451 191.696 38.8405 193.356 41.3936C195.042 43.9639 195.588 47.1054 195.162 50.6826C194.871 53.4694 193.955 56.1263 192.437 58.6416C190.963 61.1385 188.996 63.3832 186.557 65.3789C184.145 67.3512 181.356 68.9904 178.207 70.3037L178.197 70.3076C175.021 71.6052 171.559 72.451 167.818 72.8555C163.936 73.2759 160.382 73.0396 157.182 72.1045L157.173 72.1025L157.164 72.0996C153.959 71.121 151.402 69.419 149.59 66.9561L149.586 66.9512C147.713 64.3812 147.077 61.1752 147.501 57.4951C147.841 54.5016 148.788 51.6984 150.337 49.1006L150.341 49.0947L150.345 49.0879C151.92 46.5077 153.96 44.2274 156.449 42.2461C158.968 40.2401 161.816 38.619 164.982 37.3779L165.587 37.1445C168.625 36.0044 171.855 35.2775 175.271 34.957L175.276 34.9561ZM19.7158 35C23.9221 35 27.4698 35.8717 30.2266 37.7578C32.9474 39.5761 34.8636 42.1558 35.9834 45.4219C37.0894 48.6479 37.4576 52.402 37.1484 56.6416L37.0469 58.0322H11.8486C11.9772 58.3842 12.1206 58.722 12.2812 59.0449C13.0996 60.6037 14.1916 61.7753 15.5566 62.6035C16.965 63.4324 18.5936 63.8643 20.4844 63.8643C23.8821 63.8642 26.6915 62.6803 29.0068 60.2891L30.0664 59.1934L36.0596 65.1855L35.0996 66.2441C33.2837 68.2463 31.0763 69.7988 28.499 70.9033L28.4883 70.9072L28.4785 70.9121C25.8848 71.9774 23.0203 72.4961 19.9082 72.4961C16.1988 72.4961 12.8875 71.7261 10.0254 70.1309C7.18552 68.548 4.95912 66.3454 3.37109 63.543L3.36523 63.5342C1.77315 60.6776 1.00004 57.4113 1 53.7803C1 50.1538 1.77124 46.907 3.36523 44.0898C4.95155 41.2438 7.17942 39.016 10.0254 37.4297C12.8729 35.8426 16.1106 35.0454 19.6973 35H19.7158ZM253.716 35C257.922 35 261.47 35.8717 264.227 37.7578C266.947 39.5761 268.864 42.1558 269.983 45.4219C271.089 48.6479 271.458 52.402 271.148 56.6416L271.047 58.0322H245.849C245.977 58.3842 246.121 58.722 246.281 59.0449C247.1 60.6038 248.192 61.7753 249.557 62.6035C250.965 63.4324 252.594 63.8643 254.484 63.8643C257.882 63.8642 260.692 62.6803 263.007 60.2891L264.066 59.1934L270.06 65.1855L269.1 66.2441C267.284 68.2462 265.076 69.7988 262.499 70.9033L262.488 70.9072L262.479 70.9121C259.885 71.9774 257.02 72.4961 253.908 72.4961C250.199 72.4961 246.887 71.7261 244.025 70.1309C241.186 68.548 238.959 66.3454 237.371 63.543L237.365 63.5342C235.773 60.6776 235 57.4113 235 53.7803C235 50.1537 235.771 46.907 237.365 44.0898C238.952 41.2438 241.179 39.016 244.025 37.4297C246.873 35.8426 250.111 35.0454 253.697 35H253.716ZM67.4043 35C70.2451 35 72.7699 35.5723 74.916 36.7881C77.0999 38.0014 78.7653 39.7397 79.8818 41.9727C81.035 44.151 81.5762 46.7201 81.5762 49.6201V72.2402H71.2158V51.54C71.2158 49.1745 70.5742 47.52 69.4639 46.377L69.4492 46.3623C68.343 45.191 66.7721 44.5311 64.5381 44.5283C61.8946 44.5672 59.9412 45.4765 58.5068 47.1904C57.2919 48.6847 56.5671 50.5013 56.3604 52.6982V72.2402H46V35.2559H56.3604V38.7646C57.0052 38.1683 57.7076 37.6452 58.4707 37.2012L58.8936 36.9668C61.3659 35.6376 64.2192 35 67.4043 35ZM132.03 19.9609C130.269 20.2237 128.314 21.003 126.147 22.3975C122.966 24.4825 119.866 27.6372 116.867 31.9268C113.952 36.1712 111.636 41.2896 109.941 47.3057L109.938 47.3174C107.5 55.7027 107.219 61.7758 108.714 65.7754C109.39 67.5852 110.346 69.0079 111.571 70.0879L132.03 19.9609ZM179.494 39.8984C178.505 39.3776 177.295 39.1252 175.809 39.21L175.808 39.209C174.475 39.3031 173.157 39.7232 171.841 40.502C170.483 41.3058 169.163 42.3966 167.889 43.7949L167.888 43.7939C166.637 45.1743 165.488 46.7514 164.442 48.5273C163.442 50.2835 162.629 52.136 162.002 54.0859L162 54.0928C161.371 56.0177 160.976 57.9439 160.811 59.873L160.809 59.9033L160.805 59.9336C160.466 62.6102 160.653 64.4706 161.165 65.6699C161.699 66.9205 162.461 67.6759 163.431 68.0879C164.527 68.5535 165.856 68.7405 167.469 68.5771L167.473 68.5762C168.73 68.4522 170.001 68.0118 171.296 67.207C172.617 66.3855 173.862 65.3064 175.026 63.9541L175.029 63.9502C176.24 62.5533 177.317 60.9911 178.254 59.2617L178.259 59.252L178.264 59.2432C179.239 57.5034 180.028 55.7042 180.632 53.8467C181.232 51.966 181.619 50.1202 181.797 48.3086L181.799 48.291L181.801 48.2744C182.114 45.6993 181.977 43.806 181.522 42.4932C181.062 41.1626 180.366 40.3577 179.494 39.8984ZM263.14 50.0459C263.164 50.2221 263.186 50.401 263.203 50.583C263.186 50.401 263.164 50.2221 263.14 50.0459ZM19.7803 43.6318C17.9697 43.6318 16.456 44.0446 15.1865 44.8203L15.1855 44.8193C13.9512 45.5995 12.9631 46.7037 12.2256 48.1787L12.2217 48.1855L12.2188 48.1924C11.966 48.6853 11.7546 49.2153 11.5859 49.7842H27.5771C27.4068 48.8674 27.1263 48.0795 26.748 47.4072L26.4678 46.9297C25.8581 45.9371 25.0309 45.1704 23.957 44.6172L23.9404 44.6094L23.9258 44.6006C22.7679 43.9691 21.3999 43.6319 19.7803 43.6318ZM253.78 43.6318C251.97 43.6318 250.456 44.0446 249.187 44.8203L249.186 44.8193C247.951 45.5995 246.963 46.7037 246.226 48.1787L246.222 48.1855L246.219 48.1924C245.966 48.6853 245.755 49.2153 245.586 49.7842H261.579C261.391 48.7735 261.068 47.9202 260.629 47.2041L260.614 47.1797L260.601 47.1553C259.978 46.0492 259.108 45.2099 257.957 44.6172L257.94 44.6094L257.926 44.6006C256.768 43.9691 255.4 43.6319 253.78 43.6318ZM262.187 46.9141C262.259 47.0548 262.328 47.1989 262.394 47.3457C262.33 47.2044 262.265 47.0654 262.195 46.9297L262.187 46.9141ZM261.546 45.8359C261.62 45.9445 261.692 46.0548 261.761 46.168L261.605 45.9229C261.586 45.8935 261.566 45.865 261.546 45.8359ZM261.296 45.4883C261.254 45.4327 261.211 45.3775 261.167 45.3232C261.211 45.3775 261.254 45.4327 261.296 45.4883Z" fill="white"/>
<path d="M139.387 16.4912C141.383 17.1066 143.16 17.9349 144.702 18.9922C147.247 20.6863 149.102 22.7957 150.168 25.335C151.226 27.8568 151.429 30.5252 150.81 33.291L150.811 33.292C150.281 35.8192 149.263 37.8704 147.546 39.1035L147.547 39.1045C147.542 39.1082 147.536 39.1115 147.531 39.1152C147.528 39.1177 147.525 39.1206 147.521 39.123L147.521 39.1221C145.996 40.2457 144.297 40.7423 142.488 40.4756C140.84 40.2324 139.461 39.4526 138.439 38.1523L138.414 38.1201L138.392 38.0869C137.386 36.6537 137.156 34.9649 137.538 33.1816C137.814 31.6828 138.223 30.3201 138.779 29.1084C139.205 28.1809 139.539 26.9972 139.756 25.5293C139.954 24.1832 139.643 23.0367 138.8 21.9883C138.481 21.5916 138.076 21.2402 137.572 20.9375L116.547 72.4492C116.837 72.5098 117.134 72.5661 117.44 72.6113C119.673 72.9406 121.953 72.7525 124.295 72.0254L124.306 72.0225C126.569 71.3387 128.81 70.1034 131.028 68.2773L131.443 67.9355H137.785L135.608 70.4229C135.352 70.7154 135.089 71.0091 134.818 71.2979C132.358 73.9185 129.654 76.0413 126.707 77.6514L126.703 77.6533C123.823 79.2154 120.804 80.2787 117.652 80.8369C116.089 81.1137 114.518 81.2605 112.941 81.2832L106.208 97.7842H100.268L107.194 80.8096C100.756 79.6446 96.046 76.4872 93.3027 71.2627L93.0312 70.7256C90.2249 64.9572 90.3921 57.3497 93.1289 48.1416L93.4092 47.2012C94.8506 42.5216 96.9444 38.1943 99.6924 34.2275C102.608 30.0194 105.967 26.4107 109.77 23.4111L109.778 23.4043L110.502 22.8525C114.137 20.1392 117.976 18.1014 122.014 16.7539L122.021 16.752C126 15.4459 129.963 14.9872 133.896 15.3896L139.771 1H145.711L139.387 16.4912ZM228.136 45.7373L226.557 45.6543C224.349 45.5382 222.524 45.9275 221.021 46.751L221.009 46.7578L221.008 46.7568C219.506 47.5627 218.349 48.6863 217.509 50.1445C216.89 51.275 216.503 52.5538 216.36 54.001V73.2402H206V36.2559H216.36V39.8916C216.982 39.2924 217.658 38.7578 218.392 38.292L218.841 38.0117C221.108 36.6554 223.723 36 226.636 36H228.136V45.7373ZM175.276 34.9561C179.345 34.5911 182.963 34.9082 186.088 35.9727C189.236 37.0451 191.696 38.8405 193.356 41.3936C195.042 43.9639 195.588 47.1054 195.162 50.6826C194.871 53.4694 193.955 56.1263 192.437 58.6416C190.963 61.1385 188.996 63.3832 186.557 65.3789C184.145 67.3512 181.356 68.9904 178.207 70.3037L178.197 70.3076C175.021 71.6052 171.559 72.451 167.818 72.8555C163.936 73.2759 160.382 73.0396 157.182 72.1045L157.173 72.1025L157.164 72.0996C153.959 71.121 151.402 69.419 149.59 66.9561L149.586 66.9512C147.713 64.3812 147.077 61.1752 147.501 57.4951C147.841 54.5016 148.788 51.6984 150.337 49.1006L150.341 49.0947L150.345 49.0879C151.92 46.5077 153.96 44.2274 156.449 42.2461C158.968 40.2401 161.816 38.619 164.982 37.3779L165.587 37.1445C168.625 36.0044 171.855 35.2775 175.271 34.957L175.276 34.9561ZM19.7158 35C23.9221 35 27.4698 35.8717 30.2266 37.7578C32.9474 39.5761 34.8636 42.1558 35.9834 45.4219C37.0894 48.6479 37.4576 52.402 37.1484 56.6416L37.0469 58.0322H11.8486C11.9772 58.3842 12.1206 58.722 12.2812 59.0449C13.0996 60.6037 14.1916 61.7753 15.5566 62.6035C16.965 63.4324 18.5936 63.8643 20.4844 63.8643C23.8821 63.8642 26.6915 62.6803 29.0068 60.2891L30.0664 59.1934L36.0596 65.1855L35.0996 66.2441C33.2837 68.2463 31.0763 69.7988 28.499 70.9033L28.4883 70.9072L28.4785 70.9121C25.8848 71.9774 23.0203 72.4961 19.9082 72.4961C16.1988 72.4961 12.8875 71.7261 10.0254 70.1309C7.18552 68.548 4.95912 66.3454 3.37109 63.543L3.36523 63.5342C1.77315 60.6776 1.00004 57.4113 1 53.7803C1 50.1538 1.77124 46.907 3.36523 44.0898C4.95155 41.2438 7.17942 39.016 10.0254 37.4297C12.8729 35.8426 16.1106 35.0454 19.6973 35H19.7158ZM253.716 35C257.922 35 261.47 35.8717 264.227 37.7578C266.947 39.5761 268.864 42.1558 269.983 45.4219C271.089 48.6479 271.458 52.402 271.148 56.6416L271.047 58.0322H245.849C245.977 58.3842 246.121 58.722 246.281 59.0449C247.1 60.6038 248.192 61.7753 249.557 62.6035C250.965 63.4324 252.594 63.8643 254.484 63.8643C257.882 63.8642 260.692 62.6803 263.007 60.2891L264.066 59.1934L270.06 65.1855L269.1 66.2441C267.284 68.2462 265.076 69.7988 262.499 70.9033L262.488 70.9072L262.479 70.9121C259.885 71.9774 257.02 72.4961 253.908 72.4961C250.199 72.4961 246.887 71.7261 244.025 70.1309C241.186 68.548 238.959 66.3454 237.371 63.543L237.365 63.5342C235.773 60.6776 235 57.4113 235 53.7803C235 50.1537 235.771 46.907 237.365 44.0898C238.952 41.2438 241.179 39.016 244.025 37.4297C246.873 35.8426 250.111 35.0454 253.697 35H253.716ZM67.4043 35C70.2451 35 72.7699 35.5723 74.916 36.7881C77.0999 38.0014 78.7653 39.7397 79.8818 41.9727C81.035 44.151 81.5762 46.7201 81.5762 49.6201V72.2402H71.2158V51.54C71.2158 49.1745 70.5742 47.52 69.4639 46.377L69.4492 46.3623C68.343 45.191 66.7721 44.5311 64.5381 44.5283C61.8946 44.5672 59.9412 45.4765 58.5068 47.1904C57.2919 48.6847 56.5671 50.5013 56.3604 52.6982V72.2402H46V35.2559H56.3604V38.7646C57.0052 38.1683 57.7076 37.6452 58.4707 37.2012L58.8936 36.9668C61.3659 35.6376 64.2192 35 67.4043 35ZM132.03 19.9609C130.269 20.2237 128.314 21.003 126.147 22.3975C122.966 24.4825 119.866 27.6372 116.867 31.9268C113.952 36.1712 111.636 41.2896 109.941 47.3057L109.938 47.3174C107.5 55.7027 107.219 61.7758 108.714 65.7754C109.39 67.5852 110.346 69.0079 111.571 70.0879L132.03 19.9609ZM179.494 39.8984C178.505 39.3776 177.295 39.1252 175.809 39.21L175.808 39.209C174.475 39.3031 173.157 39.7232 171.841 40.502C170.483 41.3058 169.163 42.3966 167.889 43.7949L167.888 43.7939C166.637 45.1743 165.488 46.7514 164.442 48.5273C163.442 50.2835 162.629 52.136 162.002 54.0859L162 54.0928C161.371 56.0177 160.976 57.9439 160.811 59.873L160.809 59.9033L160.805 59.9336C160.466 62.6102 160.653 64.4706 161.165 65.6699C161.699 66.9205 162.461 67.6759 163.431 68.0879C164.527 68.5535 165.856 68.7405 167.469 68.5771L167.473 68.5762C168.73 68.4522 170.001 68.0118 171.296 67.207C172.617 66.3855 173.862 65.3064 175.026 63.9541L175.029 63.9502C176.24 62.5533 177.317 60.9911 178.254 59.2617L178.259 59.252L178.264 59.2432C179.239 57.5034 180.028 55.7042 180.632 53.8467C181.232 51.966 181.619 50.1202 181.797 48.3086L181.799 48.291L181.801 48.2744C182.114 45.6993 181.977 43.806 181.522 42.4932C181.062 41.1626 180.366 40.3577 179.494 39.8984ZM263.14 50.0459C263.164 50.2221 263.186 50.401 263.203 50.583C263.186 50.401 263.164 50.2221 263.14 50.0459ZM19.7803 43.6318C17.9697 43.6318 16.456 44.0446 15.1865 44.8203L15.1855 44.8193C13.9512 45.5995 12.9631 46.7037 12.2256 48.1787L12.2217 48.1855L12.2188 48.1924C11.966 48.6853 11.7546 49.2153 11.5859 49.7842H27.5771C27.4068 48.8674 27.1263 48.0795 26.748 47.4072L26.4678 46.9297C25.8581 45.9371 25.0309 45.1704 23.957 44.6172L23.9404 44.6094L23.9258 44.6006C22.7679 43.9691 21.3999 43.6319 19.7803 43.6318ZM253.78 43.6318C251.97 43.6318 250.456 44.0446 249.187 44.8203L249.186 44.8193C247.951 45.5995 246.963 46.7037 246.226 48.1787L246.222 48.1855L246.219 48.1924C245.966 48.6853 245.755 49.2153 245.586 49.7842H261.579C261.391 48.7735 261.068 47.9202 260.629 47.2041L260.614 47.1797L260.601 47.1553C259.978 46.0492 259.108 45.2099 257.957 44.6172L257.94 44.6094L257.926 44.6006C256.768 43.9691 255.4 43.6319 253.78 43.6318ZM262.187 46.9141C262.259 47.0548 262.328 47.1989 262.394 47.3457C262.33 47.2044 262.265 47.0654 262.195 46.9297L262.187 46.9141ZM261.546 45.8359C261.62 45.9445 261.692 46.0548 261.761 46.168L261.605 45.9229C261.586 45.8935 261.566 45.865 261.546 45.8359ZM261.296 45.4883C261.254 45.4327 261.211 45.3775 261.167 45.3232C261.211 45.3775 261.254 45.4327 261.296 45.4883Z" fill="url(#paint0_linear_8_83)" fill-opacity="0.7"/>
<path d="M139.387 16.4912L138.461 16.1132L138.048 17.1249L139.092 17.4468L139.387 16.4912ZM144.702 18.9922L144.137 19.817L144.148 19.8247L144.702 18.9922ZM150.168 25.335L151.09 24.948L151.09 24.948L150.168 25.335ZM150.81 33.291L149.834 33.0725L149.714 33.6092L150.102 33.9981L150.81 33.291ZM150.811 33.292L151.789 33.497L151.9 32.9675L151.518 32.5849L150.811 33.292ZM147.546 39.1035L146.963 38.2913L146.006 38.978L146.839 39.8106L147.546 39.1035ZM147.547 39.1045L148.143 39.9073L149.073 39.2165L148.254 38.3974L147.547 39.1045ZM147.531 39.1152L148.112 39.9292L148.119 39.9243L148.126 39.9193L147.531 39.1152ZM147.521 39.123L146.814 39.8302L147.412 40.4277L148.101 39.9382L147.521 39.123ZM147.521 39.1221L148.228 38.415L147.619 37.8068L146.927 38.3172L147.521 39.1221ZM142.488 40.4756L142.342 41.4649L142.342 41.4649L142.488 40.4756ZM138.439 38.1523L139.226 37.5346L139.225 37.5335L138.439 38.1523ZM138.414 38.1201L137.586 38.6804L137.606 38.7105L137.629 38.739L138.414 38.1201ZM138.392 38.0869L139.22 37.5266L139.215 37.5196L139.21 37.5126L138.392 38.0869ZM137.538 33.1816L138.516 33.391L138.519 33.3768L138.522 33.3626L137.538 33.1816ZM138.779 29.1084L139.688 29.5255L139.688 29.5255L138.779 29.1084ZM139.756 25.5293L140.745 25.6753V25.6752L139.756 25.5293ZM138.8 21.9883L139.579 21.3616L139.579 21.3615L138.8 21.9883ZM137.572 20.9375L138.087 20.0804L137.087 19.4794L136.646 20.5596L137.572 20.9375ZM116.547 72.4492L115.621 72.0713L115.167 73.1825L116.342 73.4281L116.547 72.4492ZM117.44 72.6113L117.294 73.6006L117.294 73.6006L117.44 72.6113ZM124.295 72.0254L124.032 71.0606L124.015 71.0652L123.998 71.0704L124.295 72.0254ZM124.306 72.0225L124.569 72.9872L124.582 72.9837L124.595 72.9797L124.306 72.0225ZM131.028 68.2773L131.664 69.0494L131.664 69.0493L131.028 68.2773ZM131.443 67.9355V66.9355H131.085L130.808 67.1636L131.443 67.9355ZM137.785 67.9355L138.538 68.5941L139.989 66.9355H137.785V67.9355ZM135.608 70.4229L134.856 69.7643L134.856 69.7644L135.608 70.4229ZM134.818 71.2979L135.547 71.9823L135.547 71.9823L134.818 71.2979ZM126.707 77.6514L127.154 78.5458L127.171 78.5377L127.186 78.5289L126.707 77.6514ZM126.703 77.6533L126.256 76.7589L126.241 76.7663L126.226 76.7743L126.703 77.6533ZM117.652 80.8369L117.827 81.8216L117.827 81.8216L117.652 80.8369ZM112.941 81.2832L112.927 80.2833L112.265 80.2928L112.016 80.9054L112.941 81.2832ZM106.208 97.7842V98.7842H106.88L107.134 98.162L106.208 97.7842ZM100.268 97.7842L99.3417 97.4064L98.7795 98.7842H100.268V97.7842ZM107.194 80.8096L108.12 81.1874L108.586 80.0452L107.372 79.8255L107.194 80.8096ZM93.3027 71.2627L92.4103 71.7138L92.4138 71.7207L92.4174 71.7276L93.3027 71.2627ZM93.0312 70.7256L92.132 71.1631L92.1353 71.1699L92.1388 71.1767L93.0312 70.7256ZM93.1289 48.1416L92.1706 47.856L92.1703 47.8567L93.1289 48.1416ZM93.4092 47.2012L92.4535 46.9068L92.4508 46.9156L93.4092 47.2012ZM99.6924 34.2275L98.8704 33.6581L98.8704 33.6581L99.6924 34.2275ZM109.77 23.4111L109.156 22.6218L109.15 22.626L109.77 23.4111ZM109.778 23.4043L109.172 22.6091L109.164 22.6149L109.778 23.4043ZM110.502 22.8525L109.904 22.0511L109.896 22.0573L110.502 22.8525ZM122.014 16.7539L121.739 15.7924L121.718 15.7984L121.697 15.8053L122.014 16.7539ZM122.021 16.752L122.295 17.7135L122.314 17.7081L122.332 17.7021L122.021 16.752ZM133.896 15.3896L133.795 16.3845L134.539 16.4607L134.822 15.7676L133.896 15.3896ZM139.771 1V0H139.099L138.845 0.622065L139.771 1ZM145.711 1L146.637 1.37796L147.199 0H145.711V1ZM228.136 45.7373L228.083 46.7359L229.136 46.7913V45.7373H228.136ZM226.557 45.6543L226.504 46.6529L226.504 46.6529L226.557 45.6543ZM221.021 46.751L220.54 45.8739L220.528 45.8804L220.517 45.8872L221.021 46.751ZM221.009 46.7578L220.302 47.4649L220.847 48.01L221.513 47.6216L221.009 46.7578ZM221.008 46.7568L221.715 46.0497L221.19 45.5244L220.535 45.8757L221.008 46.7568ZM217.509 50.1445L216.642 49.6453L216.637 49.6549L216.632 49.6645L217.509 50.1445ZM216.36 54.001L215.365 53.9025L215.36 53.9516V54.001H216.36ZM216.36 73.2402V74.2402H217.36V73.2402H216.36ZM206 73.2402H205V74.2402H206V73.2402ZM206 36.2559V35.2559H205V36.2559H206ZM216.36 36.2559H217.36V35.2559H216.36V36.2559ZM216.36 39.8916H215.36V42.2453L217.055 40.6114L216.36 39.8916ZM218.392 38.292L217.862 37.4436L217.856 37.4478L218.392 38.292ZM218.841 38.0117L218.327 37.1536L218.319 37.1584L218.311 37.1633L218.841 38.0117ZM226.636 36V35H226.636L226.636 36ZM228.136 36H229.136V35H228.136V36ZM175.276 34.9561L175.187 33.9601L175.149 33.9634L175.112 33.9697L175.276 34.9561ZM186.088 35.9727L186.41 35.0261L186.41 35.0261L186.088 35.9727ZM193.356 41.3936L192.518 41.9388L192.52 41.9418L193.356 41.3936ZM195.162 50.6826L194.169 50.5644L194.168 50.5715L194.168 50.5787L195.162 50.6826ZM192.437 58.6416L191.58 58.1247L191.575 58.1334L192.437 58.6416ZM186.557 65.3789L187.19 66.1531L187.19 66.1529L186.557 65.3789ZM178.207 70.3037L178.578 71.2322L178.585 71.2295L178.592 71.2267L178.207 70.3037ZM178.197 70.3076L177.826 69.3791L177.819 69.3819L178.197 70.3076ZM167.818 72.8555L167.711 71.8613L167.711 71.8613L167.818 72.8555ZM157.182 72.1045L157.462 71.1446L157.431 71.1354L157.399 71.1283L157.182 72.1045ZM157.173 72.1025L156.857 73.0512L156.906 73.0675L156.956 73.0787L157.173 72.1025ZM157.164 72.0996L157.48 71.1509L157.468 71.1469L157.456 71.1432L157.164 72.0996ZM149.59 66.9561L150.395 66.3635L150.383 66.3472L150.371 66.3314L149.59 66.9561ZM149.586 66.9512L148.778 67.5401L148.791 67.5583L148.805 67.5759L149.586 66.9512ZM147.501 57.4951L148.494 57.6095L148.495 57.6079L147.501 57.4951ZM150.337 49.1006L149.505 48.5459L149.491 48.5669L149.478 48.5885L150.337 49.1006ZM150.341 49.0947L151.173 49.6494L151.192 49.6208L151.209 49.5909L150.341 49.0947ZM150.345 49.0879L149.491 48.5669L149.484 48.5792L149.476 48.5918L150.345 49.0879ZM156.449 42.2461L157.072 43.0286L157.072 43.0283L156.449 42.2461ZM164.982 37.3779L164.622 36.445L164.618 36.4469L164.982 37.3779ZM165.587 37.1445L165.236 36.2082L165.227 36.2117L165.587 37.1445ZM175.271 34.957L175.364 35.9527L175.4 35.9493L175.435 35.9434L175.271 34.957ZM30.2266 37.7578L29.6619 38.5832L29.6709 38.5892L30.2266 37.7578ZM35.9834 45.4219L36.9294 45.0976L36.9293 45.0975L35.9834 45.4219ZM37.1484 56.6416L38.1458 56.7144L38.1458 56.7143L37.1484 56.6416ZM37.0469 58.0322V59.0322H37.9765L38.0442 58.1051L37.0469 58.0322ZM11.8486 58.0322V57.0322H10.4186L10.9094 58.3754L11.8486 58.0322ZM12.2812 59.0449L11.3859 59.4904L11.3908 59.5001L11.3958 59.5097L12.2812 59.0449ZM15.5566 62.6035L15.0379 63.4585L15.0494 63.4653L15.5566 62.6035ZM20.4844 63.8643V64.8643H20.4844L20.4844 63.8643ZM29.0068 60.2891L29.7253 60.9847L29.7257 60.9842L29.0068 60.2891ZM30.0664 59.1934L30.7735 58.4862L30.0544 57.7673L29.3475 58.4982L30.0664 59.1934ZM36.0596 65.1855L36.8003 65.8573L37.4401 65.1518L36.7666 64.4784L36.0596 65.1855ZM35.0996 66.2441L35.8403 66.916L35.8404 66.9159L35.0996 66.2441ZM28.499 70.9033L28.8408 71.8431L28.8671 71.8335L28.8929 71.8225L28.499 70.9033ZM28.4883 70.9072L28.1465 69.9674L28.0925 69.9871L28.0411 70.0128L28.4883 70.9072ZM28.4785 70.9121L28.8584 71.8371L28.8926 71.8231L28.9257 71.8065L28.4785 70.9121ZM19.9082 72.4961V73.4961H19.9082L19.9082 72.4961ZM10.0254 70.1309L10.5122 69.2574V69.2574L10.0254 70.1309ZM3.37109 63.543L4.24112 63.05L4.22325 63.0184L4.20314 62.9883L3.37109 63.543ZM3.36523 63.5342L2.49174 64.021L2.51111 64.0558L2.53318 64.0889L3.36523 63.5342ZM1 53.7803H0V53.7803L1 53.7803ZM3.36523 44.0898L4.23559 44.5823L4.23872 44.5767L3.36523 44.0898ZM10.0254 37.4297L9.53853 36.5562L9.53852 36.5562L10.0254 37.4297ZM19.6973 35V33.9999L19.6846 34.0001L19.6973 35ZM264.227 37.7578L263.662 38.5832L263.671 38.5892L264.227 37.7578ZM269.983 45.4219L270.929 45.0976V45.0975L269.983 45.4219ZM271.148 56.6416L272.146 56.7144V56.7143L271.148 56.6416ZM271.047 58.0322V59.0322H271.977L272.044 58.1051L271.047 58.0322ZM245.849 58.0322V57.0322H244.419L244.909 58.3754L245.849 58.0322ZM246.281 59.0449L245.386 59.4904L245.391 59.5001L245.396 59.5097L246.281 59.0449ZM249.557 62.6035L249.038 63.4585L249.049 63.4653L249.557 62.6035ZM254.484 63.8643V64.8643H254.484L254.484 63.8643ZM263.007 60.2891L263.725 60.9847L263.726 60.9842L263.007 60.2891ZM264.066 59.1934L264.773 58.4862L264.054 57.7673L263.348 58.4982L264.066 59.1934ZM270.06 65.1855L270.8 65.8573L271.44 65.1518L270.767 64.4784L270.06 65.1855ZM269.1 66.2441L269.84 66.916L269.84 66.9159L269.1 66.2441ZM262.499 70.9033L262.841 71.8431L262.867 71.8335L262.893 71.8225L262.499 70.9033ZM262.488 70.9072L262.147 69.9674L262.092 69.9871L262.041 70.0128L262.488 70.9072ZM262.479 70.9121L262.858 71.8371L262.893 71.8231L262.926 71.8065L262.479 70.9121ZM253.908 72.4961V73.4961V73.4961V72.4961ZM244.025 70.1309L243.539 71.0043V71.0043L244.025 70.1309ZM237.371 63.543L238.241 63.05L238.223 63.0184L238.203 62.9883L237.371 63.543ZM237.365 63.5342L236.492 64.021L236.511 64.0558L236.533 64.0889L237.365 63.5342ZM235 53.7803H234V53.7803L235 53.7803ZM237.365 44.0898L238.236 44.5823L238.239 44.5767L237.365 44.0898ZM244.025 37.4297L243.539 36.5562V36.5562L244.025 37.4297ZM253.697 35V33.9999L253.685 34.0001L253.697 35ZM67.4043 35L67.4043 34H67.4043V35ZM74.916 36.7881L74.4231 37.6582L74.4304 37.6622L74.916 36.7881ZM79.8818 41.9727L78.9874 42.4199L78.9926 42.4303L78.998 42.4405L79.8818 41.9727ZM81.5762 72.2402V73.2402H82.5762V72.2402H81.5762ZM71.2158 72.2402H70.2158V73.2402H71.2158V72.2402ZM69.4639 46.377L70.1812 45.6802L70.1761 45.675L70.171 45.6698L69.4639 46.377ZM69.4492 46.3623L68.7222 47.0489L68.732 47.0593L68.7421 47.0694L69.4492 46.3623ZM64.5381 44.5283L64.5393 43.5283L64.5313 43.5283L64.5234 43.5284L64.5381 44.5283ZM58.5068 47.1904L57.7399 46.5486L57.731 46.5596L58.5068 47.1904ZM56.3604 52.6982L55.3647 52.6046L55.3604 52.6513V52.6982H56.3604ZM56.3604 72.2402V73.2402H57.3604V72.2402H56.3604ZM46 72.2402H45V73.2402H46V72.2402ZM46 35.2559V34.2559H45V35.2559H46ZM56.3604 35.2559H57.3604V34.2559H56.3604V35.2559ZM56.3604 38.7646H55.3604V41.0516L57.0393 39.4988L56.3604 38.7646ZM58.4707 37.2012L57.9859 36.3265L57.9768 36.3316L57.9678 36.3368L58.4707 37.2012ZM58.8936 36.9668L58.42 36.0859L58.4088 36.0922L58.8936 36.9668ZM132.03 19.9609L132.956 20.3388L133.62 18.7127L131.883 18.9719L132.03 19.9609ZM126.147 22.3975L125.606 21.5565L125.599 21.5611L126.147 22.3975ZM116.867 31.9268L116.048 31.3537L116.043 31.3606L116.867 31.9268ZM109.941 47.3057L108.979 47.0345L108.975 47.0488L108.971 47.0631L109.941 47.3057ZM109.938 47.3174L110.899 47.5966L110.904 47.5784L110.909 47.5599L109.938 47.3174ZM108.714 65.7754L107.777 66.1254L107.777 66.1255L108.714 65.7754ZM111.571 70.0879L110.91 70.838L111.965 71.7686L112.497 70.4658L111.571 70.0879ZM179.494 39.8984L179.96 39.0136L179.96 39.0136L179.494 39.8984ZM175.809 39.21L175.101 39.9171L175.418 40.2338L175.865 40.2083L175.809 39.21ZM175.808 39.209L176.515 38.5019L176.192 38.1793L175.737 38.2115L175.808 39.209ZM171.841 40.502L171.331 39.6414L171.331 39.6414L171.841 40.502ZM167.889 43.7949L167.182 44.502L167.922 45.2426L168.628 44.4686L167.889 43.7949ZM167.888 43.7939L168.595 43.0868L167.852 42.3439L167.147 43.1226L167.888 43.7939ZM164.442 48.5273L163.581 48.0198L163.577 48.0261L163.573 48.0325L164.442 48.5273ZM162.002 54.0859L161.05 53.78L161.045 53.7955L161.04 53.8112L162.002 54.0859ZM162 54.0928L162.951 54.4033L162.956 54.3855L162.962 54.3675L162 54.0928ZM160.811 59.873L159.814 59.7877L159.813 59.7982L159.813 59.8087L160.811 59.873ZM160.809 59.9033L161.8 60.0313L161.804 59.9996L161.807 59.9677L160.809 59.9033ZM160.805 59.9336L159.813 59.8056L159.813 59.8082L160.805 59.9336ZM161.165 65.6699L160.245 66.0627L160.245 66.0627L161.165 65.6699ZM163.431 68.0879L163.04 69.0082L163.04 69.0083L163.431 68.0879ZM167.469 68.5771L167.57 69.5721L167.641 69.5648L167.711 69.5473L167.469 68.5771ZM167.473 68.5762L167.374 67.581L167.301 67.5882L167.23 67.606L167.473 68.5762ZM171.296 67.207L171.824 68.0563L171.824 68.0563L171.296 67.207ZM175.026 63.9541L175.784 64.6065L175.806 64.581L175.826 64.5541L175.026 63.9541ZM175.029 63.9502L174.274 63.2951L174.251 63.3219L174.229 63.3502L175.029 63.9502ZM178.254 59.2617L179.133 59.7381L179.141 59.7236L179.148 59.7089L178.254 59.2617ZM178.259 59.252L177.385 58.7663L177.374 58.7853L177.364 58.8047L178.259 59.252ZM178.264 59.2432L177.391 58.7541L177.39 58.7575L178.264 59.2432ZM180.632 53.8467L181.583 54.1558L181.584 54.1508L180.632 53.8467ZM181.797 48.3086L180.803 48.1982L180.802 48.2107L181.797 48.3086ZM181.799 48.291L180.806 48.1742L180.805 48.1806L181.799 48.291ZM181.801 48.2744L180.808 48.1537L180.808 48.1576L181.801 48.2744ZM181.522 42.4932L182.468 42.1663L182.468 42.1662L181.522 42.4932ZM263.14 50.0459L264.13 49.909L262.149 50.1827L263.14 50.0459ZM263.203 50.583L262.208 50.6776L264.199 50.4885L263.203 50.583ZM19.7803 43.6318L19.7803 42.6318H19.7803V43.6318ZM15.1865 44.8203L14.4794 45.5274L15.0361 46.0841L15.708 45.6736L15.1865 44.8203ZM15.1855 44.8193L15.8927 44.1122L15.3272 43.5468L14.6513 43.974L15.1855 44.8193ZM12.2256 48.1787L13.0938 48.6749L13.1076 48.6508L13.12 48.6259L12.2256 48.1787ZM12.2217 48.1855L11.3534 47.6894L11.3251 47.7391L11.3025 47.7916L12.2217 48.1855ZM12.2188 48.1924L13.1086 48.6487L13.1243 48.618L13.1379 48.5863L12.2188 48.1924ZM11.5859 49.7842L10.6272 49.5L10.2465 50.7842H11.5859V49.7842ZM27.5771 49.7842V50.7842H28.7801L28.5603 49.6015L27.5771 49.7842ZM26.748 47.4072L27.6195 46.9168L27.6151 46.9089L27.6105 46.9011L26.748 47.4072ZM26.4678 46.9297L27.3302 46.4235L27.3251 46.4149L27.3199 46.4063L26.4678 46.9297ZM23.957 44.6172L24.415 43.7282L24.3991 43.72L24.3828 43.7124L23.957 44.6172ZM23.9404 44.6094L23.4259 45.4669L23.4691 45.4928L23.5146 45.5142L23.9404 44.6094ZM23.9258 44.6006L24.4403 43.7431L24.4226 43.7325L24.4046 43.7227L23.9258 44.6006ZM253.78 43.6318L253.78 42.6318H253.78V43.6318ZM249.187 44.8203L248.479 45.5274L249.036 46.0841L249.708 45.6736L249.187 44.8203ZM249.186 44.8193L249.893 44.1122L249.327 43.5468L248.651 43.974L249.186 44.8193ZM246.226 48.1787L247.094 48.6749L247.108 48.6508L247.12 48.6259L246.226 48.1787ZM246.222 48.1855L245.353 47.6894L245.325 47.7391L245.303 47.7916L246.222 48.1855ZM246.219 48.1924L247.109 48.6487L247.124 48.618L247.138 48.5863L246.219 48.1924ZM245.586 49.7842L244.627 49.5L244.247 50.7842H245.586V49.7842ZM261.579 49.7842V50.7842H262.782L262.562 49.6017L261.579 49.7842ZM260.629 47.2041L259.771 47.7186L259.776 47.7266L260.629 47.2041ZM260.614 47.1797L259.742 47.6683L259.749 47.6814L259.757 47.6942L260.614 47.1797ZM260.601 47.1553L261.473 46.6667L261.472 46.665L260.601 47.1553ZM257.957 44.6172L258.415 43.7282L258.399 43.72L258.383 43.7124L257.957 44.6172ZM257.94 44.6094L257.426 45.4669L257.469 45.4928L257.515 45.5142L257.94 44.6094ZM257.926 44.6006L258.44 43.7431L258.423 43.7325L258.405 43.7227L257.926 44.6006ZM262.187 46.9141L263.058 46.4238L261.299 47.3741L262.187 46.9141ZM262.394 47.3457L261.48 47.7533L263.307 46.9382L262.394 47.3457ZM262.195 46.9297L263.084 46.4717L263.076 46.4554L263.067 46.4394L262.195 46.9297ZM261.546 45.8359L262.373 45.2742L260.719 46.3977L261.546 45.8359ZM261.761 46.168L260.916 46.7031L262.615 45.6474L261.761 46.168ZM261.605 45.9229L262.45 45.3877L262.445 45.3799L262.44 45.3721L261.605 45.9229ZM261.296 45.4883L260.5 46.0944L262.091 44.8822L261.296 45.4883ZM261.167 45.3232L261.946 44.6958L260.388 45.9507L261.167 45.3232ZM139.387 16.4912L139.092 17.4468C141.007 18.0371 142.69 18.8249 144.137 19.8169L144.702 18.9922L145.268 18.1675C143.631 17.0449 141.759 16.1761 139.681 15.5356L139.387 16.4912ZM144.702 18.9922L144.148 19.8247C146.558 21.4284 148.268 23.393 149.246 25.7219L150.168 25.335L151.09 24.948C149.936 22.1984 147.937 19.9442 145.256 18.1597L144.702 18.9922ZM150.168 25.335L149.246 25.7219C150.219 28.0407 150.411 30.4965 149.834 33.0725L150.81 33.291L151.785 33.5095C152.447 30.554 152.233 27.673 151.09 24.948L150.168 25.335ZM150.81 33.291L150.102 33.9981L150.103 33.9991L150.811 33.292L151.518 32.5849L151.517 32.5839L150.81 33.291ZM150.811 33.292L149.832 33.087C149.328 35.4903 148.395 37.2628 146.963 38.2913L147.546 39.1035L148.129 39.9158C150.131 38.478 151.234 36.1481 151.789 33.497L150.811 33.292ZM147.546 39.1035L146.839 39.8106L146.84 39.8116L147.547 39.1045L148.254 38.3974L148.253 38.3964L147.546 39.1035ZM147.547 39.1045L146.951 38.3017C146.964 38.2921 146.974 38.2849 146.98 38.281C146.983 38.279 146.985 38.2774 146.986 38.2767C146.987 38.276 146.988 38.2755 146.987 38.276C146.987 38.2762 146.985 38.2776 146.983 38.279C146.98 38.2806 146.977 38.2829 146.973 38.2857C146.965 38.2912 146.952 38.3 146.937 38.3112L147.531 39.1152L148.126 39.9193C148.113 39.9286 148.103 39.9356 148.098 39.9393C148.095 39.9413 148.093 39.9427 148.092 39.9434C148.091 39.9439 148.09 39.9444 148.091 39.9437C148.092 39.9434 148.094 39.942 148.096 39.9404C148.098 39.9388 148.102 39.9364 148.106 39.9334C148.115 39.9277 148.128 39.9187 148.143 39.9073L147.547 39.1045ZM147.531 39.1152L146.95 38.3012C146.927 38.3177 146.909 38.332 146.898 38.341C146.893 38.3455 146.888 38.3494 146.885 38.3518C146.884 38.353 146.882 38.354 146.882 38.3547C146.881 38.3553 146.88 38.3559 146.88 38.356C146.88 38.3565 146.881 38.3552 146.883 38.3535C146.885 38.3516 146.889 38.3484 146.894 38.3443C146.904 38.3365 146.921 38.3233 146.942 38.3079L147.521 39.123L148.101 39.9382C148.124 39.9216 148.142 39.9071 148.154 39.898C148.159 39.8933 148.164 39.8894 148.167 39.8868C148.17 39.8845 148.172 39.8824 148.173 39.8823C148.173 39.8816 148.172 39.8829 148.17 39.8845C148.168 39.8862 148.164 39.8894 148.159 39.8933C148.15 39.901 148.133 39.914 148.112 39.9292L147.531 39.1152ZM147.521 39.123L148.229 38.4159L148.228 38.415L147.521 39.1221L146.813 39.8292L146.814 39.8302L147.521 39.123ZM147.521 39.1221L146.927 38.3172C145.587 39.3051 144.149 39.7097 142.634 39.4863L142.488 40.4756L142.342 41.4649C144.446 41.775 146.406 41.1862 148.114 39.927L147.521 39.1221ZM142.488 40.4756L142.634 39.4863C141.23 39.2791 140.084 38.6265 139.226 37.5346L138.439 38.1523L137.653 38.7701C138.838 40.2787 140.45 41.1856 142.342 41.4649L142.488 40.4756ZM138.439 38.1523L139.225 37.5335L139.2 37.5012L138.414 38.1201L137.629 38.739L137.654 38.7712L138.439 38.1523ZM138.414 38.1201L139.242 37.5598L139.22 37.5266L138.392 38.0869L137.563 38.6472L137.586 38.6804L138.414 38.1201ZM138.392 38.0869L139.21 37.5126C138.395 36.3499 138.18 34.958 138.516 33.391L137.538 33.1816L136.56 32.9723C136.132 34.9718 136.378 36.9575 137.573 38.6612L138.392 38.0869ZM137.538 33.1816L138.522 33.3626C138.785 31.9296 139.173 30.6487 139.688 29.5255L138.779 29.1084L137.87 28.6913C137.274 29.9915 136.842 31.436 136.555 33.0007L137.538 33.1816ZM138.779 29.1084L139.688 29.5255C140.164 28.4893 140.519 27.2087 140.745 25.6753L139.756 25.5293L138.767 25.3833C138.56 26.7857 138.246 27.8724 137.87 28.6913L138.779 29.1084ZM139.756 25.5293L140.745 25.6752C140.984 24.0554 140.598 22.6286 139.579 21.3616L138.8 21.9883L138.021 22.615C138.688 23.4449 138.925 24.3109 138.767 25.3834L139.756 25.5293ZM138.8 21.9883L139.579 21.3615C139.18 20.8653 138.683 20.4384 138.087 20.0804L137.572 20.9375L137.057 21.7946C137.469 22.0421 137.782 22.3179 138.021 22.615L138.8 21.9883ZM137.572 20.9375L136.646 20.5596L115.621 72.0713L116.547 72.4492L117.473 72.8271L138.498 21.3154L137.572 20.9375ZM116.547 72.4492L116.342 73.4281C116.644 73.4912 116.962 73.5516 117.294 73.6006L117.44 72.6113L117.586 71.622C117.306 71.5806 117.029 71.5284 116.751 71.4704L116.547 72.4492ZM117.44 72.6113L117.294 73.6006C119.684 73.9532 122.116 73.749 124.591 72.9804L124.295 72.0254L123.998 71.0704C121.79 71.7561 119.661 71.928 117.586 71.622L117.44 72.6113ZM124.295 72.0254L124.558 72.9902L124.569 72.9872L124.306 72.0225L124.043 71.0577L124.032 71.0606L124.295 72.0254ZM124.306 72.0225L124.595 72.9797C127.005 72.2516 129.361 70.945 131.664 69.0494L131.028 68.2773L130.393 67.5053C128.259 69.2618 126.133 70.4257 124.016 71.0652L124.306 72.0225ZM131.028 68.2773L131.664 69.0493L132.079 68.7075L131.443 67.9355L130.808 67.1636L130.393 67.5054L131.028 68.2773ZM131.443 67.9355V68.9355H137.785V67.9355V66.9355H131.443V67.9355ZM137.785 67.9355L137.033 67.277L134.856 69.7643L135.608 70.4229L136.361 71.0814L138.538 68.5941L137.785 67.9355ZM135.608 70.4229L134.856 69.7644C134.605 70.0513 134.35 70.3358 134.089 70.6134L134.818 71.2979L135.547 71.9823C135.829 71.6825 136.1 71.3796 136.361 71.0813L135.608 70.4229ZM134.818 71.2979L134.089 70.6134C131.696 73.1631 129.075 75.2184 126.228 76.7738L126.707 77.6514L127.186 78.5289C130.234 76.8641 133.021 74.6738 135.547 71.9823L134.818 71.2979ZM126.707 77.6514L126.26 76.7569L126.256 76.7589L126.703 77.6533L127.15 78.5477L127.154 78.5458L126.707 77.6514ZM126.703 77.6533L126.226 76.7743C123.438 78.2866 120.521 79.3133 117.478 79.8522L117.652 80.8369L117.827 81.8216C121.088 81.2441 124.208 80.1442 127.18 78.5323L126.703 77.6533ZM117.652 80.8369L117.478 79.8522C115.968 80.1195 114.451 80.2614 112.927 80.2833L112.941 81.2832L112.956 82.2831C114.585 82.2596 116.21 82.1079 117.827 81.8216L117.652 80.8369ZM112.941 81.2832L112.016 80.9054L105.282 97.4064L106.208 97.7842L107.134 98.162L113.867 81.661L112.941 81.2832ZM106.208 97.7842V96.7842H100.268V97.7842V98.7842H106.208V97.7842ZM100.268 97.7842L101.193 98.162L108.12 81.1874L107.194 80.8096L106.268 80.4317L99.3417 97.4064L100.268 97.7842ZM107.194 80.8096L107.372 79.8255C101.186 78.7062 96.7656 75.7065 94.1881 70.7978L93.3027 71.2627L92.4174 71.7276C95.3264 77.2679 100.326 80.5831 107.016 81.7936L107.194 80.8096ZM93.3027 71.2627L94.1952 70.8116L93.9237 70.2745L93.0312 70.7256L92.1388 71.1767L92.4103 71.7138L93.3027 71.2627ZM93.0312 70.7256L93.9305 70.2881C91.2837 64.8476 91.3807 57.5336 94.0875 48.4265L93.1289 48.1416L92.1703 47.8567C89.4035 57.1659 89.1662 65.0669 92.132 71.1631L93.0312 70.7256ZM93.1289 48.1416L94.0872 48.4272L94.3675 47.4868L93.4092 47.2012L92.4508 46.9156L92.1706 47.856L93.1289 48.1416ZM93.4092 47.2012L94.3649 47.4956C95.7767 42.9122 97.8259 38.6779 100.514 34.797L99.6924 34.2275L98.8704 33.6581C96.0629 37.7107 93.9246 42.1311 92.4535 46.9068L93.4092 47.2012ZM99.6924 34.2275L100.514 34.797C103.377 30.6654 106.669 27.1307 110.389 24.1963L109.77 23.4111L109.15 22.626C105.265 25.6907 101.839 29.3734 98.8704 33.6581L99.6924 34.2275ZM109.77 23.4111L110.383 24.2005L110.392 24.1936L109.778 23.4043L109.164 22.6149L109.156 22.6218L109.77 23.4111ZM109.778 23.4043L110.385 24.1995L111.108 23.6477L110.502 22.8525L109.896 22.0573L109.172 22.6091L109.778 23.4043ZM110.502 22.8525L111.1 23.6539C114.657 20.9996 118.4 19.0138 122.33 17.7025L122.014 16.7539L121.697 15.8053C117.551 17.189 113.618 19.2788 109.904 22.0511L110.502 22.8525ZM122.014 16.7539L122.288 17.7154L122.295 17.7135L122.021 16.752L121.746 15.7904L121.739 15.7924L122.014 16.7539ZM122.021 16.752L122.332 17.7021C126.188 16.4367 130.01 15.9972 133.795 16.3845L133.896 15.3896L133.998 14.3948C129.916 13.9772 125.812 14.455 121.709 15.8018L122.021 16.752ZM133.896 15.3896L134.822 15.7676L140.696 1.37794L139.771 1L138.845 0.622065L132.971 15.0117L133.896 15.3896ZM139.771 1V2H145.711V1V0H139.771V1ZM145.711 1L144.785 0.622038L138.461 16.1132L139.387 16.4912L140.313 16.8692L146.637 1.37796L145.711 1ZM228.136 45.7373L228.188 44.7387L226.609 44.6557L226.557 45.6543L226.504 46.6529L228.083 46.7359L228.136 45.7373ZM226.557 45.6543L226.609 44.6557C224.252 44.5317 222.236 44.9453 220.54 45.8739L221.021 46.751L221.501 47.6281C222.813 46.9097 224.446 46.5446 226.504 46.6529L226.557 45.6543ZM221.021 46.751L220.517 45.8872L220.505 45.894L221.009 46.7578L221.513 47.6216L221.524 47.6148L221.021 46.751ZM221.009 46.7578L221.716 46.0507L221.715 46.0497L221.008 46.7568L220.301 47.4639L220.302 47.4649L221.009 46.7578ZM221.008 46.7568L220.535 45.8757C218.87 46.7692 217.576 48.0247 216.642 49.6453L217.509 50.1445L218.375 50.6438C219.122 49.3479 220.143 48.3561 221.481 47.638L221.008 46.7568ZM217.509 50.1445L216.632 49.6645C215.943 50.9236 215.52 52.3342 215.365 53.9025L216.36 54.001L217.355 54.0994C217.487 52.7735 217.838 51.6263 218.386 50.6245L217.509 50.1445ZM216.36 54.001H215.36V73.2402H216.36H217.36V54.001H216.36ZM216.36 73.2402V72.2402H206V73.2402V74.2402H216.36V73.2402ZM206 73.2402H207V36.2559H206H205V73.2402H206ZM206 36.2559V37.2559H216.36V36.2559V35.2559H206V36.2559ZM216.36 36.2559H215.36V39.8916H216.36H217.36V36.2559H216.36ZM216.36 39.8916L217.055 40.6114C217.628 40.058 218.252 39.5653 218.928 39.1362L218.392 38.292L217.856 37.4478C217.064 37.9504 216.335 38.5269 215.666 39.1718L216.36 39.8916ZM218.392 38.292L218.921 39.1404L219.37 38.8601L218.841 38.0117L218.311 37.1633L217.862 37.4436L218.392 38.292ZM218.841 38.0117L219.354 38.8699C221.445 37.6193 223.877 37 226.636 37L226.636 36L226.636 35C223.57 35 220.771 35.6915 218.327 37.1536L218.841 38.0117ZM226.636 36V37H228.136V36V35H226.636V36ZM228.136 36H227.136V45.7373H228.136H229.136V36H228.136ZM175.276 34.9561L175.366 35.9521C179.335 35.596 182.806 35.9111 185.765 36.9192L186.088 35.9727L186.41 35.0261C183.12 33.9053 179.356 33.5861 175.187 33.9601L175.276 34.9561ZM186.088 35.9727L185.765 36.9192C188.733 37.9303 190.997 39.5999 192.518 41.9388L193.356 41.3936L194.195 40.8483C192.395 38.0812 189.738 36.16 186.41 35.0261L186.088 35.9727ZM193.356 41.3936L192.52 41.9418C194.044 44.2664 194.575 47.1553 194.169 50.5644L195.162 50.6826L196.155 50.8009C196.601 47.0555 196.039 43.6613 194.193 40.8453L193.356 41.3936ZM195.162 50.6826L194.168 50.5787C193.893 53.2102 193.028 55.7272 191.58 58.1248L192.437 58.6416L193.293 59.1584C194.882 56.5255 195.849 53.7286 196.157 50.7865L195.162 50.6826ZM192.437 58.6416L191.575 58.1334C190.168 60.5188 188.282 62.6758 185.923 64.6049L186.557 65.3789L187.19 66.1529C189.711 64.0906 191.759 61.7582 193.298 59.1498L192.437 58.6416ZM186.557 65.3789L185.924 64.6048C183.594 66.5093 180.892 68.1007 177.822 69.3807L178.207 70.3037L178.592 71.2267C181.821 69.8802 184.695 68.1931 187.19 66.1531L186.557 65.3789ZM178.207 70.3037L177.836 69.3752L177.826 69.3791L178.197 70.3076L178.569 71.2361L178.578 71.2322L178.207 70.3037ZM178.197 70.3076L177.819 69.3819C174.739 70.6404 171.368 71.4658 167.711 71.8613L167.818 72.8555L167.926 73.8497C171.749 73.4363 175.304 72.5699 178.575 71.2333L178.197 70.3076ZM167.818 72.8555L167.711 71.8613C163.932 72.2705 160.513 72.0362 157.462 71.1446L157.182 72.1045L156.901 73.0643C160.25 74.0431 163.94 74.2814 167.926 73.8497L167.818 72.8555ZM157.182 72.1045L157.399 71.1283L157.39 71.1264L157.173 72.1025L156.956 73.0787L156.965 73.0807L157.182 72.1045ZM157.173 72.1025L157.489 71.1539L157.48 71.1509L157.164 72.0996L156.848 73.0483L156.857 73.0512L157.173 72.1025ZM157.164 72.0996L157.456 71.1432C154.426 70.218 152.062 68.6287 150.395 66.3635L149.59 66.9561L148.784 67.5487C150.742 70.2093 153.492 72.024 156.872 73.056L157.164 72.0996ZM149.59 66.9561L150.371 66.3314L150.367 66.3265L149.586 66.9512L148.805 67.5759L148.809 67.5807L149.59 66.9561ZM149.586 66.9512L150.394 66.3622C148.705 64.0451 148.091 61.1092 148.494 57.6095L147.501 57.4951L146.508 57.3807C146.063 61.2411 146.721 64.7173 148.778 67.5401L149.586 66.9512ZM147.501 57.4951L148.495 57.6079C148.818 54.7562 149.72 52.0891 151.196 49.6126L150.337 49.1006L149.478 48.5885C147.857 51.3077 146.863 54.2469 146.507 57.3824L147.501 57.4951ZM150.337 49.1006L151.169 49.6553L151.173 49.6494L150.341 49.0947L149.509 48.54L149.505 48.5459L150.337 49.1006ZM150.341 49.0947L151.209 49.5909L151.213 49.584L150.345 49.0879L149.476 48.5918L149.473 48.5986L150.341 49.0947ZM150.345 49.0879L151.198 49.6089C152.708 47.135 154.668 44.9417 157.072 43.0286L156.449 42.2461L155.827 41.4636C153.251 43.5132 151.131 45.8805 149.491 48.5669L150.345 49.0879ZM156.449 42.2461L157.072 43.0283C159.508 41.0886 162.268 39.516 165.347 38.309L164.982 37.3779L164.618 36.4469C161.364 37.722 158.428 39.3917 155.826 41.4639L156.449 42.2461ZM164.982 37.3779L165.343 38.3108L165.947 38.0774L165.587 37.1445L165.227 36.2117L164.622 36.445L164.982 37.3779ZM165.587 37.1445L165.938 38.0808C168.888 36.9738 172.031 36.2654 175.364 35.9527L175.271 34.957L175.177 33.9614C171.679 34.2896 168.362 35.0351 165.236 36.2083L165.587 37.1445ZM175.271 34.957L175.435 35.9434L175.441 35.9424L175.276 34.9561L175.112 33.9697L175.106 33.9706L175.271 34.957ZM19.7158 35V36C23.7917 36 27.1218 36.8453 29.6619 38.5831L30.2266 37.7578L30.7912 36.9325C27.8177 34.8982 24.0525 34 19.7158 34V35ZM30.2266 37.7578L29.6709 38.5892C32.1946 40.2758 33.9826 42.6696 35.0375 45.7462L35.9834 45.4219L36.9293 45.0975C35.7446 41.642 33.7002 38.8765 30.7822 36.9264L30.2266 37.7578ZM35.9834 45.4219L35.0374 45.7462C36.0887 48.8126 36.4532 52.4252 36.1511 56.5689L37.1484 56.6416L38.1458 56.7143C38.4619 52.3789 38.0901 48.4833 36.9294 45.0976L35.9834 45.4219ZM37.1484 56.6416L36.1511 56.5688L36.0495 57.9594L37.0469 58.0322L38.0442 58.1051L38.1458 56.7144L37.1484 56.6416ZM37.0469 58.0322V57.0322H11.8486V58.0322V59.0322H37.0469V58.0322ZM11.8486 58.0322L10.9094 58.3754C11.0494 58.7586 11.2071 59.1309 11.3859 59.4904L12.2812 59.0449L13.1766 58.5995C13.0341 58.3131 12.9051 58.0098 12.7879 57.689L11.8486 58.0322ZM12.2812 59.0449L11.3958 59.5097C12.2929 61.2185 13.5071 62.5296 15.0379 63.4585L15.5566 62.6035L16.0754 61.7486C14.8761 61.0209 13.9063 59.989 13.1667 58.5801L12.2812 59.0449ZM15.5566 62.6035L15.0494 63.4653C16.627 64.3938 18.4341 64.8643 20.4844 64.8643V63.8643V62.8643C18.7531 62.8643 17.303 62.471 16.0639 61.7417L15.5566 62.6035ZM20.4844 63.8643L20.4844 64.8643C24.1483 64.8642 27.2184 63.5738 29.7253 60.9847L29.0068 60.2891L28.2884 59.5934C26.1646 61.7869 23.6159 62.8642 20.4843 62.8643L20.4844 63.8643ZM29.0068 60.2891L29.7257 60.9842L30.7853 59.8885L30.0664 59.1934L29.3475 58.4982L28.288 59.5939L29.0068 60.2891ZM30.0664 59.1934L29.3594 59.9005L35.3525 65.8927L36.0596 65.1855L36.7666 64.4784L30.7735 58.4862L30.0664 59.1934ZM36.0596 65.1855L35.3188 64.5138L34.3588 65.5724L35.0996 66.2441L35.8404 66.9159L36.8003 65.8573L36.0596 65.1855ZM35.0996 66.2441L34.3589 65.5723C32.6443 67.4628 30.5571 68.9333 28.1051 69.9842L28.499 70.9033L28.8929 71.8225C31.5956 70.6642 33.9232 69.0297 35.8403 66.916L35.0996 66.2441ZM28.499 70.9033L28.1573 69.9635L28.1465 69.9674L28.4883 70.9072L28.83 71.847L28.8408 71.8431L28.499 70.9033ZM28.4883 70.9072L28.0411 70.0128L28.0313 70.0177L28.4785 70.9121L28.9257 71.8065L28.9355 71.8017L28.4883 70.9072ZM28.4785 70.9121L28.0986 69.9871C25.6412 70.9964 22.9083 71.4961 19.9082 71.4961L19.9082 72.4961L19.9082 73.4961C23.1324 73.4961 26.1284 72.9584 28.8584 71.8371L28.4785 70.9121ZM19.9082 72.4961V71.4961C16.3392 71.4961 13.2013 70.7562 10.5122 69.2574L10.0254 70.1309L9.53853 71.0043C12.5737 72.6961 16.0584 73.4961 19.9082 73.4961V72.4961ZM10.0254 70.1309L10.5122 69.2574C7.83066 67.7627 5.73765 65.6909 4.24112 63.05L3.37109 63.543L2.50107 64.036C4.18058 66.9998 6.54038 69.3332 9.53853 71.0043L10.0254 70.1309ZM3.37109 63.543L4.20314 62.9883L4.19728 62.9795L3.36523 63.5342L2.53318 64.0889L2.53904 64.0977L3.37109 63.543ZM3.36523 63.5342L4.23873 63.0473C2.74107 60.3602 2.00004 57.2661 2 53.7803L1 53.7803L0 53.7803C4.23789e-05 57.5565 0.805221 60.995 2.49174 64.021L3.36523 63.5342ZM1 53.7803H2C2 50.2983 2.73939 47.2266 4.23558 44.5823L3.36523 44.0898L2.49489 43.5974C0.803099 46.5874 0 50.0092 0 53.7803H1ZM3.36523 44.0898L4.23872 44.5767C5.73457 41.893 7.82856 39.799 10.5123 38.3032L10.0254 37.4297L9.53852 36.5562C6.53028 38.233 4.16853 40.5947 2.49175 43.603L3.36523 44.0898ZM10.0254 37.4297L10.5122 38.3032C13.1964 36.8071 16.2672 36.0435 19.7099 35.9999L19.6973 35L19.6846 34.0001C15.954 34.0473 12.5493 34.8781 9.53853 36.5562L10.0254 37.4297ZM19.6973 35V36H19.7158V35V34H19.6973V35ZM253.716 35V36C257.792 36 261.122 36.8453 263.662 38.5831L264.227 37.7578L264.791 36.9325C261.818 34.8982 258.053 34 253.716 34V35ZM264.227 37.7578L263.671 38.5892C266.195 40.2758 267.983 42.6696 269.037 45.7462L269.983 45.4219L270.929 45.0975C269.745 41.642 267.7 38.8765 264.782 36.9264L264.227 37.7578ZM269.983 45.4219L269.037 45.7462C270.089 48.8126 270.453 52.4252 270.151 56.5689L271.148 56.6416L272.146 56.7143C272.462 52.3789 272.09 48.4833 270.929 45.0976L269.983 45.4219ZM271.148 56.6416L270.151 56.5688L270.05 57.9594L271.047 58.0322L272.044 58.1051L272.146 56.7144L271.148 56.6416ZM271.047 58.0322V57.0322H245.849V58.0322V59.0322H271.047V58.0322ZM245.849 58.0322L244.909 58.3754C245.049 58.7586 245.207 59.1309 245.386 59.4904L246.281 59.0449L247.177 58.5995C247.034 58.3131 246.905 58.0098 246.788 57.689L245.849 58.0322ZM246.281 59.0449L245.396 59.5097C246.293 61.2185 247.507 62.5296 249.038 63.4585L249.557 62.6035L250.075 61.7486C248.876 61.0209 247.906 59.989 247.167 58.5801L246.281 59.0449ZM249.557 62.6035L249.049 63.4653C250.627 64.3938 252.434 64.8643 254.484 64.8643V63.8643V62.8643C252.753 62.8643 251.303 62.471 250.064 61.7417L249.557 62.6035ZM254.484 63.8643L254.484 64.8643C258.148 64.8642 261.218 63.5738 263.725 60.9847L263.007 60.2891L262.288 59.5935C260.165 61.7869 257.616 62.8642 254.484 62.8643L254.484 63.8643ZM263.007 60.2891L263.726 60.9842L264.785 59.8885L264.066 59.1934L263.348 58.4982L262.288 59.5939L263.007 60.2891ZM264.066 59.1934L263.359 59.9005L269.353 65.8927L270.06 65.1855L270.767 64.4784L264.773 58.4862L264.066 59.1934ZM270.06 65.1855L269.319 64.5138L268.359 65.5724L269.1 66.2441L269.84 66.9159L270.8 65.8573L270.06 65.1855ZM269.1 66.2441L268.359 65.5723C266.644 67.4628 264.557 68.9333 262.105 69.9842L262.499 70.9033L262.893 71.8225C265.596 70.6642 267.923 69.0297 269.84 66.916L269.1 66.2441ZM262.499 70.9033L262.157 69.9635L262.147 69.9674L262.488 70.9072L262.83 71.847L262.841 71.8431L262.499 70.9033ZM262.488 70.9072L262.041 70.0128L262.031 70.0177L262.479 70.9121L262.926 71.8065L262.935 71.8017L262.488 70.9072ZM262.479 70.9121L262.099 69.9871C259.641 70.9964 256.908 71.4961 253.908 71.4961V72.4961V73.4961C257.132 73.4961 260.128 72.9584 262.858 71.8371L262.479 70.9121ZM253.908 72.4961V71.4961C250.339 71.4961 247.201 70.7562 244.512 69.2574L244.025 70.1309L243.539 71.0043C246.574 72.6961 250.058 73.4961 253.908 73.4961V72.4961ZM244.025 70.1309L244.512 69.2574C241.831 67.7627 239.738 65.6909 238.241 63.05L237.371 63.543L236.501 64.036C238.181 66.9998 240.54 69.3332 243.539 71.0043L244.025 70.1309ZM237.371 63.543L238.203 62.9883L238.197 62.9795L237.365 63.5342L236.533 64.0889L236.539 64.0977L237.371 63.543ZM237.365 63.5342L238.239 63.0473C236.741 60.3602 236 57.2661 236 53.7803L235 53.7803L234 53.7803C234 57.5565 234.805 60.995 236.492 64.021L237.365 63.5342ZM235 53.7803H236C236 50.2983 236.739 47.2266 238.236 44.5823L237.365 44.0898L236.495 43.5974C234.803 46.5874 234 50.0092 234 53.7803H235ZM237.365 44.0898L238.239 44.5767C239.735 41.893 241.829 39.799 244.512 38.3032L244.025 37.4297L243.539 36.5562C240.53 38.233 238.169 40.5946 236.492 43.603L237.365 44.0898ZM244.025 37.4297L244.512 38.3032C247.196 36.8071 250.267 36.0435 253.71 35.9999L253.697 35L253.685 34.0001C249.954 34.0473 246.549 34.8781 243.539 36.5562L244.025 37.4297ZM253.697 35V36H253.716V35V34H253.697V35ZM67.4043 35L67.4043 36C70.1111 36 72.4578 36.5448 74.4231 37.6582L74.916 36.7881L75.4089 35.918C73.0821 34.5998 70.3791 34 67.4043 34L67.4043 35ZM74.916 36.7881L74.4304 37.6622C76.4383 38.7778 77.9611 40.3675 78.9874 42.4199L79.8818 41.9727L80.7762 41.5254C79.5694 39.112 77.7615 37.225 75.4017 35.9139L74.916 36.7881ZM79.8818 41.9727L78.998 42.4405C80.0579 44.4427 80.5762 46.8425 80.5762 49.6201H81.5762H82.5762C82.5762 46.5976 82.0121 43.8594 80.7656 41.5048L79.8818 41.9727ZM81.5762 49.6201H80.5762V72.2402H81.5762H82.5762V49.6201H81.5762ZM81.5762 72.2402V71.2402H71.2158V72.2402V73.2402H81.5762V72.2402ZM71.2158 72.2402H72.2158V51.54H71.2158H70.2158V72.2402H71.2158ZM71.2158 51.54H72.2158C72.2158 48.9871 71.5179 47.0562 70.1812 45.6802L69.4639 46.377L68.7466 47.0737C69.6305 47.9837 70.2158 49.3618 70.2158 51.54H71.2158ZM69.4639 46.377L70.171 45.6698L70.1563 45.6552L69.4492 46.3623L68.7421 47.0694L68.7568 47.0841L69.4639 46.377ZM69.4492 46.3623L70.1762 45.6757C68.8431 44.2642 66.9868 43.5313 64.5393 43.5283L64.5381 44.5283L64.5368 45.5283C66.5574 45.5308 67.8429 46.1179 68.7222 47.0489L69.4492 46.3623ZM64.5381 44.5283L64.5234 43.5284C61.6248 43.5711 59.3828 44.5856 57.7399 46.5487L58.5068 47.1904L59.2737 47.8322C60.4996 46.3674 62.1645 45.5633 64.5528 45.5282L64.5381 44.5283ZM58.5068 47.1904L57.731 46.5596C56.3787 48.2226 55.588 50.2316 55.3647 52.6046L56.3604 52.6982L57.356 52.7919C57.5461 50.771 58.205 49.1467 59.2827 47.8213L58.5068 47.1904ZM56.3604 52.6982H55.3604V72.2402H56.3604H57.3604V52.6982H56.3604ZM56.3604 72.2402V71.2402H46V72.2402V73.2402H56.3604V72.2402ZM46 72.2402H47V35.2559H46H45V72.2402H46ZM46 35.2559V36.2559H56.3604V35.2559V34.2559H46V35.2559ZM56.3604 35.2559H55.3604V38.7646H56.3604H57.3604V35.2559H56.3604ZM56.3604 38.7646L57.0393 39.4988C57.632 38.9507 58.2756 38.4716 58.9736 38.0655L58.4707 37.2012L57.9678 36.3368C57.1396 36.8187 56.3784 37.3859 55.6814 38.0305L56.3604 38.7646ZM58.4707 37.2012L58.9555 38.0758L59.3783 37.8414L58.8936 36.9668L58.4088 36.0922L57.9859 36.3265L58.4707 37.2012ZM58.8936 36.9668L59.3671 37.8476C61.6691 36.61 64.3539 36 67.4043 36V35V34C64.0845 34 61.0627 34.6653 58.42 36.086L58.8936 36.9668ZM132.03 19.9609L131.883 18.9719C129.945 19.2611 127.856 20.1086 125.606 21.5566L126.147 22.3975L126.689 23.2384C128.772 21.8975 130.594 21.1864 132.178 20.95L132.03 19.9609ZM126.147 22.3975L125.599 21.5611C122.283 23.7346 119.097 26.9922 116.048 31.3538L116.867 31.9268L117.687 32.4998C120.636 28.2821 123.649 25.2304 126.696 23.2338L126.147 22.3975ZM116.867 31.9268L116.043 31.3606C113.055 35.7108 110.698 40.9331 108.979 47.0345L109.941 47.3057L110.904 47.5768C112.575 41.6461 114.849 36.6317 117.691 32.4929L116.867 31.9268ZM109.941 47.3057L108.971 47.0631L108.968 47.0748L109.938 47.3174L110.909 47.5599L110.912 47.5482L109.941 47.3057ZM109.938 47.3174L108.978 47.0381C106.524 55.4778 106.166 61.8138 107.777 66.1254L108.714 65.7754L109.651 65.4253C108.273 61.7378 108.476 55.9276 110.899 47.5966L109.938 47.3174ZM108.714 65.7754L107.777 66.1255C108.503 68.0678 109.546 69.6352 110.91 70.838L111.571 70.0879L112.233 69.3378C111.147 68.3807 110.277 67.1026 109.651 65.4253L108.714 65.7754ZM111.571 70.0879L112.497 70.4658L132.956 20.3388L132.03 19.9609L131.104 19.5831L110.645 69.71L111.571 70.0879ZM179.494 39.8984L179.96 39.0136C178.782 38.3934 177.385 38.1185 175.752 38.2116L175.809 39.21L175.865 40.2083C177.205 40.132 178.228 40.3619 179.028 40.7833L179.494 39.8984ZM175.809 39.21L176.516 38.5029L176.515 38.5019L175.808 39.209L175.101 39.9161L175.101 39.9171L175.809 39.21ZM175.808 39.209L175.737 38.2115C174.235 38.3176 172.768 38.7913 171.331 39.6414L171.841 40.502L172.35 41.3625C173.546 40.655 174.715 40.2886 175.878 40.2065L175.808 39.209ZM171.841 40.502L171.331 39.6414C169.876 40.5028 168.481 41.6606 167.15 43.1213L167.889 43.7949L168.628 44.4686C169.846 43.1326 171.09 42.1087 172.35 41.3625L171.841 40.502ZM167.889 43.7949L168.596 43.0878L168.595 43.0868L167.888 43.7939L167.181 44.5011L167.182 44.502L167.889 43.7949ZM167.888 43.7939L167.147 43.1226C165.846 44.558 164.658 46.1911 163.581 48.0198L164.442 48.5273L165.304 49.0349C166.319 47.3118 167.428 45.7905 168.629 44.4653L167.888 43.7939ZM164.442 48.5273L163.573 48.0325C162.539 49.8493 161.697 51.7651 161.05 53.78L162.002 54.0859L162.954 54.3919C163.56 52.5068 164.346 50.7178 165.311 49.0222L164.442 48.5273ZM162.002 54.0859L161.04 53.8112L161.038 53.8181L162 54.0928L162.962 54.3675L162.963 54.3607L162.002 54.0859ZM162 54.0928L161.049 53.7823C160.398 55.7773 159.986 57.779 159.814 59.7877L160.811 59.873L161.807 59.9584C161.965 58.1088 162.345 56.2581 162.951 54.4033L162 54.0928ZM160.811 59.873L159.813 59.8087L159.811 59.8389L160.809 59.9033L161.807 59.9677L161.808 59.9374L160.811 59.873ZM160.809 59.9033L159.817 59.7753L159.813 59.8056L160.805 59.9336L161.796 60.0616L161.8 60.0313L160.809 59.9033ZM160.805 59.9336L159.813 59.8082C159.465 62.5577 159.632 64.6255 160.245 66.0627L161.165 65.6699L162.085 65.2772C161.674 64.3157 161.468 62.6628 161.797 60.059L160.805 59.9336ZM161.165 65.6699L160.245 66.0627C160.867 67.5175 161.801 68.4819 163.04 69.0082L163.431 68.0879L163.822 67.1675C163.121 66.8699 162.532 66.3235 162.085 65.2771L161.165 65.6699ZM163.431 68.0879L163.04 69.0083C164.321 69.5526 165.825 69.7487 167.57 69.5721L167.469 68.5771L167.368 67.5822C165.887 67.7322 164.733 67.5545 163.822 67.1675L163.431 68.0879ZM167.469 68.5771L167.711 69.5473L167.715 69.5463L167.473 68.5762L167.23 67.606L167.226 67.607L167.469 68.5771ZM167.473 68.5762L167.571 69.5713C168.999 69.4305 170.416 68.9316 171.824 68.0563L171.296 67.207L170.768 66.3577C169.587 67.092 168.46 67.4739 167.374 67.581L167.473 68.5762ZM171.296 67.207L171.824 68.0563C173.241 67.1755 174.562 66.027 175.784 64.6065L175.026 63.9541L174.268 63.3017C173.163 64.5857 171.994 65.5955 170.768 66.3578L171.296 67.207ZM175.026 63.9541L175.826 64.5541L175.829 64.5502L175.029 63.9502L174.229 63.3502L174.226 63.3541L175.026 63.9541ZM175.029 63.9502L175.785 64.6053C177.046 63.1507 178.163 61.5281 179.133 59.7381L178.254 59.2617L177.375 58.7853C176.47 60.4541 175.435 61.9558 174.274 63.2951L175.029 63.9502ZM178.254 59.2617L179.148 59.7089L179.153 59.6992L178.259 59.252L177.364 58.8047L177.359 58.8145L178.254 59.2617ZM178.259 59.252L179.133 59.7376L179.138 59.7288L178.264 59.2432L177.39 58.7575L177.385 58.7663L178.259 59.252ZM178.264 59.2432L179.136 59.7323C180.143 57.9361 180.959 56.0767 181.583 54.1558L180.632 53.8467L179.681 53.5376C179.098 55.3316 178.335 57.0706 177.391 58.7541L178.264 59.2432ZM180.632 53.8467L181.584 54.1508C182.205 52.2077 182.607 50.2928 182.792 48.4065L181.797 48.3086L180.802 48.2107C180.631 49.9476 180.26 51.7243 179.679 53.5425L180.632 53.8467ZM181.797 48.3086L182.791 48.419L182.793 48.4014L181.799 48.291L180.805 48.1806L180.803 48.1982L181.797 48.3086ZM181.799 48.291L182.792 48.4079L182.794 48.3913L181.801 48.2744L180.808 48.1576L180.806 48.1742L181.799 48.291ZM181.801 48.2744L182.793 48.3951C183.115 45.7475 182.992 43.6823 182.468 42.1663L181.522 42.4932L180.577 42.8201C180.961 43.9297 181.112 45.6511 180.808 48.1537L181.801 48.2744ZM181.522 42.4932L182.468 42.1662C181.941 40.6436 181.098 39.613 179.96 39.0136L179.494 39.8984L179.028 40.7832C179.634 41.1025 180.184 41.6815 180.577 42.8201L181.522 42.4932ZM263.14 50.0459L262.149 50.1828C262.172 50.3485 262.192 50.5129 262.208 50.6776L263.203 50.583L264.199 50.4884C264.18 50.2891 264.156 50.0957 264.13 49.909L263.14 50.0459ZM263.203 50.583L264.199 50.4885C264.18 50.289 264.156 50.0956 264.13 49.9091L263.14 50.0459L262.149 50.1827C262.172 50.3486 262.192 50.513 262.208 50.6776L263.203 50.583ZM19.7803 43.6318V42.6318C17.8112 42.6318 16.112 43.0828 14.6651 43.967L15.1865 44.8203L15.708 45.6736C16.8 45.0063 18.1281 44.6318 19.7803 44.6318V43.6318ZM15.1865 44.8203L15.8936 44.1132L15.8927 44.1122L15.1855 44.8193L14.4784 45.5264L14.4794 45.5274L15.1865 44.8203ZM15.1855 44.8193L14.6513 43.974C13.2499 44.8597 12.1431 46.1077 11.3312 47.7315L12.2256 48.1787L13.12 48.6259C13.7831 47.2998 14.6524 46.3393 15.7198 45.6647L15.1855 44.8193ZM12.2256 48.1787L11.3573 47.6826L11.3534 47.6894L12.2217 48.1855L13.0899 48.6817L13.0938 48.6749L12.2256 48.1787ZM12.2217 48.1855L11.3025 47.7916L11.2996 47.7985L12.2188 48.1924L13.1379 48.5863L13.1408 48.5795L12.2217 48.1855ZM12.2188 48.1924L11.3289 47.7361C11.0465 48.2869 10.8125 48.8747 10.6272 49.5L11.5859 49.7842L12.5447 50.0684C12.6966 49.5558 12.8854 49.0838 13.1086 48.6487L12.2188 48.1924ZM11.5859 49.7842V50.7842H27.5771V49.7842V48.7842H11.5859V49.7842ZM27.5771 49.7842L28.5603 49.6015C28.3727 48.5917 28.0587 47.6973 27.6195 46.9168L26.748 47.4072L25.8765 47.8976C26.1939 48.4617 26.4409 49.143 26.594 49.9669L27.5771 49.7842ZM26.748 47.4072L27.6105 46.9011L27.3302 46.4235L26.4678 46.9297L25.6053 47.4359L25.8856 47.9134L26.748 47.4072ZM26.4678 46.9297L27.3199 46.4063C26.6127 45.255 25.6478 44.3633 24.415 43.7282L23.957 44.6172L23.4991 45.5062C24.4141 45.9776 25.1036 46.6193 25.6157 47.4531L26.4678 46.9297ZM23.957 44.6172L24.3828 43.7124L24.3662 43.7046L23.9404 44.6094L23.5146 45.5142L23.5312 45.522L23.957 44.6172ZM23.9404 44.6094L24.4549 43.7519L24.4403 43.7431L23.9258 44.6006L23.4113 45.4581L23.4259 45.4669L23.9404 44.6094ZM23.9258 44.6006L24.4046 43.7227C23.0799 43.0002 21.5429 42.6319 19.7803 42.6318L19.7803 43.6318L19.7803 44.6318C21.2569 44.6319 22.4559 44.938 23.447 45.4785L23.9258 44.6006ZM253.78 43.6318V42.6318C251.811 42.6318 250.112 43.0828 248.665 43.967L249.187 44.8203L249.708 45.6736C250.8 45.0063 252.128 44.6318 253.78 44.6318V43.6318ZM249.187 44.8203L249.894 44.1132L249.893 44.1122L249.186 44.8193L248.478 45.5264L248.479 45.5274L249.187 44.8203ZM249.186 44.8193L248.651 43.974C247.25 44.8597 246.143 46.1077 245.331 47.7315L246.226 48.1787L247.12 48.6259C247.783 47.2998 248.652 46.3393 249.72 45.6647L249.186 44.8193ZM246.226 48.1787L245.357 47.6826L245.353 47.6894L246.222 48.1855L247.09 48.6817L247.094 48.6749L246.226 48.1787ZM246.222 48.1855L245.303 47.7916L245.3 47.7985L246.219 48.1924L247.138 48.5863L247.141 48.5795L246.222 48.1855ZM246.219 48.1924L245.329 47.7361C245.046 48.2869 244.813 48.8747 244.627 49.5L245.586 49.7842L246.545 50.0684C246.697 49.5558 246.885 49.0838 247.109 48.6487L246.219 48.1924ZM245.586 49.7842V50.7842H261.579V49.7842V48.7842H245.586V49.7842ZM261.579 49.7842L262.562 49.6017C262.355 48.4863 261.992 47.5149 261.482 46.6816L260.629 47.2041L259.776 47.7266C260.143 48.3256 260.428 49.0607 260.596 49.9667L261.579 49.7842ZM260.629 47.2041L261.486 46.6896L261.472 46.6652L260.614 47.1797L259.757 47.6942L259.771 47.7186L260.629 47.2041ZM260.614 47.1797L261.487 46.6911L261.473 46.6667L260.601 47.1553L259.728 47.6439L259.742 47.6683L260.614 47.1797ZM260.601 47.1553L261.472 46.665C260.753 45.3866 259.737 44.4095 258.415 43.7282L257.957 44.6172L257.499 45.5062C258.478 46.0103 259.204 46.7118 259.729 47.6455L260.601 47.1553ZM257.957 44.6172L258.383 43.7124L258.366 43.7046L257.94 44.6094L257.515 45.5142L257.531 45.522L257.957 44.6172ZM257.94 44.6094L258.455 43.7519L258.44 43.7431L257.926 44.6006L257.411 45.4581L257.426 45.4669L257.94 44.6094ZM257.926 44.6006L258.405 43.7227C257.08 43.0002 255.543 42.6319 253.78 42.6318L253.78 43.6318L253.78 44.6318C255.257 44.6319 256.456 44.938 257.447 45.4785L257.926 44.6006ZM262.187 46.9141L261.299 47.3741C261.361 47.4948 261.421 47.6211 261.48 47.7533L262.394 47.3457L263.307 46.9381C263.235 46.7767 263.158 46.6148 263.074 46.454L262.187 46.9141ZM262.394 47.3457L263.307 46.9382C263.239 46.7857 263.165 46.6288 263.084 46.4717L262.195 46.9297L261.306 47.3877C261.365 47.5019 261.422 47.6231 261.48 47.7532L262.394 47.3457ZM262.195 46.9297L263.067 46.4394L263.058 46.4238L262.187 46.9141L261.315 47.4043L261.324 47.4199L262.195 46.9297ZM261.546 45.8359L260.719 46.3977C260.786 46.4969 260.849 46.593 260.907 46.6885L261.761 46.168L262.615 45.6474C262.535 45.5165 262.453 45.3921 262.373 45.2742L261.546 45.8359ZM261.761 46.168L262.605 45.6328L262.45 45.3877L261.605 45.9229L260.761 46.458L260.916 46.7031L261.761 46.168ZM261.605 45.9229L262.44 45.3721C262.424 45.3472 262.408 45.3248 262.398 45.3094C262.385 45.2913 262.379 45.2833 262.373 45.2742L261.546 45.8359L260.719 46.3977C260.764 46.4639 260.751 46.4434 260.771 46.4736L261.605 45.9229ZM261.296 45.4883L262.091 44.8822C262.046 44.8221 261.997 44.7594 261.946 44.6958L261.167 45.3232L260.388 45.9507C260.425 45.9957 260.461 46.0432 260.5 46.0943L261.296 45.4883ZM261.167 45.3232L260.388 45.9507C260.425 45.9956 260.461 46.0431 260.5 46.0944L261.296 45.4883L262.091 44.8822C262.046 44.8222 261.997 44.7594 261.946 44.6958L261.167 45.3232Z" fill="url(#paint1_linear_8_83)" mask="url(#path-1-outside-1_8_83)"/>
<defs>
<linearGradient id="paint0_linear_8_83" x1="1" y1="16.4798" x2="173.882" y2="85.238" gradientUnits="userSpaceOnUse">
<stop stop-color="#172B4A"/>
<stop offset="1" stop-color="#D4537E"/>
</linearGradient>
<linearGradient id="paint1_linear_8_83" x1="1" y1="16.4798" x2="173.882" y2="85.238" gradientUnits="userSpaceOnUse">
<stop stop-color="#172B4A"/>
<stop offset="1" stop-color="#D4537E"/>
</linearGradient>
</defs>
</svg>
