<svg width="271" height="97" viewBox="0 0 271 97" fill="none" xmlns="http://www.w3.org/2000/svg">
<mask id="path-1-outside-1_6_61" maskUnits="userSpaceOnUse" x="-0.5" y="-0.5" width="271" height="98" fill="black">
<rect fill="white" x="-0.5" y="-0.5" width="271" height="98"/>
<path d="M136.358 16.4932C138.916 17.0978 141.087 18.0134 142.872 19.2412C145.214 20.7997 146.852 22.6911 147.785 24.915C148.718 27.1389 148.904 29.4959 148.343 31.9844C147.85 34.3373 146.953 35.9764 145.652 36.9004C144.399 37.8312 143.084 38.1943 141.707 37.9912C140.425 37.802 139.395 37.2135 138.619 36.2256C137.898 35.1973 137.693 33.9539 138.005 32.4961C138.263 31.0789 138.642 29.8248 139.143 28.7344C139.643 27.6439 140.009 26.3147 140.24 24.748C140.499 22.9912 140.076 21.4241 138.969 20.0479C138.205 19.0981 137.139 18.3928 135.771 17.9316L113.518 72.4541C114.357 72.7387 115.258 72.9535 116.222 73.0957C118.691 73.4599 121.197 73.2472 123.739 72.458C126.223 71.7078 128.636 70.366 130.981 68.4355H133.479C133.231 68.7193 132.98 68.9991 132.725 69.2715C130.364 71.7857 127.785 73.8069 124.988 75.335C122.246 76.8224 119.38 77.831 116.391 78.3604C114.581 78.6807 112.762 78.8211 110.935 78.7832L104.2 95.2842H101.5L108.307 78.6055C107.987 78.5691 107.668 78.5286 107.348 78.4814C100.605 77.4864 95.9487 74.3488 93.3799 69.0693C90.8114 63.7898 90.8754 56.6179 93.5713 47.5547C94.9718 42.6671 97.0899 38.1756 99.9258 34.082C102.762 29.9885 106.019 26.4907 109.698 23.5889C113.425 20.6941 117.355 18.5561 121.488 17.1768C125.658 15.8083 129.78 15.422 133.853 16.0176L139.778 1.5H142.479L136.358 16.4932ZM133.287 17.4023C130.561 17.1376 127.574 18.0512 124.326 20.1436C120.942 22.3612 117.713 25.6694 114.638 30.0674C111.61 34.4725 109.23 39.7497 107.498 45.8984C105.036 54.3655 104.639 60.8332 106.309 65.3008C107.335 68.0465 108.979 70.0853 111.24 71.4189L133.287 17.4023ZM225.636 43.1562C223.204 43.0283 221.092 43.4543 219.3 44.4355C217.55 45.3742 216.185 46.6976 215.204 48.4043C214.464 49.75 214.017 51.2549 213.86 52.9189V70.7402H206.5V36.7559H213.86V43.4707C214.937 41.3427 216.388 39.7017 218.212 38.5479C220.303 37.1826 222.777 36.5 225.636 36.5V43.1562ZM174.41 35.4502C178.329 35.0986 181.728 35.4125 184.604 36.3926C187.482 37.3728 189.647 38.9795 191.099 41.2119C192.548 43.4198 193.072 46.1917 192.671 49.5273C192.404 52.0809 191.564 54.5272 190.152 56.8662C188.777 59.201 186.928 61.3184 184.606 63.2178C182.319 65.0885 179.66 66.6555 176.63 67.9189C173.597 69.158 170.273 69.9733 166.657 70.3643C162.931 70.7679 159.579 70.5348 156.603 69.665C153.66 68.7666 151.392 67.2339 149.798 65.0674C148.201 62.8764 147.599 60.0761 147.991 56.667C148.306 53.8852 149.184 51.2856 150.625 48.8691C152.102 46.4485 154.022 44.2991 156.384 42.4199C158.779 40.512 161.497 38.9628 164.535 37.7725C167.608 36.5536 170.899 35.7796 174.41 35.4502ZM18.7158 35.5C22.7265 35.5 25.9479 36.3321 28.3799 37.9961C30.8119 39.6174 32.5405 41.9215 33.5645 44.9082C34.5884 47.8948 34.951 51.4364 34.6523 55.5322H8.88672C9.10909 56.6929 9.4621 57.7601 9.94824 58.7324C10.8869 60.5242 12.1669 61.9104 13.7881 62.8916C15.4521 63.8729 17.351 64.3643 19.4844 64.3643C23.2815 64.3642 26.4814 63.0199 29.084 60.332L32.9883 64.2363C31.3243 66.071 29.2975 67.5004 26.9082 68.5244C24.5189 69.5057 21.8521 69.9961 18.9082 69.9961C15.4095 69.9961 12.3585 69.271 9.75586 67.8203C7.15319 66.3696 5.12645 64.3637 3.67578 61.8037C2.22527 59.2012 1.50004 56.1934 1.5 52.7803C1.5 49.3671 2.22524 46.3802 3.67578 43.8203C5.12641 41.2177 7.15329 39.1909 9.75586 37.7402C12.3585 36.2896 15.3452 35.5427 18.7158 35.5ZM252.716 35.5C256.726 35.5 259.948 36.3321 262.38 37.9961C264.812 39.6174 266.54 41.9215 267.564 44.9082C268.588 47.8948 268.951 51.4364 268.652 55.5322H242.887C243.109 56.6929 243.462 57.7601 243.948 58.7324C244.887 60.5242 246.167 61.9104 247.788 62.8916C249.452 63.8729 251.351 64.3643 253.484 64.3643C257.282 64.3642 260.481 63.0199 263.084 60.332L266.988 64.2363C265.324 66.071 263.298 67.5004 260.908 68.5244C258.519 69.5057 255.852 69.9961 252.908 69.9961C249.41 69.9961 246.359 69.271 243.756 67.8203C241.153 66.3696 239.126 64.3637 237.676 61.8037C236.225 59.2012 235.5 56.1934 235.5 52.7803C235.5 49.3671 236.225 46.3802 237.676 43.8203C239.126 41.2177 241.153 39.1909 243.756 37.7402C246.358 36.2896 249.345 35.5427 252.716 35.5ZM66.4043 35.5C69.0495 35.5 71.3112 36.033 73.1885 37.0996C75.1083 38.1662 76.5587 39.6811 77.54 41.6436C78.564 43.5636 79.0762 45.8895 79.0762 48.6201V69.7402H71.7158V50.54C71.7158 47.8947 70.9907 45.8254 69.54 44.332C68.0895 42.7961 66.0842 42.0284 63.5244 42.0283C60.4953 42.071 58.1057 43.1372 56.3564 45.2275C54.9152 46.993 54.0845 49.1244 53.8604 51.6201V69.7402H46.5V35.7559H53.8604V42.2168C55.0294 39.9873 56.6067 38.345 58.5957 37.292C60.8144 36.0973 63.4176 35.5 66.4043 35.5ZM179.193 37.5713C177.921 36.9013 176.431 36.6146 174.724 36.7119C173.13 36.8209 171.581 37.3209 170.077 38.2109C168.573 39.1012 167.14 40.2921 165.78 41.7842C164.454 43.2476 163.244 44.9084 162.15 46.7656C161.093 48.6185 160.235 50.5723 159.574 52.627C158.911 54.6572 158.492 56.6967 158.316 58.7451C157.964 61.5312 158.121 63.7027 158.785 65.2588C159.45 66.8147 160.469 67.8847 161.844 68.4688C163.218 69.0528 164.811 69.2526 166.62 69.0693C168.134 68.92 169.624 68.3907 171.088 67.4805C172.552 66.5701 173.911 65.3874 175.163 63.9326C176.449 62.449 177.586 60.7966 178.572 58.9766C179.595 57.1523 180.424 55.2633 181.059 53.3105C181.69 51.3335 182.101 49.3813 182.29 47.4551C182.616 44.7711 182.5 42.6205 181.94 41.0029C181.381 39.3854 180.466 38.2413 179.193 37.5713ZM18.7803 41.1318C16.7324 41.1318 14.9403 41.6015 13.4043 42.54C11.911 43.4787 10.7371 44.8012 9.88379 46.5078C9.30803 47.6305 8.92752 48.8895 8.74023 50.2842H28.252C28.172 48.4843 27.7731 46.9468 27.0557 45.6719L26.7607 45.168C26.0032 43.9253 24.9637 42.9642 23.6436 42.2842C22.2357 41.5163 20.6147 41.1319 18.7803 41.1318ZM252.78 41.1318C250.732 41.1318 248.94 41.6015 247.404 42.54C245.911 43.4787 244.737 44.8012 243.884 46.5078C243.308 47.6305 242.928 48.8895 242.74 50.2842H262.252C262.167 48.3642 261.719 46.7426 260.908 45.4199C260.14 44.0546 259.052 43.0095 257.644 42.2842C256.236 41.5163 254.615 41.1319 252.78 41.1318Z"/>
</mask>
<path d="M136.358 16.4932C138.916 17.0978 141.087 18.0134 142.872 19.2412C145.214 20.7997 146.852 22.6911 147.785 24.915C148.718 27.1389 148.904 29.4959 148.343 31.9844C147.85 34.3373 146.953 35.9764 145.652 36.9004C144.399 37.8312 143.084 38.1943 141.707 37.9912C140.425 37.802 139.395 37.2135 138.619 36.2256C137.898 35.1973 137.693 33.9539 138.005 32.4961C138.263 31.0789 138.642 29.8248 139.143 28.7344C139.643 27.6439 140.009 26.3147 140.24 24.748C140.499 22.9912 140.076 21.4241 138.969 20.0479C138.205 19.0981 137.139 18.3928 135.771 17.9316L113.518 72.4541C114.357 72.7387 115.258 72.9535 116.222 73.0957C118.691 73.4599 121.197 73.2472 123.739 72.458C126.223 71.7078 128.636 70.366 130.981 68.4355H133.479C133.231 68.7193 132.98 68.9991 132.725 69.2715C130.364 71.7857 127.785 73.8069 124.988 75.335C122.246 76.8224 119.38 77.831 116.391 78.3604C114.581 78.6807 112.762 78.8211 110.935 78.7832L104.2 95.2842H101.5L108.307 78.6055C107.987 78.5691 107.668 78.5286 107.348 78.4814C100.605 77.4864 95.9487 74.3488 93.3799 69.0693C90.8114 63.7898 90.8754 56.6179 93.5713 47.5547C94.9718 42.6671 97.0899 38.1756 99.9258 34.082C102.762 29.9885 106.019 26.4907 109.698 23.5889C113.425 20.6941 117.355 18.5561 121.488 17.1768C125.658 15.8083 129.78 15.422 133.853 16.0176L139.778 1.5H142.479L136.358 16.4932ZM133.287 17.4023C130.561 17.1376 127.574 18.0512 124.326 20.1436C120.942 22.3612 117.713 25.6694 114.638 30.0674C111.61 34.4725 109.23 39.7497 107.498 45.8984C105.036 54.3655 104.639 60.8332 106.309 65.3008C107.335 68.0465 108.979 70.0853 111.24 71.4189L133.287 17.4023ZM225.636 43.1562C223.204 43.0283 221.092 43.4543 219.3 44.4355C217.55 45.3742 216.185 46.6976 215.204 48.4043C214.464 49.75 214.017 51.2549 213.86 52.9189V70.7402H206.5V36.7559H213.86V43.4707C214.937 41.3427 216.388 39.7017 218.212 38.5479C220.303 37.1826 222.777 36.5 225.636 36.5V43.1562ZM174.41 35.4502C178.329 35.0986 181.728 35.4125 184.604 36.3926C187.482 37.3728 189.647 38.9795 191.099 41.2119C192.548 43.4198 193.072 46.1917 192.671 49.5273C192.404 52.0809 191.564 54.5272 190.152 56.8662C188.777 59.201 186.928 61.3184 184.606 63.2178C182.319 65.0885 179.66 66.6555 176.63 67.9189C173.597 69.158 170.273 69.9733 166.657 70.3643C162.931 70.7679 159.579 70.5348 156.603 69.665C153.66 68.7666 151.392 67.2339 149.798 65.0674C148.201 62.8764 147.599 60.0761 147.991 56.667C148.306 53.8852 149.184 51.2856 150.625 48.8691C152.102 46.4485 154.022 44.2991 156.384 42.4199C158.779 40.512 161.497 38.9628 164.535 37.7725C167.608 36.5536 170.899 35.7796 174.41 35.4502ZM18.7158 35.5C22.7265 35.5 25.9479 36.3321 28.3799 37.9961C30.8119 39.6174 32.5405 41.9215 33.5645 44.9082C34.5884 47.8948 34.951 51.4364 34.6523 55.5322H8.88672C9.10909 56.6929 9.4621 57.7601 9.94824 58.7324C10.8869 60.5242 12.1669 61.9104 13.7881 62.8916C15.4521 63.8729 17.351 64.3643 19.4844 64.3643C23.2815 64.3642 26.4814 63.0199 29.084 60.332L32.9883 64.2363C31.3243 66.071 29.2975 67.5004 26.9082 68.5244C24.5189 69.5057 21.8521 69.9961 18.9082 69.9961C15.4095 69.9961 12.3585 69.271 9.75586 67.8203C7.15319 66.3696 5.12645 64.3637 3.67578 61.8037C2.22527 59.2012 1.50004 56.1934 1.5 52.7803C1.5 49.3671 2.22524 46.3802 3.67578 43.8203C5.12641 41.2177 7.15329 39.1909 9.75586 37.7402C12.3585 36.2896 15.3452 35.5427 18.7158 35.5ZM252.716 35.5C256.726 35.5 259.948 36.3321 262.38 37.9961C264.812 39.6174 266.54 41.9215 267.564 44.9082C268.588 47.8948 268.951 51.4364 268.652 55.5322H242.887C243.109 56.6929 243.462 57.7601 243.948 58.7324C244.887 60.5242 246.167 61.9104 247.788 62.8916C249.452 63.8729 251.351 64.3643 253.484 64.3643C257.282 64.3642 260.481 63.0199 263.084 60.332L266.988 64.2363C265.324 66.071 263.298 67.5004 260.908 68.5244C258.519 69.5057 255.852 69.9961 252.908 69.9961C249.41 69.9961 246.359 69.271 243.756 67.8203C241.153 66.3696 239.126 64.3637 237.676 61.8037C236.225 59.2012 235.5 56.1934 235.5 52.7803C235.5 49.3671 236.225 46.3802 237.676 43.8203C239.126 41.2177 241.153 39.1909 243.756 37.7402C246.358 36.2896 249.345 35.5427 252.716 35.5ZM66.4043 35.5C69.0495 35.5 71.3112 36.033 73.1885 37.0996C75.1083 38.1662 76.5587 39.6811 77.54 41.6436C78.564 43.5636 79.0762 45.8895 79.0762 48.6201V69.7402H71.7158V50.54C71.7158 47.8947 70.9907 45.8254 69.54 44.332C68.0895 42.7961 66.0842 42.0284 63.5244 42.0283C60.4953 42.071 58.1057 43.1372 56.3564 45.2275C54.9152 46.993 54.0845 49.1244 53.8604 51.6201V69.7402H46.5V35.7559H53.8604V42.2168C55.0294 39.9873 56.6067 38.345 58.5957 37.292C60.8144 36.0973 63.4176 35.5 66.4043 35.5ZM179.193 37.5713C177.921 36.9013 176.431 36.6146 174.724 36.7119C173.13 36.8209 171.581 37.3209 170.077 38.2109C168.573 39.1012 167.14 40.2921 165.78 41.7842C164.454 43.2476 163.244 44.9084 162.15 46.7656C161.093 48.6185 160.235 50.5723 159.574 52.627C158.911 54.6572 158.492 56.6967 158.316 58.7451C157.964 61.5312 158.121 63.7027 158.785 65.2588C159.45 66.8147 160.469 67.8847 161.844 68.4688C163.218 69.0528 164.811 69.2526 166.62 69.0693C168.134 68.92 169.624 68.3907 171.088 67.4805C172.552 66.5701 173.911 65.3874 175.163 63.9326C176.449 62.449 177.586 60.7966 178.572 58.9766C179.595 57.1523 180.424 55.2633 181.059 53.3105C181.69 51.3335 182.101 49.3813 182.29 47.4551C182.616 44.7711 182.5 42.6205 181.94 41.0029C181.381 39.3854 180.466 38.2413 179.193 37.5713ZM18.7803 41.1318C16.7324 41.1318 14.9403 41.6015 13.4043 42.54C11.911 43.4787 10.7371 44.8012 9.88379 46.5078C9.30803 47.6305 8.92752 48.8895 8.74023 50.2842H28.252C28.172 48.4843 27.7731 46.9468 27.0557 45.6719L26.7607 45.168C26.0032 43.9253 24.9637 42.9642 23.6436 42.2842C22.2357 41.5163 20.6147 41.1319 18.7803 41.1318ZM252.78 41.1318C250.732 41.1318 248.94 41.6015 247.404 42.54C245.911 43.4787 244.737 44.8012 243.884 46.5078C243.308 47.6305 242.928 48.8895 242.74 50.2842H262.252C262.167 48.3642 261.719 46.7426 260.908 45.4199C260.14 44.0546 259.052 43.0095 257.644 42.2842C256.236 41.5163 254.615 41.1319 252.78 41.1318Z" fill="url(#paint0_linear_6_61)"/>
<path d="M136.358 16.4932L134.97 15.9263L134.307 17.5495L136.013 17.9529L136.358 16.4932ZM142.872 19.2412L142.022 20.477L142.031 20.4835L142.041 20.4899L142.872 19.2412ZM147.785 24.915L149.168 24.3346L149.168 24.3346L147.785 24.915ZM148.343 31.9844L146.88 31.6544L146.877 31.6656L146.875 31.6769L148.343 31.9844ZM145.652 36.9004L144.784 35.6776L144.771 35.6868L144.758 35.6962L145.652 36.9004ZM141.707 37.9912L141.488 39.4751L141.488 39.4752L141.707 37.9912ZM138.619 36.2256L137.391 37.087L137.414 37.1203L137.44 37.1523L138.619 36.2256ZM138.005 32.4961L139.472 32.8102L139.477 32.7874L139.481 32.7644L138.005 32.4961ZM139.143 28.7344L140.506 29.3601V29.36L139.143 28.7344ZM140.24 24.748L141.724 24.967L141.724 24.9669L140.24 24.748ZM138.969 20.0479L140.138 19.1078L140.138 19.1077L138.969 20.0479ZM135.771 17.9316L136.251 16.5103L134.915 16.0599L134.383 17.3648L135.771 17.9316ZM113.518 72.4541L112.129 71.8873L111.527 73.3628L113.036 73.8746L113.518 72.4541ZM116.222 73.0957L116.003 74.5796L116.003 74.5796L116.222 73.0957ZM123.739 72.458L123.305 71.0221L123.295 71.0255L123.739 72.458ZM130.981 68.4355V66.9355H130.444L130.028 67.2774L130.981 68.4355ZM133.479 68.4355L134.608 69.4233L136.785 66.9355H133.479V68.4355ZM132.725 69.2715L133.818 70.2981L133.818 70.2981L132.725 69.2715ZM124.988 75.335L125.703 76.6535L125.707 76.6513L124.988 75.335ZM116.391 78.3604L116.652 79.8374L116.652 79.8374L116.391 78.3604ZM110.935 78.7832L110.966 77.2835L109.935 77.2622L109.546 78.2164L110.935 78.7832ZM104.2 95.2842V96.7842H105.208L105.589 95.851L104.2 95.2842ZM101.5 95.2842L100.111 94.7174L99.2677 96.7842H101.5V95.2842ZM108.307 78.6055L109.695 79.1722L110.444 77.3391L108.476 77.1151L108.307 78.6055ZM107.348 78.4814L107.129 79.9654H107.129L107.348 78.4814ZM93.3799 69.0693L92.031 69.7256L92.0311 69.7256L93.3799 69.0693ZM93.5713 47.5547L95.009 47.9824L95.0112 47.9751L95.0133 47.9679L93.5713 47.5547ZM99.9258 34.082L98.6928 33.2278L98.6927 33.2278L99.9258 34.082ZM109.698 23.5889L108.778 22.4043L108.769 22.4112L109.698 23.5889ZM121.488 17.1768L121.021 15.7515L121.013 15.7539L121.488 17.1768ZM133.853 16.0176L133.635 17.5018L134.798 17.6717L135.241 16.5844L133.853 16.0176ZM139.778 1.5V0H138.77L138.39 0.933135L139.778 1.5ZM142.479 1.5L143.867 2.06688L144.711 0H142.479V1.5ZM133.287 17.4023L134.676 17.9692L135.437 16.1041L133.432 15.9094L133.287 17.4023ZM124.326 20.1436L123.514 18.8825L123.504 18.889L124.326 20.1436ZM114.638 30.0674L113.408 29.2079L113.401 29.2178L114.638 30.0674ZM107.498 45.8984L108.938 46.3173L108.942 46.3052L107.498 45.8984ZM106.309 65.3008L104.904 65.8259L104.904 65.8259L106.309 65.3008ZM111.24 71.4189L110.478 72.711L111.973 73.5927L112.629 71.9858L111.24 71.4189ZM225.636 43.1562L225.557 44.6542L227.136 44.7373V43.1562H225.636ZM219.3 44.4355L220.009 45.7573L220.02 45.7512L219.3 44.4355ZM215.204 48.4043L213.904 47.6566L213.897 47.6689L213.89 47.6814L215.204 48.4043ZM213.86 52.9189L212.367 52.7785L212.36 52.8486V52.9189H213.86ZM213.86 70.7402V72.2402H215.36V70.7402H213.86ZM206.5 70.7402H205V72.2402H206.5V70.7402ZM206.5 36.7559V35.2559H205V36.7559H206.5ZM213.86 36.7559H215.36V35.2559H213.86V36.7559ZM213.86 43.4707H212.36L215.199 44.1481L213.86 43.4707ZM218.212 38.5479L219.014 39.8155L219.023 39.8097L219.032 39.8038L218.212 38.5479ZM225.636 36.5H227.136V35L225.636 35L225.636 36.5ZM174.41 35.4502L174.276 33.9562L174.27 33.9568L174.41 35.4502ZM184.604 36.3926L185.088 34.9727L185.088 34.9727L184.604 36.3926ZM191.099 41.2119L189.841 42.0298L189.845 42.0349L191.099 41.2119ZM192.671 49.5273L191.182 49.3483L191.18 49.3599L191.179 49.3715L192.671 49.5273ZM190.152 56.8662L188.868 56.091L188.864 56.0979L188.86 56.1049L190.152 56.8662ZM184.606 63.2178L185.556 64.379L185.556 64.3788L184.606 63.2178ZM176.63 67.9189L177.197 69.3076L177.207 69.3034L176.63 67.9189ZM166.657 70.3643L166.496 68.8729L166.496 68.873L166.657 70.3643ZM156.603 69.665L156.164 71.0996L156.173 71.1023L156.182 71.1048L156.603 69.665ZM149.798 65.0674L148.586 65.9508L148.59 65.9563L149.798 65.0674ZM147.991 56.667L149.481 56.8386L149.482 56.8359L147.991 56.667ZM150.625 48.8691L149.345 48.0877L149.341 48.0943L149.337 48.1011L150.625 48.8691ZM156.384 42.4199L157.318 43.5936L157.318 43.5933L156.384 42.4199ZM164.535 37.7725L165.082 39.1691L165.088 39.1667L164.535 37.7725ZM18.7158 35.5V34H18.7063L18.6968 34.0001L18.7158 35.5ZM28.3799 37.9961L27.5329 39.2341L27.5403 39.2392L27.5478 39.2442L28.3799 37.9961ZM33.5645 44.9082L34.9834 44.4217L34.9834 44.4217L33.5645 44.9082ZM34.6523 55.5322V57.0322H36.047L36.1484 55.6413L34.6523 55.5322ZM8.88672 55.5322V54.0322H7.07206L7.41351 55.8145L8.88672 55.5322ZM9.94824 58.7324L8.6066 59.4032L8.61294 59.4159L8.61952 59.4285L9.94824 58.7324ZM13.7881 62.8916L13.0114 64.1748L13.0187 64.1793L13.0261 64.1837L13.7881 62.8916ZM19.4844 64.3643V65.8643H19.4844L19.4844 64.3643ZM29.084 60.332L30.1446 59.2714L29.0667 58.1935L28.0064 59.2886L29.084 60.332ZM32.9883 64.2363L34.0994 65.2441L35.0591 64.1859L34.0489 63.1757L32.9883 64.2363ZM26.9082 68.5244L27.4781 69.9119L27.4886 69.9076L27.4991 69.9031L26.9082 68.5244ZM18.9082 69.9961V71.4961H18.9082L18.9082 69.9961ZM9.75586 67.8203L9.02557 69.1305H9.02557L9.75586 67.8203ZM3.67578 61.8037L2.36551 62.534L2.37075 62.5432L3.67578 61.8037ZM1.5 52.7803H0V52.7803L1.5 52.7803ZM3.67578 43.8203L4.98087 44.5598L4.986 44.5506L3.67578 43.8203ZM9.75586 37.7402L9.02557 36.43L9.02555 36.43L9.75586 37.7402ZM252.716 35.5V34H252.706L252.697 34.0001L252.716 35.5ZM262.38 37.9961L261.533 39.2341L261.54 39.2392L261.548 39.2442L262.38 37.9961ZM267.564 44.9082L268.983 44.4217V44.4217L267.564 44.9082ZM268.652 55.5322V57.0322H270.047L270.148 55.6413L268.652 55.5322ZM242.887 55.5322V54.0322H241.072L241.414 55.8145L242.887 55.5322ZM243.948 58.7324L242.607 59.4032L242.613 59.4159L242.62 59.4285L243.948 58.7324ZM247.788 62.8916L247.011 64.1748L247.019 64.1793L247.026 64.1837L247.788 62.8916ZM253.484 64.3643V65.8643H253.484L253.484 64.3643ZM263.084 60.332L264.145 59.2714L263.067 58.1935L262.006 59.2886L263.084 60.332ZM266.988 64.2363L268.099 65.2441L269.059 64.1859L268.049 63.1757L266.988 64.2363ZM260.908 68.5244L261.478 69.9119L261.489 69.9076L261.499 69.9031L260.908 68.5244ZM252.908 69.9961V71.4961H252.908L252.908 69.9961ZM243.756 67.8203L243.026 69.1305V69.1305L243.756 67.8203ZM237.676 61.8037L236.366 62.534L236.371 62.5432L237.676 61.8037ZM235.5 52.7803H234V52.7803L235.5 52.7803ZM237.676 43.8203L238.981 44.5598L238.986 44.5506L237.676 43.8203ZM243.756 37.7402L243.026 36.43L243.026 36.43L243.756 37.7402ZM66.4043 35.5L66.4043 34H66.4043V35.5ZM73.1885 37.0996L72.4475 38.4038L72.4537 38.4073L72.46 38.4108L73.1885 37.0996ZM77.54 41.6436L76.1984 42.3144L76.2072 42.332L76.2165 42.3494L77.54 41.6436ZM79.0762 69.7402V71.2402H80.5762V69.7402H79.0762ZM71.7158 69.7402H70.2158V71.2402H71.7158V69.7402ZM69.54 44.332L68.4495 45.362L68.4568 45.3696L68.4641 45.3772L69.54 44.332ZM63.5244 42.0283L63.5245 40.5283H63.5139L63.5033 40.5285L63.5244 42.0283ZM56.3564 45.2275L55.2061 44.2649L55.2002 44.2719L55.1945 44.279L56.3564 45.2275ZM53.8604 51.6201L52.3664 51.4859L52.3604 51.5529V51.6201H53.8604ZM53.8604 69.7402V71.2402H55.3604V69.7402H53.8604ZM46.5 69.7402H45V71.2402H46.5V69.7402ZM46.5 35.7559V34.2559H45V35.7559H46.5ZM53.8604 35.7559H55.3604V34.2559H53.8604V35.7559ZM53.8604 42.2168H52.3604L55.1888 42.9134L53.8604 42.2168ZM58.5957 37.292L59.2976 38.6177L59.3069 38.6127L58.5957 37.292ZM179.193 37.5713L179.892 36.2441L179.892 36.244L179.193 37.5713ZM174.724 36.7119L174.638 35.2143L174.63 35.2148L174.621 35.2154L174.724 36.7119ZM170.077 38.2109L169.313 36.9201L169.313 36.9201L170.077 38.2109ZM165.78 41.7842L164.672 40.7737L164.669 40.777L165.78 41.7842ZM162.15 46.7656L160.858 46.0043L160.853 46.0133L160.847 46.0224L162.15 46.7656ZM159.574 52.627L161 53.0927L161.002 53.0859L159.574 52.627ZM158.316 58.7451L159.805 58.9332L159.808 58.9032L159.811 58.8731L158.316 58.7451ZM158.785 65.2588L157.406 65.8479L157.406 65.8479L158.785 65.2588ZM161.844 68.4688L161.257 69.8493L161.257 69.8493L161.844 68.4688ZM166.62 69.0693L166.473 67.5766L166.469 67.577L166.62 69.0693ZM171.088 67.4805L171.88 68.7544L171.88 68.7543L171.088 67.4805ZM175.163 63.9326L174.03 62.95L174.026 62.9541L175.163 63.9326ZM178.572 58.9766L177.264 58.2429L177.259 58.2524L177.253 58.262L178.572 58.9766ZM181.059 53.3105L182.485 53.7742L182.487 53.7671L181.059 53.3105ZM182.29 47.4551L180.801 47.274L180.799 47.2911L180.797 47.3083L182.29 47.4551ZM181.94 41.0029L183.358 40.5126L183.358 40.5126L181.94 41.0029ZM18.7803 41.1318L18.7803 39.6318H18.7803V41.1318ZM13.4043 42.54L12.6222 41.2601L12.6141 41.265L12.606 41.2701L13.4043 42.54ZM9.88379 46.5078L11.2185 47.1923L11.222 47.1855L11.2254 47.1786L9.88379 46.5078ZM8.74023 50.2842L7.25358 50.0845L7.02534 51.7842H8.74023V50.2842ZM28.252 50.2842V51.7842H29.8201L29.7505 50.2176L28.252 50.2842ZM27.0557 45.6719L28.3629 44.9363L28.3567 44.9252L28.3502 44.9142L27.0557 45.6719ZM26.7607 45.168L28.0553 44.4103L28.0485 44.3987L28.0415 44.3872L26.7607 45.168ZM23.6436 42.2842L22.9253 43.601L22.9409 43.6095L22.9566 43.6176L23.6436 42.2842ZM252.78 41.1318L252.78 39.6318H252.78V41.1318ZM247.404 42.54L246.622 41.2601L246.614 41.265L246.606 41.2701L247.404 42.54ZM243.884 46.5078L245.219 47.1923L245.222 47.1855L245.225 47.1786L243.884 46.5078ZM242.74 50.2842L241.254 50.0845L241.025 51.7842H242.74V50.2842ZM262.252 50.2842V51.7842H263.82L263.75 50.2176L262.252 50.2842ZM260.908 45.4199L259.601 46.1553L259.615 46.1798L259.629 46.2038L260.908 45.4199ZM257.644 42.2842L256.925 43.601L256.941 43.6095L256.957 43.6176L257.644 42.2842ZM136.358 16.4932L136.013 17.9529C138.428 18.5237 140.419 19.3745 142.022 20.477L142.872 19.2412L143.722 18.0054C141.755 16.6524 139.404 15.6718 136.704 15.0334L136.358 16.4932ZM142.872 19.2412L142.041 20.4899C144.179 21.9128 145.601 23.5868 146.402 25.4955L147.785 24.915L149.168 24.3346C148.103 21.7953 146.248 19.6866 143.703 17.9925L142.872 19.2412ZM147.785 24.915L146.402 25.4954C147.207 27.4143 147.376 29.4515 146.88 31.6544L148.343 31.9844L149.806 32.3144C150.432 29.5403 150.229 26.8636 149.168 24.3346L147.785 24.915ZM148.343 31.9844L146.875 31.6769C146.421 33.8428 145.652 35.0606 144.784 35.6776L145.652 36.9004L146.521 38.1232C148.254 36.8922 149.279 34.8317 149.811 32.2919L148.343 31.9844ZM145.652 36.9004L144.758 35.6962C143.782 36.4209 142.86 36.6451 141.926 36.5073L141.707 37.9912L141.488 39.4752C143.307 39.7434 145.016 39.2414 146.547 38.1046L145.652 36.9004ZM141.707 37.9912L141.926 36.5073C141.01 36.3721 140.329 35.9744 139.799 35.2989L138.619 36.2256L137.44 37.1523C138.461 38.4525 139.84 39.2319 141.488 39.4751L141.707 37.9912ZM138.619 36.2256L139.847 35.3642C139.41 34.7409 139.229 33.9425 139.472 32.8102L138.005 32.4961L136.538 32.182C136.156 33.9653 136.386 35.6538 137.391 37.087L138.619 36.2256ZM138.005 32.4961L139.481 32.7644C139.72 31.4471 140.067 30.3167 140.506 29.3601L139.143 28.7344L137.779 28.1087C137.217 29.3328 136.805 30.7107 136.529 32.2278L138.005 32.4961ZM139.143 28.7344L140.506 29.36C141.081 28.1068 141.478 26.6322 141.724 24.967L140.24 24.748L138.756 24.529C138.54 25.9972 138.205 27.1811 137.779 28.1087L139.143 28.7344ZM140.24 24.748L141.724 24.9669C142.044 22.7995 141.508 20.8118 140.138 19.1078L138.969 20.0479L137.8 20.9879C138.643 22.0364 138.955 23.1829 138.756 24.5292L140.24 24.748ZM138.969 20.0479L140.138 19.1077C139.164 17.8967 137.838 17.0457 136.251 16.5103L135.771 17.9316L135.292 19.353C136.439 19.7399 137.246 20.2994 137.8 20.988L138.969 20.0479ZM135.771 17.9316L134.383 17.3648L112.129 71.8873L113.518 72.4541L114.906 73.0209L137.16 18.4985L135.771 17.9316ZM113.518 72.4541L113.036 73.8746C113.967 74.1904 114.957 74.4253 116.003 74.5796L116.222 73.0957L116.441 71.6118C115.559 71.4817 114.747 71.2869 113.999 71.0336L113.518 72.4541ZM116.222 73.0957L116.003 74.5796C118.709 74.9788 121.442 74.7419 124.184 73.8906L123.739 72.458L123.295 71.0255C120.952 71.7526 118.673 71.941 116.441 71.6118L116.222 73.0957ZM123.739 72.458L124.173 73.8939C126.876 73.0773 129.463 71.6284 131.935 69.5937L130.981 68.4355L130.028 67.2774C127.81 69.1035 125.569 70.3383 123.305 71.0221L123.739 72.458ZM130.981 68.4355V69.9355H133.479V68.4355V66.9355H130.981V68.4355ZM133.479 68.4355L132.351 67.4478C132.11 67.7227 131.871 67.9888 131.631 68.2449L132.725 69.2715L133.818 70.2981C134.089 70.0093 134.352 69.7159 134.608 69.4233L133.479 68.4355ZM132.725 69.2715L131.631 68.2449C129.371 70.6527 126.916 72.5727 124.269 74.0186L124.988 75.335L125.707 76.6513C128.655 75.0412 131.358 72.9187 133.818 70.2981L132.725 69.2715ZM124.988 75.335L124.273 74.0164C121.668 75.4292 118.955 76.3829 116.129 76.8833L116.391 78.3604L116.652 79.8374C119.804 79.2792 122.823 78.2157 125.703 76.6535L124.988 75.335ZM116.391 78.3604L116.129 76.8833C114.416 77.1866 112.695 77.3194 110.966 77.2835L110.935 78.7832L110.903 80.2829C112.829 80.3228 114.746 80.1748 116.652 79.8374L116.391 78.3604ZM110.935 78.7832L109.546 78.2164L102.811 94.7174L104.2 95.2842L105.589 95.851L112.323 79.35L110.935 78.7832ZM104.2 95.2842V93.7842H101.5V95.2842V96.7842H104.2V95.2842ZM101.5 95.2842L102.889 95.851L109.695 79.1722L108.307 78.6055L106.918 78.0387L100.111 94.7174L101.5 95.2842ZM108.307 78.6055L108.476 77.1151C108.169 77.0801 107.866 77.0417 107.567 76.9975L107.348 78.4814L107.129 79.9654C107.469 80.0155 107.805 80.0581 108.137 80.0958L108.307 78.6055ZM107.348 78.4814L107.567 76.9975C101.223 76.0614 97.0433 73.1701 94.7287 68.4131L93.3799 69.0693L92.0311 69.7256C94.854 75.5276 99.9867 78.9114 107.129 79.9654L107.348 78.4814ZM93.3799 69.0693L94.7287 68.4131C92.3995 63.6255 92.3582 56.894 95.009 47.9824L93.5713 47.5547L92.1335 47.127C89.3926 56.3418 89.2232 63.9542 92.031 69.7256L93.3799 69.0693ZM93.5713 47.5547L95.0133 47.9679C96.3697 43.2343 98.4182 38.8923 101.159 34.9362L99.9258 34.082L98.6927 33.2278C95.7616 37.459 93.574 42.1 92.1293 47.1415L93.5713 47.5547ZM99.9258 34.082L101.159 34.9362C103.915 30.9574 107.072 27.5706 110.627 24.7666L109.698 23.5889L108.769 22.4112C104.967 25.4107 101.608 29.0197 98.6928 33.2278L99.9258 34.082ZM109.698 23.5889L110.618 24.7734C114.222 21.9739 118.004 19.9209 121.963 18.5996L121.488 17.1768L121.013 15.7539C116.706 17.1912 112.627 19.4142 108.778 22.4043L109.698 23.5889ZM121.488 17.1768L121.956 18.602C125.92 17.301 129.807 16.942 133.635 17.5018L133.853 16.0176L134.07 14.5334C129.752 13.902 125.396 14.3155 121.021 15.7516L121.488 17.1768ZM133.853 16.0176L135.241 16.5844L141.167 2.06687L139.778 1.5L138.39 0.933135L132.464 15.4507L133.853 16.0176ZM139.778 1.5V3H142.479V1.5V0H139.778V1.5ZM142.479 1.5L141.09 0.933118L134.97 15.9263L136.358 16.4932L137.747 17.06L143.867 2.06688L142.479 1.5ZM133.287 17.4023L133.432 15.9094C130.256 15.6009 126.931 16.6808 123.514 18.8826L124.326 20.1436L125.139 21.4045C128.217 19.4216 130.866 18.6743 133.142 18.8953L133.287 17.4023ZM124.326 20.1436L123.504 18.889C119.918 21.2393 116.559 24.7018 113.408 29.2079L114.638 30.0674L115.867 30.9269C118.866 26.6371 121.967 23.4832 125.148 21.3981L124.326 20.1436ZM114.638 30.0674L113.401 29.2178C110.265 33.7816 107.823 39.2149 106.054 45.4917L107.498 45.8984L108.942 46.3052C110.638 40.2845 112.956 35.1634 115.874 30.917L114.638 30.0674ZM107.498 45.8984L106.058 45.4796C103.572 54.0282 103.059 60.8903 104.904 65.8259L106.309 65.3008L107.714 64.7757C106.219 60.7761 106.5 54.7028 108.938 46.3173L107.498 45.8984ZM106.309 65.3008L104.904 65.8259C106.035 68.854 107.887 71.1827 110.478 72.711L111.24 71.4189L112.002 70.1269C110.071 68.988 108.634 67.2391 107.714 64.7757L106.309 65.3008ZM111.24 71.4189L112.629 71.9858L134.676 17.9692L133.287 17.4023L131.898 16.8355L109.851 70.8521L111.24 71.4189ZM225.636 43.1562L225.715 41.6583C223.059 41.5186 220.659 41.9809 218.579 43.1199L219.3 44.4355L220.02 45.7512C221.524 44.9276 223.349 44.538 225.557 44.6542L225.636 43.1562ZM219.3 44.4355L218.591 43.1138C216.596 44.1839 215.026 45.7053 213.904 47.6566L215.204 48.4043L216.504 49.152C217.345 47.6899 218.505 46.5645 220.009 45.7573L219.3 44.4355ZM215.204 48.4043L213.89 47.6814C213.042 49.223 212.541 50.9291 212.367 52.7785L213.86 52.9189L215.354 53.0594C215.493 51.5807 215.886 50.2771 216.518 49.1272L215.204 48.4043ZM213.86 52.9189H212.36V70.7402H213.86H215.36V52.9189H213.86ZM213.86 70.7402V69.2402H206.5V70.7402V72.2402H213.86V70.7402ZM206.5 70.7402H208V36.7559H206.5H205V70.7402H206.5ZM206.5 36.7559V38.2559H213.86V36.7559V35.2559H206.5V36.7559ZM213.86 36.7559H212.36V43.4707H213.86H215.36V36.7559H213.86ZM213.86 43.4707L215.199 44.1481C216.167 42.2355 217.442 40.8098 219.014 39.8155L218.212 38.5479L217.41 37.2802C215.334 38.5937 213.708 40.4498 212.522 42.7934L213.86 43.4707ZM218.212 38.5479L219.032 39.8038C220.845 38.6199 223.025 38 225.636 38L225.636 36.5L225.636 35C222.529 35 219.76 35.7452 217.392 37.2919L218.212 38.5479ZM225.636 36.5H224.136V43.1562H225.636H227.136V36.5H225.636ZM174.41 35.4502L174.544 36.9442C178.314 36.606 181.492 36.9168 184.121 37.8124L184.604 36.3926L185.088 34.9727C181.963 33.9082 178.345 33.5911 174.276 33.9562L174.41 35.4502ZM184.604 36.3926L184.121 37.8124C186.727 38.7004 188.598 40.1182 189.841 42.0298L191.099 41.2119L192.356 40.394C190.695 37.8409 188.236 36.0452 185.088 34.9727L184.604 36.3926ZM191.099 41.2119L189.845 42.0349C191.052 43.8739 191.552 46.2661 191.182 49.3483L192.671 49.5273L194.16 49.7064C194.592 46.1173 194.044 42.9657 192.353 40.3889L191.099 41.2119ZM192.671 49.5273L191.179 49.3715C190.937 51.6919 190.174 53.9282 188.868 56.091L190.152 56.8662L191.436 57.6415C192.955 55.1262 193.872 52.47 194.163 49.6832L192.671 49.5273ZM190.152 56.8662L188.86 56.1049C187.583 58.2718 185.856 60.2574 183.657 62.0568L184.606 63.2178L185.556 64.3788C188 62.3793 189.971 60.1301 191.445 57.6275L190.152 56.8662ZM184.606 63.2178L183.657 62.0566C181.493 63.8256 178.963 65.3209 176.053 66.5345L176.63 67.9189L177.207 69.3034C180.357 67.9901 183.144 66.3513 185.556 64.379L184.606 63.2178ZM176.63 67.9189L176.063 66.5304C173.173 67.7109 169.987 68.4954 166.496 68.8729L166.657 70.3643L166.818 71.8556C170.559 71.4511 174.021 70.6051 177.197 69.3075L176.63 67.9189ZM166.657 70.3643L166.496 68.873C162.925 69.2598 159.776 69.0296 157.023 68.2253L156.603 69.665L156.182 71.1048C159.382 72.04 162.937 72.2761 166.819 71.8555L166.657 70.3643ZM156.603 69.665L157.041 68.2304C154.361 67.4121 152.382 66.0485 151.006 64.1785L149.798 65.0674L148.59 65.9563C150.402 68.4193 152.96 70.121 156.164 71.0996L156.603 69.665ZM149.798 65.0674L151.01 64.1839C149.69 62.3719 149.12 59.9767 149.481 56.8386L147.991 56.667L146.501 56.4954C146.077 60.1754 146.713 63.3809 148.586 65.9508L149.798 65.0674ZM147.991 56.667L149.482 56.8359C149.773 54.2669 150.581 51.8715 151.913 49.6372L150.625 48.8691L149.337 48.1011C147.787 50.6997 146.84 53.5034 146.501 56.4981L147.991 56.667ZM150.625 48.8691L151.905 49.6506C153.285 47.3897 155.085 45.3706 157.318 43.5936L156.384 42.4199L155.45 41.2462C152.96 43.2276 150.919 45.5074 149.345 48.0877L150.625 48.8691ZM156.384 42.4199L157.318 43.5933C159.589 41.7847 162.174 40.3083 165.082 39.1691L164.535 37.7725L163.988 36.3758C160.819 37.6172 157.97 39.2394 155.449 41.2466L156.384 42.4199ZM164.535 37.7725L165.088 39.1667C168.02 38.0037 171.172 37.2607 174.55 36.9436L174.41 35.4502L174.27 33.9568C170.627 34.2986 167.195 35.1034 163.982 36.3782L164.535 37.7725ZM18.7158 35.5V37C22.5306 37 25.4257 37.7924 27.5329 39.2341L28.3799 37.9961L29.2269 36.7581C26.47 34.8719 22.9223 34 18.7158 34V35.5ZM28.3799 37.9961L27.5478 39.2442C29.6836 40.668 31.2192 42.693 32.1455 45.3947L33.5645 44.9082L34.9834 44.4217C33.8617 41.1501 31.9402 38.5668 29.2119 36.748L28.3799 37.9961ZM33.5645 44.9082L32.1455 45.3947C33.0873 48.1418 33.4445 51.4711 33.1563 55.4231L34.6523 55.5322L36.1484 55.6413C36.4575 51.4017 36.0894 47.6478 34.9834 44.4217L33.5645 44.9082ZM34.6523 55.5322V54.0322H8.88672V55.5322V57.0322H34.6523V55.5322ZM8.88672 55.5322L7.41351 55.8145C7.65926 57.0971 8.05337 58.2968 8.6066 59.4032L9.94824 58.7324L11.2899 58.0616C10.8708 57.2235 10.5589 56.2887 10.3599 55.25L8.88672 55.5322ZM9.94824 58.7324L8.61952 59.4285C9.67633 61.4458 11.1404 63.0424 13.0114 64.1748L13.7881 62.8916L14.5648 61.6084C13.1935 60.7783 12.0974 59.6025 11.277 58.0364L9.94824 58.7324ZM13.7881 62.8916L13.0261 64.1837C14.9443 65.3149 17.1115 65.8643 19.4844 65.8643V64.3643V62.8643C17.5906 62.8643 15.9599 62.431 14.5501 61.5996L13.7881 62.8916ZM19.4844 64.3643L19.4844 65.8643C23.681 65.8642 27.2718 64.36 30.1616 61.3755L29.084 60.332L28.0064 59.2886C25.691 61.6799 22.8821 62.8642 19.4843 62.8643L19.4844 64.3643ZM29.084 60.332L28.0233 61.3927L31.9276 65.297L32.9883 64.2363L34.0489 63.1757L30.1446 59.2714L29.084 60.332ZM32.9883 64.2363L31.8772 63.2286C30.3651 64.8958 28.5186 66.2023 26.3173 67.1457L26.9082 68.5244L27.4991 69.9031C30.0764 68.7986 32.2835 67.2462 34.0994 65.2441L32.9883 64.2363ZM26.9082 68.5244L26.3383 67.1369C24.1535 68.0342 21.6839 68.4961 18.9082 68.4961L18.9082 69.9961L18.9082 71.4961C22.0203 71.4961 24.8844 70.9772 27.4781 69.9119L26.9082 68.5244ZM18.9082 69.9961V68.4961C15.6203 68.4961 12.8294 67.8162 10.4861 66.5101L9.75586 67.8203L9.02557 69.1305C11.8877 70.7258 15.1988 71.4961 18.9082 71.4961V69.9961ZM9.75586 67.8203L10.4861 66.5101C8.12068 65.1916 6.29413 63.3818 4.98081 61.0642L3.67578 61.8037L2.37075 62.5432C3.95877 65.3456 6.1857 67.5477 9.02557 69.1305L9.75586 67.8203ZM3.67578 61.8037L4.98602 61.0735C3.67708 58.7249 3.00004 55.9754 3 52.7803L1.5 52.7803L0 52.7803C4.07696e-05 56.4113 0.773457 59.6774 2.36554 62.534L3.67578 61.8037ZM1.5 52.7803H3C3 49.5844 3.67726 46.8603 4.98083 44.5598L3.67578 43.8203L2.37073 43.0808C0.773216 45.9001 0 49.1498 0 52.7803H1.5ZM3.67578 43.8203L4.986 44.5506C6.30094 42.1914 8.127 40.3654 10.4862 39.0504L9.75586 37.7402L9.02555 36.43C6.17958 38.0164 3.95188 40.244 2.36556 43.09L3.67578 43.8203ZM9.75586 37.7402L10.4861 39.0505C12.8439 37.7363 15.5803 37.0398 18.7348 36.9999L18.7158 35.5L18.6968 34.0001C15.1102 34.0455 11.873 34.8429 9.02557 36.43L9.75586 37.7402ZM252.716 35.5V37C256.531 37 259.426 37.7924 261.533 39.2341L262.38 37.9961L263.227 36.7581C260.47 34.8719 256.922 34 252.716 34V35.5ZM262.38 37.9961L261.548 39.2442C263.684 40.668 265.219 42.693 266.146 45.3947L267.564 44.9082L268.983 44.4217C267.862 41.1501 265.94 38.5668 263.212 36.748L262.38 37.9961ZM267.564 44.9082L266.146 45.3947C267.087 48.1418 267.444 51.4711 267.156 55.4231L268.652 55.5322L270.148 55.6413C270.458 51.4017 270.089 47.6478 268.983 44.4217L267.564 44.9082ZM268.652 55.5322V54.0322H242.887V55.5322V57.0322H268.652V55.5322ZM242.887 55.5322L241.414 55.8145C241.659 57.0971 242.053 58.2968 242.607 59.4032L243.948 58.7324L245.29 58.0616C244.871 57.2235 244.559 56.2887 244.36 55.25L242.887 55.5322ZM243.948 58.7324L242.62 59.4285C243.676 61.4458 245.14 63.0424 247.011 64.1748L247.788 62.8916L248.565 61.6084C247.193 60.7783 246.097 59.6025 245.277 58.0364L243.948 58.7324ZM247.788 62.8916L247.026 64.1837C248.944 65.3149 251.111 65.8643 253.484 65.8643V64.3643V62.8643C251.591 62.8643 249.96 62.431 248.55 61.5996L247.788 62.8916ZM253.484 64.3643L253.484 65.8643C257.681 65.8642 261.272 64.36 264.162 61.3755L263.084 60.332L262.006 59.2886C259.691 61.6799 256.882 62.8642 253.484 62.8643L253.484 64.3643ZM263.084 60.332L262.023 61.3927L265.928 65.297L266.988 64.2363L268.049 63.1757L264.145 59.2714L263.084 60.332ZM266.988 64.2363L265.877 63.2286C264.365 64.8958 262.519 66.2023 260.317 67.1457L260.908 68.5244L261.499 69.9031C264.076 68.7986 266.283 67.2462 268.099 65.2441L266.988 64.2363ZM260.908 68.5244L260.338 67.1369C258.153 68.0342 255.684 68.4961 252.908 68.4961L252.908 69.9961L252.908 71.4961C256.02 71.4961 258.884 70.9772 261.478 69.9119L260.908 68.5244ZM252.908 69.9961V68.4961C249.62 68.4961 246.829 67.8162 244.486 66.5101L243.756 67.8203L243.026 69.1305C245.888 70.7258 249.199 71.4961 252.908 71.4961V69.9961ZM243.756 67.8203L244.486 66.5101C242.121 65.1916 240.294 63.3818 238.981 61.0642L237.676 61.8037L236.371 62.5432C237.959 65.3456 240.186 67.5477 243.026 69.1305L243.756 67.8203ZM237.676 61.8037L238.986 61.0735C237.677 58.7249 237 55.9754 237 52.7803L235.5 52.7803L234 52.7803C234 56.4113 234.773 59.6774 236.366 62.534L237.676 61.8037ZM235.5 52.7803H237C237 49.5844 237.677 46.8603 238.981 44.5598L237.676 43.8203L236.371 43.0808C234.773 45.9001 234 49.1498 234 52.7803H235.5ZM237.676 43.8203L238.986 44.5506C240.301 42.1914 242.127 40.3654 244.486 39.0504L243.756 37.7402L243.026 36.43C240.18 38.0164 237.952 40.244 236.366 43.09L237.676 43.8203ZM243.756 37.7402L244.486 39.0505C246.844 37.7363 249.58 37.0398 252.735 36.9999L252.716 35.5L252.697 34.0001C249.11 34.0455 245.873 34.8429 243.026 36.43L243.756 37.7402ZM66.4043 35.5L66.4043 37C68.848 37 70.8419 37.4915 72.4475 38.4038L73.1885 37.0996L73.9295 35.7954C71.7805 34.5744 69.251 34 66.4043 34L66.4043 35.5ZM73.1885 37.0996L72.46 38.4108C74.1157 39.3307 75.3524 40.6225 76.1984 42.3144L77.54 41.6436L78.8817 40.9727C77.7651 38.7398 76.1009 37.0017 73.917 35.7884L73.1885 37.0996ZM77.54 41.6436L76.2165 42.3494C77.0988 44.0037 77.5762 46.0741 77.5762 48.6201H79.0762H80.5762C80.5762 45.7048 80.0293 43.1234 78.8636 40.9377L77.54 41.6436ZM79.0762 48.6201H77.5762V69.7402H79.0762H80.5762V48.6201H79.0762ZM79.0762 69.7402V68.2402H71.7158V69.7402V71.2402H79.0762V69.7402ZM71.7158 69.7402H73.2158V50.54H71.7158H70.2158V69.7402H71.7158ZM71.7158 50.54H73.2158C73.2158 47.615 72.4069 45.1305 70.616 43.2869L69.54 44.332L68.4641 45.3772C69.5744 46.5202 70.2158 48.1745 70.2158 50.54H71.7158ZM69.54 44.332L70.6306 43.3021C68.8378 41.4039 66.4027 40.5284 63.5245 40.5283L63.5244 42.0283L63.5244 43.5283C65.7657 43.5284 67.3411 44.1883 68.4495 45.362L69.54 44.332ZM63.5244 42.0283L63.5033 40.5285C60.0923 40.5765 57.269 41.7998 55.2061 44.2649L56.3564 45.2275L57.5068 46.1902C58.9425 44.4746 60.8983 43.5655 63.5455 43.5282L63.5244 42.0283ZM56.3564 45.2275L55.1945 44.279C53.5443 46.3004 52.6145 48.7236 52.3664 51.4859L53.8604 51.6201L55.3543 51.7543C55.5546 49.5251 56.2861 47.6857 57.5184 46.1761L56.3564 45.2275ZM53.8604 51.6201H52.3604V69.7402H53.8604H55.3604V51.6201H53.8604ZM53.8604 69.7402V68.2402H46.5V69.7402V71.2402H53.8604V69.7402ZM46.5 69.7402H48V35.7559H46.5H45V69.7402H46.5ZM46.5 35.7559V37.2559H53.8604V35.7559V34.2559H46.5V35.7559ZM53.8604 35.7559H52.3604V42.2168H53.8604H55.3604V35.7559H53.8604ZM53.8604 42.2168L55.1888 42.9134C56.235 40.9181 57.6081 39.5122 59.2976 38.6177L58.5957 37.292L57.8938 35.9663C55.6054 37.1779 53.8238 39.0565 52.5319 41.5202L53.8604 42.2168ZM58.5957 37.292L59.3069 38.6127C61.2698 37.5558 63.6199 37 66.4043 37V35.5V34C63.2154 34 60.359 34.6389 57.8846 35.9713L58.5957 37.292ZM179.193 37.5713L179.892 36.244C178.337 35.425 176.566 35.1045 174.638 35.2143L174.724 36.7119L174.809 38.2095C176.296 38.1248 177.505 38.3776 178.495 38.8985L179.193 37.5713ZM174.724 36.7119L174.621 35.2154C172.772 35.3419 170.999 35.9223 169.313 36.9201L170.077 38.2109L170.841 39.5018C172.163 38.7194 173.487 38.3 174.826 38.2084L174.724 36.7119ZM170.077 38.2109L169.313 36.9201C167.663 37.8967 166.117 39.188 164.672 40.7737L165.78 41.7842L166.889 42.7947C168.164 41.3962 169.483 40.3056 170.841 39.5018L170.077 38.2109ZM165.78 41.7842L164.669 40.777C163.268 42.3226 161.999 44.0673 160.858 46.0043L162.15 46.7656L163.443 47.5269C164.49 45.7495 165.64 44.1725 166.892 42.7914L165.78 41.7842ZM162.15 46.7656L160.847 46.0224C159.738 47.9664 158.838 50.0156 158.146 52.168L159.574 52.627L161.002 53.0859C161.631 51.129 162.448 49.2706 163.453 47.5089L162.15 46.7656ZM159.574 52.627L158.148 52.1612C157.451 54.2969 157.008 56.4495 156.822 58.6171L158.316 58.7451L159.811 58.8731C159.976 56.9439 160.371 55.0176 161 53.0927L159.574 52.627ZM158.316 58.7451L156.828 58.557C156.462 61.4523 156.589 63.935 157.406 65.8479L158.785 65.2588L160.165 64.6697C159.652 63.4703 159.466 61.61 159.805 58.9332L158.316 58.7451ZM158.785 65.2588L157.406 65.8479C158.2 67.7089 159.478 69.0933 161.257 69.8493L161.844 68.4688L162.43 67.0882C161.461 66.6762 160.699 65.9205 160.165 64.6697L158.785 65.2588ZM161.844 68.4688L161.257 69.8493C162.91 70.5516 164.765 70.7649 166.771 70.5617L166.62 69.0693L166.469 67.577C164.856 67.7403 163.527 67.5539 162.43 67.0882L161.844 68.4688ZM166.62 69.0693L166.767 70.5621C168.539 70.3873 170.246 69.77 171.88 68.7544L171.088 67.4805L170.296 66.2066C169.001 67.0114 167.73 67.4526 166.473 67.5766L166.62 69.0693ZM171.088 67.4805L171.88 68.7543C173.487 67.7552 174.959 66.4685 176.3 64.9112L175.163 63.9326L174.026 62.9541C172.862 64.3063 171.617 65.3851 170.296 66.2066L171.088 67.4805ZM175.163 63.9326L176.296 64.9153C177.658 63.345 178.856 61.6019 179.891 59.6911L178.572 58.9766L177.253 58.262C176.316 59.9914 175.241 61.5531 174.03 62.95L175.163 63.9326ZM178.572 58.9766L179.881 59.7102C180.951 57.8015 181.82 55.8222 182.485 53.7742L181.059 53.3105L179.632 52.8469C179.028 54.7044 178.24 56.5031 177.264 58.2429L178.572 58.9766ZM181.059 53.3105L182.487 53.7671C183.149 51.6963 183.582 49.6404 183.783 47.6019L182.29 47.4551L180.797 47.3083C180.619 49.1222 180.232 50.9706 179.63 52.8539L181.059 53.3105ZM182.29 47.4551L183.779 47.6362C184.119 44.8433 184.023 42.4349 183.358 40.5126L181.94 41.0029L180.523 41.4933C180.977 42.8061 181.114 44.6988 180.801 47.274L182.29 47.4551ZM181.94 41.0029L183.358 40.5126C182.699 38.6083 181.565 37.1247 179.892 36.2441L179.193 37.5713L178.494 38.8985C179.367 39.3578 180.063 40.1626 180.523 41.4933L181.94 41.0029ZM18.7803 41.1318V39.6318C16.4951 39.6318 14.4246 40.1587 12.6222 41.2601L13.4043 42.54L14.1864 43.82C15.4559 43.0442 16.9697 42.6318 18.7803 42.6318V41.1318ZM13.4043 42.54L12.606 41.2701C10.8614 42.3667 9.50806 43.9052 8.54215 45.837L9.88379 46.5078L11.2254 47.1786C11.9662 45.6971 12.9605 44.5907 14.2026 43.81L13.4043 42.54ZM9.88379 46.5078L8.54906 45.8233C7.88668 47.115 7.46086 48.541 7.25358 50.0845L8.74023 50.2842L10.2269 50.4838C10.3942 49.238 10.7294 48.1461 11.2185 47.1923L9.88379 46.5078ZM8.74023 50.2842V51.7842H28.252V50.2842V48.7842H8.74023V50.2842ZM28.252 50.2842L29.7505 50.2176C29.6624 48.2361 29.2192 46.4581 28.3629 44.9363L27.0557 45.6719L25.7484 46.4075C26.3269 47.4356 26.6815 48.7325 26.7534 50.3508L28.252 50.2842ZM27.0557 45.6719L28.3502 44.9142L28.0553 44.4103L26.7607 45.168L25.4662 45.9256L25.7611 46.4296L27.0557 45.6719ZM26.7607 45.168L28.0415 44.3872C27.1373 42.9038 25.8899 41.754 24.3305 40.9507L23.6436 42.2842L22.9566 43.6176C24.0375 44.1745 24.8692 44.9468 25.4799 45.9487L26.7607 45.168ZM23.6436 42.2842L24.3618 40.9673C22.7039 40.0631 20.8295 39.6319 18.7803 39.6318L18.7803 41.1318L18.7802 42.6318C20.3999 42.6319 21.7675 42.9695 22.9253 43.601L23.6436 42.2842ZM252.78 41.1318V39.6318C250.495 39.6318 248.425 40.1587 246.622 41.2601L247.404 42.54L248.186 43.82C249.456 43.0442 250.97 42.6318 252.78 42.6318V41.1318ZM247.404 42.54L246.606 41.2701C244.861 42.3667 243.508 43.9052 242.542 45.837L243.884 46.5078L245.225 47.1786C245.966 45.6971 246.961 44.5907 248.203 43.81L247.404 42.54ZM243.884 46.5078L242.549 45.8233C241.887 47.115 241.461 48.541 241.254 50.0845L242.74 50.2842L244.227 50.4838C244.394 49.238 244.729 48.1461 245.219 47.1923L243.884 46.5078ZM242.74 50.2842V51.7842H262.252V50.2842V48.7842H242.74V50.2842ZM262.252 50.2842L263.75 50.2176C263.657 48.1038 263.159 46.2214 262.187 44.6361L260.908 45.4199L259.629 46.2038C260.279 47.2637 260.677 48.6246 260.753 50.3508L262.252 50.2842ZM260.908 45.4199L262.216 44.6845C261.302 43.0601 259.996 41.8086 258.33 40.9507L257.644 42.2842L256.957 43.6176C258.107 44.2104 258.979 45.0491 259.601 46.1553L260.908 45.4199ZM257.644 42.2842L258.362 40.9673C256.704 40.0631 254.83 39.6319 252.78 39.6318L252.78 41.1318L252.78 42.6318C254.4 42.6319 255.767 42.9695 256.925 43.601L257.644 42.2842Z" fill="#172B4A" mask="url(#path-1-outside-1_6_61)"/>
<defs>
<linearGradient id="paint0_linear_6_61" x1="1.5" y1="16.5" x2="171.5" y2="85.5" gradientUnits="userSpaceOnUse">
<stop stop-color="#172B4A"/>
<stop offset="1" stop-color="#D4537E"/>
</linearGradient>
</defs>
</svg>
