<svg width="271" height="97" viewBox="0 0 271 97" fill="none" xmlns="http://www.w3.org/2000/svg">
<path d="M138.387 15.4912C140.383 16.1066 142.16 16.9349 143.702 17.9922C146.247 19.6863 148.102 21.7957 149.168 24.335C150.226 26.8568 150.429 29.5252 149.81 32.291L149.811 32.292C149.281 34.8192 148.263 36.8704 146.546 38.1035L146.547 38.1045C146.542 38.1082 146.536 38.1115 146.531 38.1152C146.528 38.1177 146.525 38.1206 146.521 38.123L146.521 38.1221C144.996 39.2457 143.297 39.7423 141.488 39.4756C139.84 39.2324 138.461 38.4526 137.439 37.1523L137.414 37.1201L137.392 37.0869C136.386 35.6537 136.156 33.9649 136.538 32.1816C136.814 30.6828 137.223 29.3201 137.779 28.1084C138.205 27.1809 138.539 25.9972 138.756 24.5293C138.954 23.1832 138.643 22.0367 137.8 20.9883C137.481 20.5916 137.076 20.2402 136.572 19.9375L115.547 71.4492C115.837 71.5098 116.134 71.5661 116.44 71.6113C118.673 71.9406 120.953 71.7525 123.295 71.0254L123.306 71.0225C125.569 70.3387 127.81 69.1034 130.028 67.2773L130.443 66.9355H136.785L134.608 69.4229C134.352 69.7154 134.089 70.0091 133.818 70.2979C131.358 72.9185 128.654 75.0413 125.707 76.6514L125.703 76.6533C122.823 78.2154 119.804 79.2787 116.652 79.8369C115.089 80.1137 113.518 80.2605 111.941 80.2832L105.208 96.7842H99.2676L106.194 79.8096C99.7559 78.6446 95.046 75.4872 92.3027 70.2627L92.0312 69.7256C89.2249 63.9572 89.3921 56.3497 92.1289 47.1416L92.4092 46.2012C93.8506 41.5216 95.9444 37.1943 98.6924 33.2275C101.608 29.0194 104.967 25.4107 108.77 22.4111L108.778 22.4043L109.502 21.8525C113.137 19.1392 116.976 17.1014 121.014 15.7539L121.021 15.752C125 14.4459 128.963 13.9872 132.896 14.3896L138.771 0H144.711L138.387 15.4912ZM227.136 44.7373L225.557 44.6543C223.349 44.5382 221.524 44.9275 220.021 45.751L220.009 45.7578L220.008 45.7568C218.506 46.5627 217.349 47.6863 216.509 49.1445C215.89 50.275 215.503 51.5538 215.36 53.001V72.2402H205V35.2559H215.36V38.8916C215.982 38.2924 216.658 37.7578 217.392 37.292L217.841 37.0117C220.108 35.6554 222.723 35 225.636 35H227.136V44.7373ZM174.276 33.9561C178.345 33.5911 181.963 33.9082 185.088 34.9727C188.236 36.0451 190.696 37.8405 192.356 40.3936C194.042 42.9639 194.588 46.1054 194.162 49.6826C193.871 52.4694 192.955 55.1263 191.437 57.6416C189.963 60.1385 187.996 62.3832 185.557 64.3789C183.145 66.3512 180.356 67.9904 177.207 69.3037L177.197 69.3076C174.021 70.6052 170.559 71.451 166.818 71.8555C162.936 72.2759 159.382 72.0396 156.182 71.1045L156.173 71.1025L156.164 71.0996C152.959 70.121 150.402 68.419 148.59 65.9561L148.586 65.9512C146.713 63.3812 146.077 60.1752 146.501 56.4951C146.841 53.5016 147.788 50.6984 149.337 48.1006L149.341 48.0947L149.345 48.0879C150.92 45.5077 152.96 43.2274 155.449 41.2461C157.968 39.2401 160.816 37.619 163.982 36.3779L164.587 36.1445C167.625 35.0044 170.855 34.2775 174.271 33.957L174.276 33.9561ZM18.7158 34C22.9221 34 26.4698 34.8717 29.2266 36.7578C31.9474 38.5761 33.8636 41.1558 34.9834 44.4219C36.0894 47.6479 36.4576 51.402 36.1484 55.6416L36.0469 57.0322H10.8486C10.9772 57.3842 11.1206 57.722 11.2812 58.0449C12.0996 59.6037 13.1916 60.7753 14.5566 61.6035C15.965 62.4324 17.5936 62.8643 19.4844 62.8643C22.8821 62.8642 25.6915 61.6803 28.0068 59.2891L29.0664 58.1934L35.0596 64.1855L34.0996 65.2441C32.2837 67.2463 30.0763 68.7988 27.499 69.9033L27.4883 69.9072L27.4785 69.9121C24.8848 70.9774 22.0203 71.4961 18.9082 71.4961C15.1988 71.4961 11.8875 70.7261 9.02539 69.1309C6.18552 67.548 3.95912 65.3454 2.37109 62.543L2.36523 62.5342C0.773148 59.6776 4.07696e-05 56.4113 0 52.7803C0 49.1538 0.771243 45.907 2.36523 43.0898C3.95155 40.2438 6.17942 38.016 9.02539 36.4297C11.8729 34.8426 15.1106 34.0454 18.6973 34H18.7158ZM252.716 34C256.922 34 260.47 34.8717 263.227 36.7578C265.947 38.5761 267.864 41.1558 268.983 44.4219C270.089 47.6479 270.458 51.402 270.148 55.6416L270.047 57.0322H244.849C244.977 57.3842 245.121 57.722 245.281 58.0449C246.1 59.6038 247.192 60.7753 248.557 61.6035C249.965 62.4324 251.594 62.8643 253.484 62.8643C256.882 62.8642 259.692 61.6803 262.007 59.2891L263.066 58.1934L269.06 64.1855L268.1 65.2441C266.284 67.2462 264.076 68.7988 261.499 69.9033L261.488 69.9072L261.479 69.9121C258.885 70.9774 256.02 71.4961 252.908 71.4961C249.199 71.4961 245.887 70.7261 243.025 69.1309C240.186 67.548 237.959 65.3454 236.371 62.543L236.365 62.5342C234.773 59.6776 234 56.4113 234 52.7803C234 49.1537 234.771 45.907 236.365 43.0898C237.952 40.2438 240.179 38.016 243.025 36.4297C245.873 34.8426 249.111 34.0454 252.697 34H252.716ZM66.4043 34C69.2451 34 71.7699 34.5723 73.916 35.7881C76.0999 37.0014 77.7653 38.7397 78.8818 40.9727C80.035 43.151 80.5762 45.7201 80.5762 48.6201V71.2402H70.2158V50.54C70.2158 48.1745 69.5742 46.52 68.4639 45.377L68.4492 45.3623C67.343 44.191 65.7721 43.5311 63.5381 43.5283C60.8946 43.5672 58.9412 44.4765 57.5068 46.1904C56.2919 47.6847 55.5671 49.5013 55.3604 51.6982V71.2402H45V34.2559H55.3604V37.7646C56.0052 37.1683 56.7076 36.6452 57.4707 36.2012L57.8936 35.9668C60.3659 34.6376 63.2192 34 66.4043 34ZM131.03 18.9609C129.269 19.2237 127.314 20.003 125.147 21.3975C121.966 23.4825 118.866 26.6372 115.867 30.9268C112.952 35.1712 110.636 40.2896 108.941 46.3057L108.938 46.3174C106.5 54.7027 106.219 60.7758 107.714 64.7754C108.39 66.5852 109.346 68.0079 110.571 69.0879L131.03 18.9609ZM178.494 38.8984C177.505 38.3776 176.295 38.1252 174.809 38.21L174.808 38.209C173.475 38.3031 172.157 38.7232 170.841 39.502C169.483 40.3058 168.163 41.3966 166.889 42.7949L166.888 42.7939C165.637 44.1743 164.488 45.7514 163.442 47.5273C162.442 49.2835 161.629 51.136 161.002 53.0859L161 53.0928C160.371 55.0177 159.976 56.9439 159.811 58.873L159.809 58.9033L159.805 58.9336C159.466 61.6102 159.653 63.4706 160.165 64.6699C160.699 65.9205 161.461 66.6759 162.431 67.0879C163.527 67.5535 164.856 67.7405 166.469 67.5771L166.473 67.5762C167.73 67.4522 169.001 67.0118 170.296 66.207C171.617 65.3855 172.862 64.3064 174.026 62.9541L174.029 62.9502C175.24 61.5533 176.317 59.9911 177.254 58.2617L177.259 58.252L177.264 58.2432C178.239 56.5034 179.028 54.7042 179.632 52.8467C180.232 50.966 180.619 49.1202 180.797 47.3086L180.799 47.291L180.801 47.2744C181.114 44.6993 180.977 42.806 180.522 41.4932C180.062 40.1626 179.366 39.3577 178.494 38.8984ZM262.14 49.0459C262.164 49.2221 262.186 49.401 262.203 49.583C262.186 49.401 262.164 49.2221 262.14 49.0459ZM18.7803 42.6318C16.9697 42.6318 15.456 43.0446 14.1865 43.8203L14.1855 43.8193C12.9512 44.5995 11.9631 45.7037 11.2256 47.1787L11.2217 47.1855L11.2188 47.1924C10.966 47.6853 10.7546 48.2153 10.5859 48.7842H26.5771C26.4068 47.8674 26.1263 47.0795 25.748 46.4072L25.4678 45.9297C24.8581 44.9371 24.0309 44.1704 22.957 43.6172L22.9404 43.6094L22.9258 43.6006C21.7679 42.9691 20.3999 42.6319 18.7803 42.6318ZM252.78 42.6318C250.97 42.6318 249.456 43.0446 248.187 43.8203L248.186 43.8193C246.951 44.5995 245.963 45.7037 245.226 47.1787L245.222 47.1855L245.219 47.1924C244.966 47.6853 244.755 48.2153 244.586 48.7842H260.579C260.391 47.7735 260.068 46.9202 259.629 46.2041L259.614 46.1797L259.601 46.1553C258.978 45.0492 258.108 44.2099 256.957 43.6172L256.94 43.6094L256.926 43.6006C255.768 42.9691 254.4 42.6319 252.78 42.6318ZM261.187 45.9141C261.259 46.0548 261.328 46.1989 261.394 46.3457C261.33 46.2044 261.265 46.0654 261.195 45.9297L261.187 45.9141ZM260.546 44.8359C260.62 44.9445 260.692 45.0548 260.761 45.168L260.605 44.9229C260.586 44.8935 260.566 44.865 260.546 44.8359ZM260.296 44.4883C260.254 44.4327 260.211 44.3775 260.167 44.3232C260.211 44.3775 260.254 44.4327 260.296 44.4883Z" fill="white"/>
<path d="M138.387 15.4912C140.383 16.1066 142.16 16.9349 143.702 17.9922C146.247 19.6863 148.102 21.7957 149.168 24.335C150.226 26.8568 150.429 29.5252 149.81 32.291L149.811 32.292C149.281 34.8192 148.263 36.8704 146.546 38.1035L146.547 38.1045C146.542 38.1082 146.536 38.1115 146.531 38.1152C146.528 38.1177 146.525 38.1206 146.521 38.123L146.521 38.1221C144.996 39.2457 143.297 39.7423 141.488 39.4756C139.84 39.2324 138.461 38.4526 137.439 37.1523L137.414 37.1201L137.392 37.0869C136.386 35.6537 136.156 33.9649 136.538 32.1816C136.814 30.6828 137.223 29.3201 137.779 28.1084C138.205 27.1809 138.539 25.9972 138.756 24.5293C138.954 23.1832 138.643 22.0367 137.8 20.9883C137.481 20.5916 137.076 20.2402 136.572 19.9375L115.547 71.4492C115.837 71.5098 116.134 71.5661 116.44 71.6113C118.673 71.9406 120.953 71.7525 123.295 71.0254L123.306 71.0225C125.569 70.3387 127.81 69.1034 130.028 67.2773L130.443 66.9355H136.785L134.608 69.4229C134.352 69.7154 134.089 70.0091 133.818 70.2979C131.358 72.9185 128.654 75.0413 125.707 76.6514L125.703 76.6533C122.823 78.2154 119.804 79.2787 116.652 79.8369C115.089 80.1137 113.518 80.2605 111.941 80.2832L105.208 96.7842H99.2676L106.194 79.8096C99.7559 78.6446 95.046 75.4872 92.3027 70.2627L92.0312 69.7256C89.2249 63.9572 89.3921 56.3497 92.1289 47.1416L92.4092 46.2012C93.8506 41.5216 95.9444 37.1943 98.6924 33.2275C101.608 29.0194 104.967 25.4107 108.77 22.4111L108.778 22.4043L109.502 21.8525C113.137 19.1392 116.976 17.1014 121.014 15.7539L121.021 15.752C125 14.4459 128.963 13.9872 132.896 14.3896L138.771 0H144.711L138.387 15.4912ZM227.136 44.7373L225.557 44.6543C223.349 44.5382 221.524 44.9275 220.021 45.751L220.009 45.7578L220.008 45.7568C218.506 46.5627 217.349 47.6863 216.509 49.1445C215.89 50.275 215.503 51.5538 215.36 53.001V72.2402H205V35.2559H215.36V38.8916C215.982 38.2924 216.658 37.7578 217.392 37.292L217.841 37.0117C220.108 35.6554 222.723 35 225.636 35H227.136V44.7373ZM174.276 33.9561C178.345 33.5911 181.963 33.9082 185.088 34.9727C188.236 36.0451 190.696 37.8405 192.356 40.3936C194.042 42.9639 194.588 46.1054 194.162 49.6826C193.871 52.4694 192.955 55.1263 191.437 57.6416C189.963 60.1385 187.996 62.3832 185.557 64.3789C183.145 66.3512 180.356 67.9904 177.207 69.3037L177.197 69.3076C174.021 70.6052 170.559 71.451 166.818 71.8555C162.936 72.2759 159.382 72.0396 156.182 71.1045L156.173 71.1025L156.164 71.0996C152.959 70.121 150.402 68.419 148.59 65.9561L148.586 65.9512C146.713 63.3812 146.077 60.1752 146.501 56.4951C146.841 53.5016 147.788 50.6984 149.337 48.1006L149.341 48.0947L149.345 48.0879C150.92 45.5077 152.96 43.2274 155.449 41.2461C157.968 39.2401 160.816 37.619 163.982 36.3779L164.587 36.1445C167.625 35.0044 170.855 34.2775 174.271 33.957L174.276 33.9561ZM18.7158 34C22.9221 34 26.4698 34.8717 29.2266 36.7578C31.9474 38.5761 33.8636 41.1558 34.9834 44.4219C36.0894 47.6479 36.4576 51.402 36.1484 55.6416L36.0469 57.0322H10.8486C10.9772 57.3842 11.1206 57.722 11.2812 58.0449C12.0996 59.6037 13.1916 60.7753 14.5566 61.6035C15.965 62.4324 17.5936 62.8643 19.4844 62.8643C22.8821 62.8642 25.6915 61.6803 28.0068 59.2891L29.0664 58.1934L35.0596 64.1855L34.0996 65.2441C32.2837 67.2463 30.0763 68.7988 27.499 69.9033L27.4883 69.9072L27.4785 69.9121C24.8848 70.9774 22.0203 71.4961 18.9082 71.4961C15.1988 71.4961 11.8875 70.7261 9.02539 69.1309C6.18552 67.548 3.95912 65.3454 2.37109 62.543L2.36523 62.5342C0.773148 59.6776 4.07696e-05 56.4113 0 52.7803C0 49.1538 0.771243 45.907 2.36523 43.0898C3.95155 40.2438 6.17942 38.016 9.02539 36.4297C11.8729 34.8426 15.1106 34.0454 18.6973 34H18.7158ZM252.716 34C256.922 34 260.47 34.8717 263.227 36.7578C265.947 38.5761 267.864 41.1558 268.983 44.4219C270.089 47.6479 270.458 51.402 270.148 55.6416L270.047 57.0322H244.849C244.977 57.3842 245.121 57.722 245.281 58.0449C246.1 59.6038 247.192 60.7753 248.557 61.6035C249.965 62.4324 251.594 62.8643 253.484 62.8643C256.882 62.8642 259.692 61.6803 262.007 59.2891L263.066 58.1934L269.06 64.1855L268.1 65.2441C266.284 67.2462 264.076 68.7988 261.499 69.9033L261.488 69.9072L261.479 69.9121C258.885 70.9774 256.02 71.4961 252.908 71.4961C249.199 71.4961 245.887 70.7261 243.025 69.1309C240.186 67.548 237.959 65.3454 236.371 62.543L236.365 62.5342C234.773 59.6776 234 56.4113 234 52.7803C234 49.1537 234.771 45.907 236.365 43.0898C237.952 40.2438 240.179 38.016 243.025 36.4297C245.873 34.8426 249.111 34.0454 252.697 34H252.716ZM66.4043 34C69.2451 34 71.7699 34.5723 73.916 35.7881C76.0999 37.0014 77.7653 38.7397 78.8818 40.9727C80.035 43.151 80.5762 45.7201 80.5762 48.6201V71.2402H70.2158V50.54C70.2158 48.1745 69.5742 46.52 68.4639 45.377L68.4492 45.3623C67.343 44.191 65.7721 43.5311 63.5381 43.5283C60.8946 43.5672 58.9412 44.4765 57.5068 46.1904C56.2919 47.6847 55.5671 49.5013 55.3604 51.6982V71.2402H45V34.2559H55.3604V37.7646C56.0052 37.1683 56.7076 36.6452 57.4707 36.2012L57.8936 35.9668C60.3659 34.6376 63.2192 34 66.4043 34ZM131.03 18.9609C129.269 19.2237 127.314 20.003 125.147 21.3975C121.966 23.4825 118.866 26.6372 115.867 30.9268C112.952 35.1712 110.636 40.2896 108.941 46.3057L108.938 46.3174C106.5 54.7027 106.219 60.7758 107.714 64.7754C108.39 66.5852 109.346 68.0079 110.571 69.0879L131.03 18.9609ZM178.494 38.8984C177.505 38.3776 176.295 38.1252 174.809 38.21L174.808 38.209C173.475 38.3031 172.157 38.7232 170.841 39.502C169.483 40.3058 168.163 41.3966 166.889 42.7949L166.888 42.7939C165.637 44.1743 164.488 45.7514 163.442 47.5273C162.442 49.2835 161.629 51.136 161.002 53.0859L161 53.0928C160.371 55.0177 159.976 56.9439 159.811 58.873L159.809 58.9033L159.805 58.9336C159.466 61.6102 159.653 63.4706 160.165 64.6699C160.699 65.9205 161.461 66.6759 162.431 67.0879C163.527 67.5535 164.856 67.7405 166.469 67.5771L166.473 67.5762C167.73 67.4522 169.001 67.0118 170.296 66.207C171.617 65.3855 172.862 64.3064 174.026 62.9541L174.029 62.9502C175.24 61.5533 176.317 59.9911 177.254 58.2617L177.259 58.252L177.264 58.2432C178.239 56.5034 179.028 54.7042 179.632 52.8467C180.232 50.966 180.619 49.1202 180.797 47.3086L180.799 47.291L180.801 47.2744C181.114 44.6993 180.977 42.806 180.522 41.4932C180.062 40.1626 179.366 39.3577 178.494 38.8984ZM262.14 49.0459C262.164 49.2221 262.186 49.401 262.203 49.583C262.186 49.401 262.164 49.2221 262.14 49.0459ZM18.7803 42.6318C16.9697 42.6318 15.456 43.0446 14.1865 43.8203L14.1855 43.8193C12.9512 44.5995 11.9631 45.7037 11.2256 47.1787L11.2217 47.1855L11.2188 47.1924C10.966 47.6853 10.7546 48.2153 10.5859 48.7842H26.5771C26.4068 47.8674 26.1263 47.0795 25.748 46.4072L25.4678 45.9297C24.8581 44.9371 24.0309 44.1704 22.957 43.6172L22.9404 43.6094L22.9258 43.6006C21.7679 42.9691 20.3999 42.6319 18.7803 42.6318ZM252.78 42.6318C250.97 42.6318 249.456 43.0446 248.187 43.8203L248.186 43.8193C246.951 44.5995 245.963 45.7037 245.226 47.1787L245.222 47.1855L245.219 47.1924C244.966 47.6853 244.755 48.2153 244.586 48.7842H260.579C260.391 47.7735 260.068 46.9202 259.629 46.2041L259.614 46.1797L259.601 46.1553C258.978 45.0492 258.108 44.2099 256.957 43.6172L256.94 43.6094L256.926 43.6006C255.768 42.9691 254.4 42.6319 252.78 42.6318ZM261.187 45.9141C261.259 46.0548 261.328 46.1989 261.394 46.3457C261.33 46.2044 261.265 46.0654 261.195 45.9297L261.187 45.9141ZM260.546 44.8359C260.62 44.9445 260.692 45.0548 260.761 45.168L260.605 44.9229C260.586 44.8935 260.566 44.865 260.546 44.8359ZM260.296 44.4883C260.254 44.4327 260.211 44.3775 260.167 44.3232C260.211 44.3775 260.254 44.4327 260.296 44.4883Z" fill="url(#paint0_linear_8_86)" fill-opacity="0.7"/>
<defs>
<linearGradient id="paint0_linear_8_86" x1="-1.18331e-07" y1="15.4798" x2="172.882" y2="84.238" gradientUnits="userSpaceOnUse">
<stop stop-color="#172B4A"/>
<stop offset="1" stop-color="#D4537E"/>
</linearGradient>
</defs>
</svg>
