<svg width="269" height="96" viewBox="0 0 269 96" fill="none" xmlns="http://www.w3.org/2000/svg">
<path d="M135.608 15.7432C138.166 16.3478 140.337 17.2634 142.122 18.4912C144.464 20.0497 146.102 21.941 147.035 24.165C147.968 26.389 148.154 28.7458 147.593 31.2344C147.1 33.5874 146.203 35.2264 144.902 36.1504C143.649 37.0812 142.334 37.4443 140.957 37.2412C139.675 37.052 138.645 36.4634 137.869 35.4756C137.148 34.4473 136.943 33.2039 137.255 31.7461C137.513 30.3287 137.892 29.0749 138.393 27.9844C138.893 26.8939 139.259 25.5649 139.49 23.998C139.749 22.2411 139.326 20.6742 138.219 19.2979C137.455 18.348 136.389 17.6428 135.021 17.1816L112.768 71.7041C113.607 71.9887 114.508 72.2035 115.472 72.3457C117.941 72.7099 120.447 72.4972 122.989 71.708C125.473 70.9578 127.886 69.616 130.231 67.6855H132.729C132.481 67.9694 132.23 68.249 131.975 68.5215C129.614 71.0358 127.035 73.0569 124.238 74.585C121.496 76.0725 118.63 77.081 115.641 77.6104C113.831 77.9307 112.012 78.0701 110.185 78.0322L103.45 94.5342H100.75L107.557 77.8555C107.237 77.8191 106.918 77.7786 106.598 77.7314C99.8548 76.7364 95.1987 73.5987 92.6299 68.3193C90.0613 63.0398 90.1254 55.868 92.8213 46.8047C94.2218 41.917 96.3399 37.4257 99.1758 33.332C102.012 29.2384 105.269 25.7407 108.948 22.8389C112.675 19.944 116.605 17.8061 120.738 16.4268C124.908 15.0582 129.03 14.672 133.103 15.2676L139.028 0.75H141.729L135.608 15.7432ZM132.537 16.6523C129.811 16.3876 126.824 17.3011 123.576 19.3936C120.192 21.6113 116.963 24.9193 113.888 29.3174C110.86 33.7226 108.48 38.9995 106.748 45.1484C104.286 53.6156 103.889 60.0832 105.559 64.5508C106.585 67.2966 108.229 69.3354 110.49 70.6689L132.537 16.6523ZM224.886 42.4053C222.454 42.2773 220.342 42.7043 218.55 43.6855C216.801 44.6242 215.435 45.9468 214.454 47.6533C213.714 48.9989 213.267 50.5041 213.11 52.168V69.9893H205.75V36.0059H213.11V42.7207C214.187 40.5926 215.638 38.9518 217.462 37.7979C219.553 36.4326 222.027 35.75 224.886 35.75V42.4053ZM173.66 34.6992C177.579 34.3476 180.977 34.6624 183.854 35.6426C186.732 36.6228 188.897 38.2286 190.349 40.4609C191.798 42.6688 192.322 45.4407 191.921 48.7764C191.654 51.33 190.814 53.7772 189.402 56.1162C188.027 58.4509 186.178 60.5675 183.856 62.4668C181.569 64.3376 178.91 65.9054 175.88 67.1689C172.847 68.408 169.523 69.2223 165.907 69.6133C162.181 70.017 158.829 69.7839 155.853 68.9141C152.91 68.0156 150.642 66.483 149.048 64.3164C147.451 62.1255 146.849 59.3258 147.241 55.917C147.556 53.1352 148.434 50.5356 149.875 48.1191C151.352 45.6984 153.272 43.5482 155.634 41.6689C158.029 39.7611 160.747 38.2118 163.785 37.0215C166.858 35.8026 170.149 35.0286 173.66 34.6992ZM17.9658 34.75C21.9765 34.75 25.1979 35.5821 27.6299 37.2461C30.0618 38.8674 31.7905 41.1707 32.8145 44.1572C33.8384 47.1438 34.201 50.6854 33.9023 54.7812H8.13672C8.35909 55.9422 8.71203 57.009 9.19824 57.9814C10.1369 59.7734 11.4168 61.1603 13.0381 62.1416C14.7021 63.1229 16.6011 63.6133 18.7344 63.6133C22.5314 63.6132 25.7314 62.2698 28.334 59.582L32.2383 63.4854C30.5743 65.32 28.5474 66.7494 26.1582 67.7734C23.7689 68.7547 21.1021 69.2461 18.1582 69.2461C14.6595 69.2461 11.6085 68.52 9.00586 67.0693C6.4033 65.6187 4.37641 63.6136 2.92578 61.0537C1.47512 58.451 0.75 55.4426 0.75 52.0293C0.750044 48.6161 1.47516 45.6293 2.92578 43.0693C4.37644 40.4667 6.40323 38.4399 9.00586 36.9893C11.6085 35.5386 14.5952 34.7927 17.9658 34.75ZM251.966 34.75C255.976 34.75 259.198 35.5821 261.63 37.2461C264.062 38.8674 265.79 41.1707 266.814 44.1572C267.838 47.1438 268.201 50.6854 267.902 54.7812H242.137C242.359 55.9422 242.712 57.009 243.198 57.9814C244.137 59.7734 245.417 61.1603 247.038 62.1416C248.702 63.1229 250.601 63.6133 252.734 63.6133C256.531 63.6132 259.731 62.2698 262.334 59.582L266.238 63.4854C264.574 65.32 262.547 66.7494 260.158 67.7734C257.769 68.7548 255.102 69.2461 252.158 69.2461C248.66 69.2461 245.609 68.52 243.006 67.0693C240.403 65.6187 238.376 63.6136 236.926 61.0537C235.475 58.451 234.75 55.4426 234.75 52.0293C234.75 48.6161 235.475 45.6293 236.926 43.0693C238.376 40.4667 240.403 38.4399 243.006 36.9893C245.608 35.5386 248.595 34.7927 251.966 34.75ZM65.6543 34.75C68.2995 34.75 70.5612 35.283 72.4385 36.3496C74.3583 37.4163 75.8088 38.931 76.79 40.8936C77.814 42.8134 78.3261 45.1387 78.3262 47.8691V68.9893H70.9658V49.79C70.9658 47.1448 70.2406 45.0753 68.79 43.582C67.3395 42.0461 65.3342 41.2774 62.7744 41.2773C59.7452 41.32 57.3558 42.387 55.6064 44.4775C54.1651 46.2431 53.3345 48.3742 53.1104 50.8701V68.9893H45.75V35.0059H53.1104V41.4658C54.2794 39.2366 55.8569 37.595 57.8457 36.542C60.0644 35.3473 62.6676 34.75 65.6543 34.75ZM178.443 36.8213C177.171 36.1513 175.681 35.8646 173.974 35.9619C172.38 36.0709 170.831 36.5708 169.327 37.4609C167.823 38.3512 166.39 39.5421 165.03 41.0342C163.704 42.4975 162.494 44.1576 161.4 46.0146C160.343 47.8676 159.485 49.8222 158.824 51.877C158.161 53.9071 157.742 55.9468 157.566 57.9951C157.214 60.7808 157.371 62.9518 158.035 64.5078C158.7 66.0638 159.719 67.1337 161.094 67.7178C162.468 68.3018 164.061 68.5026 165.87 68.3193C167.384 68.17 168.874 67.6398 170.338 66.7295C171.802 65.8191 173.161 64.6366 174.413 63.1816C175.699 61.6981 176.836 60.0466 177.822 58.2266C178.845 56.4022 179.674 54.5134 180.309 52.5605C180.94 50.5833 181.351 48.6314 181.54 46.7051C181.867 44.0209 181.75 41.8696 181.19 40.252C180.631 38.6348 179.715 37.4912 178.443 36.8213ZM18.0303 40.3818C15.9823 40.3818 14.1903 40.8514 12.6543 41.79C11.161 42.7287 9.98712 44.0511 9.13379 45.7578C8.55818 46.8803 8.17753 48.1389 7.99023 49.5332H27.502C27.4166 47.6135 26.9687 45.9924 26.1582 44.6699C25.3902 43.3046 24.3016 42.2585 22.8936 41.5332C21.4857 40.7654 19.8646 40.3819 18.0303 40.3818ZM252.03 40.3818C249.982 40.3818 248.19 40.8514 246.654 41.79C245.161 42.7287 243.987 44.0511 243.134 45.7578C242.558 46.8803 242.178 48.1389 241.99 49.5332H261.502C261.417 47.6135 260.969 45.9924 260.158 44.6699C259.39 43.3046 258.302 42.2585 256.894 41.5332C255.486 40.7654 253.865 40.3819 252.03 40.3818Z" fill="#D4537E"/>
<path d="M135.608 15.7432L134.914 15.4597L134.583 16.2713L135.436 16.473L135.608 15.7432ZM142.122 18.4912L141.697 19.1092L141.706 19.1156L142.122 18.4912ZM147.035 24.165L147.727 23.8748L147.727 23.8748L147.035 24.165ZM147.593 31.2344L146.861 31.0693L146.859 31.0806L147.593 31.2344ZM144.902 36.1504L144.468 35.539L144.462 35.5436L144.455 35.5483L144.902 36.1504ZM140.957 37.2412L140.848 37.9832L140.848 37.9832L140.957 37.2412ZM137.869 35.4756L137.255 35.9063L137.267 35.923L137.279 35.9389L137.869 35.4756ZM137.255 31.7461L137.988 31.9031L137.991 31.8917L137.993 31.8802L137.255 31.7461ZM138.393 27.9844L137.711 27.6715L137.711 27.6715L138.393 27.9844ZM139.49 23.998L140.232 24.1075V24.1075L139.49 23.998ZM138.219 19.2979L138.803 18.8278L138.803 18.8278L138.219 19.2979ZM135.021 17.1816L135.261 16.471L134.593 16.2458L134.327 16.8982L135.021 17.1816ZM112.768 71.7041L112.073 71.4207L111.772 72.1585L112.527 72.4144L112.768 71.7041ZM115.472 72.3457L115.362 73.0877L115.362 73.0877L115.472 72.3457ZM122.989 71.708L122.772 70.99L122.767 70.9917L122.989 71.708ZM130.231 67.6855V66.9355H129.962L129.755 67.1065L130.231 67.6855ZM132.729 67.6855L133.294 68.1794L134.382 66.9355H132.729V67.6855ZM131.975 68.5215L132.521 69.0348V69.0348L131.975 68.5215ZM124.238 74.585L124.596 75.2442L124.598 75.2431L124.238 74.585ZM115.641 77.6104L115.771 78.3489H115.771L115.641 77.6104ZM110.185 78.0322L110.2 77.2824L109.685 77.2717L109.49 77.7488L110.185 78.0322ZM103.45 94.5342V95.2842H103.954L104.145 94.8176L103.45 94.5342ZM100.75 94.5342L100.056 94.2508L99.6339 95.2842H100.75V94.5342ZM107.557 77.8555L108.251 78.1389L108.625 77.2223L107.642 77.1103L107.557 77.8555ZM106.598 77.7314L106.488 78.4734H106.488L106.598 77.7314ZM92.6299 68.3193L91.9555 68.6475L91.9555 68.6475L92.6299 68.3193ZM92.8213 46.8047L93.5402 47.0185L93.5423 47.0113L92.8213 46.8047ZM99.1758 33.332L98.5593 32.9049V32.9049L99.1758 33.332ZM108.948 22.8389L108.488 22.2466L108.484 22.25L108.948 22.8389ZM120.738 16.4268L120.504 15.7141L120.501 15.7153L120.738 16.4268ZM133.103 15.2676L132.994 16.0097L133.575 16.0947L133.797 15.551L133.103 15.2676ZM139.028 0.75V0H138.524L138.334 0.466567L139.028 0.75ZM141.729 0.75L142.423 1.03344L142.845 0H141.729V0.75ZM132.537 16.6523L133.231 16.9358L133.612 16.0032L132.61 15.9059L132.537 16.6523ZM123.576 19.3936L123.17 18.763L123.165 18.7663L123.576 19.3936ZM113.888 29.3174L113.273 28.8876L113.27 28.8926L113.888 29.3174ZM106.748 45.1484L107.468 45.3579L107.47 45.3518L106.748 45.1484ZM105.559 64.5508L104.856 64.8133V64.8133L105.559 64.5508ZM110.49 70.6689L110.109 71.315L110.857 71.7558L111.185 70.9524L110.49 70.6689ZM224.886 42.4053L224.846 43.1542L225.636 43.1958V42.4053H224.886ZM218.55 43.6855L218.904 44.3464L218.91 44.3434L218.55 43.6855ZM214.454 47.6533L213.804 47.2794L213.8 47.2856L213.797 47.2919L214.454 47.6533ZM213.11 52.168L212.364 52.0977L212.36 52.1328V52.168H213.11ZM213.11 69.9893V70.7393H213.86V69.9893H213.11ZM205.75 69.9893H205V70.7393H205.75V69.9893ZM205.75 36.0059V35.2559H205V36.0059H205.75ZM213.11 36.0059H213.86V35.2559H213.11V36.0059ZM213.11 42.7207H212.36L213.78 43.0594L213.11 42.7207ZM217.462 37.7979L217.863 38.4317L217.872 38.4258L217.462 37.7979ZM224.886 35.75H225.636V35L224.886 35L224.886 35.75ZM173.66 34.6992L173.593 33.9522L173.59 33.9525L173.66 34.6992ZM183.854 35.6426L184.096 34.9327V34.9326L183.854 35.6426ZM190.349 40.4609L189.72 40.8699L189.722 40.8725L190.349 40.4609ZM191.921 48.7764L191.176 48.6869L191.175 48.6984L191.921 48.7764ZM189.402 56.1162L188.76 55.7286L188.756 55.7355L189.402 56.1162ZM183.856 62.4668L184.331 63.0474L184.331 63.0473L183.856 62.4668ZM175.88 67.1689L176.164 67.8633L176.169 67.8612L175.88 67.1689ZM165.907 69.6133L165.827 68.8676L165.826 68.8676L165.907 69.6133ZM155.853 68.9141L155.633 69.6314L155.642 69.6339L155.853 68.9141ZM149.048 64.3164L148.442 64.7581L148.444 64.7608L149.048 64.3164ZM147.241 55.917L147.986 56.0028L147.986 56.0014L147.241 55.917ZM149.875 48.1191L149.235 47.7284L149.231 47.7351L149.875 48.1191ZM155.634 41.6689L156.101 42.2558L156.101 42.2556L155.634 41.6689ZM163.785 37.0215L164.059 37.7198L164.062 37.7186L163.785 37.0215ZM17.9658 34.75V33.9999L17.9563 34.0001L17.9658 34.75ZM27.6299 37.2461L27.2063 37.8651L27.2139 37.8701L27.6299 37.2461ZM32.8145 44.1572L33.5239 43.914L33.5239 43.914L32.8145 44.1572ZM33.9023 54.7812V55.5312H34.5997L34.6504 54.8358L33.9023 54.7812ZM8.13672 54.7812V54.0312H7.22942L7.40011 54.9223L8.13672 54.7812ZM9.19824 57.9814L8.52742 58.3169L8.53059 58.3232L8.53387 58.3294L9.19824 57.9814ZM13.0381 62.1416L12.6497 62.7833L12.6571 62.7876L13.0381 62.1416ZM18.7344 63.6133V64.3633H18.7344L18.7344 63.6133ZM28.334 59.582L28.8642 59.0516L28.3253 58.5128L27.7952 59.0603L28.334 59.582ZM32.2383 63.4854L32.7938 63.9892L33.2738 63.46L32.7685 62.955L32.2383 63.4854ZM26.1582 67.7734L26.4432 68.4673L26.4537 68.4628L26.1582 67.7734ZM18.1582 69.2461V69.9961H18.1582L18.1582 69.2461ZM9.00586 67.0693L8.64071 67.7244L8.64072 67.7244L9.00586 67.0693ZM2.92578 61.0537L2.27065 61.4189L2.27326 61.4235L2.92578 61.0537ZM0.75 52.0293L0 52.0293V52.0293H0.75ZM2.92578 43.0693L3.57831 43.4391L3.58089 43.4345L2.92578 43.0693ZM9.00586 36.9893L8.64072 36.3341L8.64072 36.3341L9.00586 36.9893ZM251.966 34.75V33.9999L251.956 34.0001L251.966 34.75ZM261.63 37.2461L261.206 37.8651L261.214 37.8701L261.63 37.2461ZM266.814 44.1572L267.524 43.914L267.524 43.914L266.814 44.1572ZM267.902 54.7812V55.5312H268.6L268.65 54.8358L267.902 54.7812ZM242.137 54.7812V54.0312H241.229L241.4 54.9223L242.137 54.7812ZM243.198 57.9814L242.527 58.3169L242.531 58.3232L242.534 58.3294L243.198 57.9814ZM247.038 62.1416L246.65 62.7833L246.657 62.7876L247.038 62.1416ZM252.734 63.6133V64.3633H252.734L252.734 63.6133ZM262.334 59.582L262.864 59.0516L262.325 58.5128L261.795 59.0603L262.334 59.582ZM266.238 63.4854L266.794 63.9892L267.274 63.46L266.769 62.955L266.238 63.4854ZM260.158 67.7734L260.443 68.4673L260.454 68.4628L260.158 67.7734ZM252.158 69.2461V69.9961V69.9961V69.2461ZM243.006 67.0693L242.641 67.7244L242.641 67.7244L243.006 67.0693ZM236.926 61.0537L236.271 61.4189L236.273 61.4235L236.926 61.0537ZM234.75 52.0293L234 52.0293V52.0293H234.75ZM236.926 43.0693L237.578 43.4391L237.581 43.4345L236.926 43.0693ZM243.006 36.9893L242.641 36.3341V36.3341L243.006 36.9893ZM65.6543 34.75L65.6543 34H65.6543V34.75ZM72.4385 36.3496L72.068 37.0017L72.0742 37.0052L72.4385 36.3496ZM76.79 40.8936L76.1192 41.229L76.1236 41.2378L76.1283 41.2465L76.79 40.8936ZM78.3262 47.8691H79.0762V47.8691L78.3262 47.8691ZM78.3262 68.9893V69.7393H79.0762V68.9893H78.3262ZM70.9658 68.9893H70.2158V69.7393H70.9658V68.9893ZM68.79 43.582L68.2447 44.097L68.2521 44.1046L68.79 43.582ZM62.7744 41.2773L62.7744 40.5273L62.7639 40.5274L62.7744 41.2773ZM55.6064 44.4775L55.0312 43.9962L55.0254 44.0033L55.6064 44.4775ZM53.1104 50.8701L52.3634 50.803L52.3604 50.8365V50.8701H53.1104ZM53.1104 68.9893V69.7393H53.8604V68.9893H53.1104ZM45.75 68.9893H45V69.7393H45.75V68.9893ZM45.75 35.0059V34.2559H45V35.0059H45.75ZM53.1104 35.0059H53.8604V34.2559H53.1104V35.0059ZM53.1104 41.4658H52.3604L53.7746 41.8141L53.1104 41.4658ZM57.8457 36.542L58.1967 37.2048L58.2013 37.2023L57.8457 36.542ZM178.443 36.8213L178.793 36.1577L178.793 36.1577L178.443 36.8213ZM173.974 35.9619L173.931 35.2131L173.922 35.2137L173.974 35.9619ZM169.327 37.4609L168.945 36.8155V36.8155L169.327 37.4609ZM165.03 41.0342L164.476 40.5289L164.474 40.5306L165.03 41.0342ZM161.4 46.0146L160.754 45.634L160.749 45.643L161.4 46.0146ZM158.824 51.877L159.537 52.1098L159.538 52.1064L158.824 51.877ZM157.566 57.9951L158.31 58.0891L158.312 58.0742L158.314 58.0591L157.566 57.9951ZM158.035 64.5078L157.345 64.8023L157.345 64.8024L158.035 64.5078ZM161.094 67.7178L160.8 68.408L160.8 68.4081L161.094 67.7178ZM165.87 68.3193L165.796 67.573L165.795 67.5732L165.87 68.3193ZM170.338 66.7295L170.734 67.3664V67.3664L170.338 66.7295ZM174.413 63.1816L173.846 62.6903L173.845 62.6924L174.413 63.1816ZM177.822 58.2266L177.168 57.8597L177.163 57.8693L177.822 58.2266ZM180.309 52.5605L181.022 52.7924L181.023 52.7889L180.309 52.5605ZM181.54 46.7051L180.796 46.6145L180.794 46.6231L180.794 46.6317L181.54 46.7051ZM181.19 40.252L181.899 40.0068L181.899 40.0067L181.19 40.252ZM18.0303 40.3818L18.0303 39.6318H18.0303V40.3818ZM12.6543 41.79L12.2632 41.15L12.2552 41.1551L12.6543 41.79ZM9.13379 45.7578L9.8012 46.1L9.80461 46.0932L9.13379 45.7578ZM7.99023 49.5332L7.24691 49.4334L7.13275 50.2832H7.99023V49.5332ZM27.502 49.5332V50.2832H28.286L28.2512 49.4999L27.502 49.5332ZM26.1582 44.6699L25.5045 45.0376L25.5114 45.0498L25.5187 45.0618L26.1582 44.6699ZM22.8936 41.5332L22.5345 42.1917L22.5422 42.1959L22.5501 42.1999L22.8936 41.5332ZM252.03 40.3818L252.03 39.6318H252.03V40.3818ZM246.654 41.79L246.263 41.15L246.255 41.1551L246.654 41.79ZM243.134 45.7578L243.801 46.1L243.805 46.0932L243.134 45.7578ZM241.99 49.5332L241.247 49.4334L241.133 50.2832H241.99V49.5332ZM261.502 49.5332V50.2832H262.286L262.251 49.4999L261.502 49.5332ZM260.158 44.6699L259.505 45.0376L259.511 45.0498L259.519 45.0618L260.158 44.6699ZM256.894 41.5332L256.534 42.1917L256.542 42.1959L256.55 42.1999L256.894 41.5332ZM135.608 15.7432L135.436 16.473C137.922 17.0608 140.003 17.944 141.697 19.1091L142.122 18.4912L142.547 17.8733C140.671 16.5829 138.41 15.6348 135.781 15.0133L135.608 15.7432ZM142.122 18.4912L141.706 19.1156C143.946 20.6063 145.476 22.3889 146.344 24.4553L147.035 24.165L147.727 23.8748C146.727 21.4931 144.981 19.4932 142.538 17.8669L142.122 18.4912ZM147.035 24.165L146.344 24.4552C147.213 26.5267 147.39 28.7236 146.861 31.0694L147.593 31.2344L148.324 31.3994C148.918 28.768 148.724 26.2513 147.727 23.8748L147.035 24.165ZM147.593 31.2344L146.859 31.0806C146.385 33.3402 145.553 34.7685 144.468 35.539L144.902 36.1504L145.337 36.7618C146.854 35.6843 147.814 33.8346 148.327 31.3881L147.593 31.2344ZM144.902 36.1504L144.455 35.5483C143.341 36.376 142.222 36.6697 141.066 36.4992L140.957 37.2412L140.848 37.9832C142.446 38.2188 143.958 37.7863 145.35 36.7525L144.902 36.1504ZM140.957 37.2412L141.067 36.4992C139.968 36.3371 139.112 35.8439 138.459 35.0122L137.869 35.4756L137.279 35.9389C138.178 37.0829 139.382 37.767 140.848 37.9832L140.957 37.2412ZM137.869 35.4756L138.483 35.0449C137.904 34.2191 137.711 33.1982 137.988 31.9031L137.255 31.7461L136.521 31.5891C136.175 33.2096 136.392 34.6755 137.255 35.9063L137.869 35.4756ZM137.255 31.7461L137.993 31.8802C138.241 30.5128 138.604 29.3208 139.074 28.2972L138.393 27.9844L137.711 27.6715C137.18 28.8289 136.784 30.1446 136.517 31.6119L137.255 31.7461ZM138.393 27.9844L139.074 28.2972C139.612 27.1253 139.994 25.7236 140.232 24.1075L139.49 23.998L138.748 23.8885C138.524 25.4061 138.174 26.6625 137.711 27.6715L138.393 27.9844ZM139.49 23.998L140.232 24.1075C140.522 22.1453 140.042 20.368 138.803 18.8278L138.219 19.2979L137.634 19.7679C138.609 20.9804 138.977 22.337 138.748 23.8886L139.49 23.998ZM138.219 19.2979L138.803 18.8278C137.934 17.7473 136.739 16.9692 135.261 16.471L135.021 17.1816L134.782 17.8923C136.039 18.3163 136.976 18.9487 137.634 19.7679L138.219 19.2979ZM135.021 17.1816L134.327 16.8982L112.073 71.4207L112.768 71.7041L113.462 71.9875L135.716 17.4651L135.021 17.1816ZM112.768 71.7041L112.527 72.4144C113.412 72.7145 114.357 72.9394 115.362 73.0877L115.472 72.3457L115.581 71.6037C114.659 71.4676 113.802 71.2628 113.008 70.9938L112.768 71.7041ZM115.472 72.3457L115.362 73.0877C117.95 73.4694 120.569 73.2445 123.212 72.4243L122.989 71.708L122.767 70.9917C120.325 71.7499 117.932 71.9505 115.581 71.6037L115.472 72.3457ZM122.989 71.708L123.206 72.426C125.799 71.6425 128.299 70.2472 130.708 68.2646L130.231 67.6855L129.755 67.1065C127.473 68.9847 125.146 70.2731 122.772 70.9901L122.989 71.708ZM130.231 67.6855V68.4355H132.729V67.6855V66.9355H130.231V67.6855ZM132.729 67.6855L132.165 67.1917C131.921 67.4711 131.676 67.7439 131.428 68.0082L131.975 68.5215L132.521 69.0348C132.785 68.7541 133.042 68.4677 133.294 68.1794L132.729 67.6855ZM131.975 68.5215L131.428 68.0082C129.117 70.4692 126.6 72.4398 123.879 73.9268L124.238 74.585L124.598 75.2431C127.47 73.6741 130.111 71.6023 132.521 69.0348L131.975 68.5215ZM124.238 74.585L123.881 73.9257C121.207 75.3758 118.417 76.357 115.51 76.8718L115.641 77.6104L115.771 78.3489C118.842 77.8051 121.785 76.7691 124.596 75.2442L124.238 74.585ZM115.641 77.6104L115.51 76.8718C113.749 77.1836 111.979 77.3193 110.2 77.2824L110.185 78.0322L110.169 78.7821C112.046 78.821 113.913 78.6778 115.771 78.3489L115.641 77.6104ZM110.185 78.0322L109.49 77.7488L102.756 94.2508L103.45 94.5342L104.145 94.8176L110.879 78.3156L110.185 78.0322ZM103.45 94.5342V93.7842H100.75V94.5342V95.2842H103.45V94.5342ZM100.75 94.5342L101.444 94.8176L108.251 78.1389L107.557 77.8555L106.862 77.5721L100.056 94.2508L100.75 94.5342ZM107.557 77.8555L107.642 77.1103C107.328 77.0746 107.017 77.0352 106.707 76.9895L106.598 77.7314L106.488 78.4734C106.818 78.5221 107.146 78.5636 107.472 78.6007L107.557 77.8555ZM106.598 77.7314L106.707 76.9895C100.164 76.0239 95.746 73.0094 93.3043 67.9912L92.6299 68.3193L91.9555 68.6475C94.6514 74.1881 99.5458 77.4489 106.488 78.4734L106.598 77.7314ZM92.6299 68.3193L93.3043 67.9912C90.8554 62.9577 90.8668 56.006 93.5402 47.0185L92.8213 46.8047L92.1024 46.5909C89.384 55.7299 89.2672 63.122 91.9555 68.6475L92.6299 68.3193ZM92.8213 46.8047L93.5423 47.0113C94.9208 42.2006 97.004 37.7841 99.7923 33.7591L99.1758 33.332L98.5593 32.9049C95.6757 37.0674 93.5229 41.6334 92.1003 46.5981L92.8213 46.8047ZM99.1758 33.332L99.7923 33.7591C102.588 29.7229 105.796 26.2807 109.413 23.4277L108.948 22.8389L108.484 22.25C104.743 25.2008 101.435 28.754 98.5593 32.9049L99.1758 33.332ZM108.948 22.8389L109.408 23.4311C113.073 20.5839 116.929 18.4885 120.976 17.1382L120.738 16.4268L120.501 15.7153C116.28 17.1236 112.276 19.304 108.488 22.2466L108.948 22.8389ZM120.738 16.4268L120.972 17.1394C125.039 15.8046 129.044 15.432 132.994 16.0097L133.103 15.2676L133.211 14.5255C129.016 13.912 124.777 14.3119 120.504 15.7142L120.738 16.4268ZM133.103 15.2676L133.797 15.551L139.723 1.03343L139.028 0.75L138.334 0.466567L132.408 14.9841L133.103 15.2676ZM139.028 0.75V1.5H141.729V0.75V0H139.028V0.75ZM141.729 0.75L141.034 0.466559L134.914 15.4597L135.608 15.7432L136.303 16.0266L142.423 1.03344L141.729 0.75ZM132.537 16.6523L132.61 15.9059C129.658 15.6193 126.503 16.6159 123.17 18.7631L123.576 19.3936L123.982 20.024C127.145 17.9863 129.963 17.1559 132.465 17.3988L132.537 16.6523ZM123.576 19.3936L123.165 18.7663C119.68 21.0503 116.386 24.4355 113.273 28.8876L113.888 29.3174L114.502 29.7471C117.539 25.4031 120.705 22.1723 123.987 20.0208L123.576 19.3936ZM113.888 29.3174L113.27 28.8926C110.188 33.3771 107.776 38.7321 106.026 44.9451L106.748 45.1484L107.47 45.3518C109.184 39.2669 111.533 34.068 114.506 29.7422L113.888 29.3174ZM106.748 45.1484L106.028 44.939C103.554 53.447 103.099 60.1117 104.856 64.8133L105.559 64.5508L106.261 64.2882C104.679 60.0546 105.018 53.7843 107.468 45.3579L106.748 45.1484ZM105.559 64.5508L104.856 64.8133C105.935 67.7003 107.683 69.884 110.109 71.315L110.49 70.6689L110.871 70.0229C108.775 68.7867 107.235 66.8928 106.261 64.2882L105.559 64.5508ZM110.49 70.6689L111.185 70.9524L133.231 16.9358L132.537 16.6523L131.843 16.3689L109.796 70.3855L110.49 70.6689ZM224.886 42.4053L224.925 41.6563C222.381 41.5225 220.125 41.9677 218.19 43.0277L218.55 43.6855L218.91 44.3434C220.558 43.4408 222.527 43.0322 224.846 43.1542L224.886 42.4053ZM218.55 43.6855L218.195 43.0247C216.324 44.0289 214.856 45.4505 213.804 47.2794L214.454 47.6533L215.104 48.0272C216.015 46.4431 217.278 45.2194 218.904 44.3464L218.55 43.6855ZM214.454 47.6533L213.797 47.2919C213.003 48.7354 212.529 50.3412 212.364 52.0977L213.11 52.168L213.857 52.2382C214.005 50.667 214.425 49.2624 215.111 48.0148L214.454 47.6533ZM213.11 52.168H212.36V69.9893H213.11H213.86V52.168H213.11ZM213.11 69.9893V69.2393H205.75V69.9893V70.7393H213.11V69.9893ZM205.75 69.9893H206.5V36.0059H205.75H205V69.9893H205.75ZM205.75 36.0059V36.7559H213.11V36.0059V35.2559H205.75V36.0059ZM213.11 36.0059H212.36V42.7207H213.11H213.86V36.0059H213.11ZM213.11 42.7207L213.78 43.0594C214.802 41.039 216.165 39.5058 217.863 38.4317L217.462 37.7979L217.061 37.1641C215.111 38.3978 213.573 40.1461 212.441 42.382L213.11 42.7207ZM217.462 37.7979L217.872 38.4258C219.824 37.1512 222.151 36.5 224.886 36.5L224.886 35.75L224.886 35C221.903 35 219.281 35.7139 217.052 37.1699L217.462 37.7979ZM224.886 35.75H224.136V42.4053H224.886H225.636V35.75H224.886ZM173.66 34.6992L173.727 35.4462C177.571 35.1013 180.859 35.4145 183.613 36.3525L183.854 35.6426L184.096 34.9326C181.096 33.9103 177.587 33.5939 173.593 33.9522L173.66 34.6992ZM183.854 35.6426L183.613 36.3525C186.354 37.2866 188.372 38.798 189.72 40.8699L190.349 40.4609L190.977 40.052C189.421 37.6592 187.109 35.9589 184.096 34.9327L183.854 35.6426ZM190.349 40.4609L189.722 40.8725C191.05 42.8958 191.562 45.4779 191.176 48.6869L191.921 48.7764L192.666 48.8659C193.082 45.4036 192.546 42.4418 190.976 40.0494L190.349 40.4609ZM191.921 48.7764L191.175 48.6984C190.92 51.1355 190.119 53.4777 188.76 55.7286L189.402 56.1162L190.044 56.5038C191.51 54.0766 192.388 51.5245 192.667 48.8543L191.921 48.7764ZM189.402 56.1162L188.756 55.7355C187.43 57.9862 185.642 60.0369 183.382 61.8863L183.856 62.4668L184.331 63.0473C186.714 61.098 188.624 58.9155 190.049 56.4969L189.402 56.1162ZM183.856 62.4668L183.382 61.8862C181.156 63.7062 178.561 65.2382 175.591 66.4767L175.88 67.1689L176.169 67.8612C179.258 66.5727 181.981 64.9689 184.331 63.0474L183.856 62.4668ZM175.88 67.1689L175.596 66.4747C172.635 67.6844 169.38 68.4834 165.827 68.8676L165.907 69.6133L165.988 70.3589C169.666 69.9613 173.059 69.1316 176.164 67.8632L175.88 67.1689ZM165.907 69.6133L165.826 68.8676C162.178 69.2629 158.927 69.0313 156.063 68.1942L155.853 68.9141L155.642 69.6339C158.73 70.5365 162.184 70.771 165.988 70.3589L165.907 69.6133ZM155.853 68.9141L156.072 68.1968C153.26 67.3383 151.137 65.8903 149.652 63.872L149.048 64.3164L148.444 64.7608C150.147 67.0757 152.56 68.6928 155.633 69.6314L155.853 68.9141ZM149.048 64.3164L149.654 63.8747C148.196 61.8733 147.609 59.2761 147.986 56.0028L147.241 55.917L146.496 55.8312C146.088 59.3755 146.707 62.3778 148.442 64.7581L149.048 64.3164ZM147.241 55.917L147.986 56.0014C148.29 53.3261 149.133 50.8285 150.519 48.5032L149.875 48.1191L149.231 47.7351C147.736 50.2427 146.823 52.9443 146.496 55.8325L147.241 55.917ZM149.875 48.1191L150.515 48.5099C151.944 46.1689 153.804 44.0839 156.101 42.2558L155.634 41.6689L155.167 41.0821C152.741 43.0125 150.761 45.2279 149.235 47.7284L149.875 48.1191ZM155.634 41.6689L156.101 42.2556C158.434 40.3974 161.085 38.8846 164.059 37.7198L163.785 37.0215L163.512 36.3232C160.408 37.539 157.624 39.1247 155.167 41.0823L155.634 41.6689ZM163.785 37.0215L164.062 37.7186C167.064 36.5277 170.285 35.7691 173.73 35.4459L173.66 34.6992L173.59 33.9525C170.013 34.2881 166.651 35.0775 163.509 36.3243L163.785 37.0215ZM17.9658 34.75V35.5C21.8786 35.5 24.9368 36.3122 27.2064 37.8651L27.6299 37.2461L28.0534 36.6271C25.459 34.852 22.0744 34 17.9658 34V34.75ZM27.6299 37.2461L27.2139 37.8701C29.4977 39.3927 31.1299 41.5565 32.105 44.4005L32.8145 44.1572L33.5239 43.914C32.451 40.7849 30.6258 38.342 28.0459 36.6221L27.6299 37.2461ZM32.8145 44.1572L32.105 44.4005C33.0879 47.2673 33.4477 50.7027 33.1543 54.7267L33.9023 54.7812L34.6504 54.8358C34.9542 50.6681 34.5889 47.0203 33.5239 43.914L32.8145 44.1572ZM33.9023 54.7812V54.0312H8.13672V54.7812V55.5312H33.9023V54.7812ZM8.13672 54.7812L7.40011 54.9223C7.63417 56.1443 8.00767 57.2773 8.52742 58.3169L9.19824 57.9814L9.86906 57.646C9.41638 56.7407 9.08401 55.74 8.87333 54.6402L8.13672 54.7812ZM9.19824 57.9814L8.53387 58.3294C9.53155 60.2341 10.9033 61.7262 12.6497 62.7832L13.0381 62.1416L13.4264 61.5C11.9302 60.5943 10.7423 59.3128 9.86262 57.6334L9.19824 57.9814ZM13.0381 62.1416L12.6571 62.7876C14.4484 63.844 16.4815 64.3633 18.7344 64.3633V63.6133V62.8633C16.7206 62.8633 14.9558 62.4018 13.4191 61.4956L13.0381 62.1416ZM18.7344 63.6133L18.7344 64.3633C22.731 64.3632 26.1265 62.9399 28.8728 60.1038L28.334 59.582L27.7952 59.0603C25.3363 61.5997 22.3318 62.8632 18.7344 62.8633L18.7344 63.6133ZM28.334 59.582L27.8037 60.1124L31.708 64.0157L32.2383 63.4854L32.7685 62.955L28.8642 59.0516L28.334 59.582ZM32.2383 63.4854L31.6827 62.9815C30.0947 64.7324 28.158 66.1004 25.8628 67.0841L26.1582 67.7734L26.4537 68.4628C28.9369 67.3985 31.0539 65.9076 32.7938 63.9892L32.2383 63.4854ZM26.1582 67.7734L25.8733 67.0797C23.586 68.0191 21.0178 68.4961 18.1582 68.4961L18.1582 69.2461L18.1582 69.9961C21.1864 69.9961 23.9518 69.4904 26.4431 68.4672L26.1582 67.7734ZM18.1582 69.2461V68.4961C14.7651 68.4961 11.8441 67.7927 9.371 66.4142L9.00586 67.0693L8.64072 67.7244C11.373 69.2473 14.554 69.9961 18.1582 69.9961V69.2461ZM9.00586 67.0693L9.37101 66.4142C6.88693 65.0296 4.96018 63.1226 3.5783 60.684L2.92578 61.0537L2.27326 61.4235C3.79263 64.1047 5.91967 66.2077 8.64071 67.7244L9.00586 67.0693ZM2.92578 61.0537L3.58089 60.6886C2.20104 58.213 1.5 55.3337 1.5 52.0293H0.75H0C0 55.5516 0.749193 58.6891 2.27067 61.4189L2.92578 61.0537ZM0.75 52.0293L1.5 52.0293C1.50004 48.7247 2.20118 45.8693 3.5783 43.4391L2.92578 43.0693L2.27326 42.6996C0.749137 45.3892 4.51803e-05 48.5075 0 52.0293L0.75 52.0293ZM2.92578 43.0693L3.58089 43.4345C4.96371 40.9536 6.89009 39.0272 9.371 37.6444L9.00586 36.9893L8.64072 36.3341C5.91637 37.8526 3.78917 39.9799 2.27067 42.7042L2.92578 43.0693ZM9.00586 36.9893L9.371 37.6444C11.8511 36.262 14.7126 35.5413 17.9753 35.4999L17.9658 34.75L17.9563 34.0001C14.4779 34.0441 11.3659 34.8152 8.64072 36.3341L9.00586 36.9893ZM251.966 34.75V35.5C255.879 35.5 258.937 36.3122 261.206 37.8651L261.63 37.2461L262.053 36.6271C259.459 34.852 256.074 34 251.966 34V34.75ZM261.63 37.2461L261.214 37.8701C263.498 39.3927 265.13 41.5565 266.105 44.4005L266.814 44.1572L267.524 43.914C266.451 40.7849 264.626 38.342 262.046 36.6221L261.63 37.2461ZM266.814 44.1572L266.105 44.4005C267.088 47.2673 267.448 50.7027 267.154 54.7267L267.902 54.7812L268.65 54.8358C268.954 50.6681 268.589 47.0203 267.524 43.914L266.814 44.1572ZM267.902 54.7812V54.0312H242.137V54.7812V55.5312H267.902V54.7812ZM242.137 54.7812L241.4 54.9223C241.634 56.1443 242.008 57.2773 242.527 58.3169L243.198 57.9814L243.869 57.646C243.416 56.7407 243.084 55.74 242.873 54.6402L242.137 54.7812ZM243.198 57.9814L242.534 58.3294C243.532 60.2341 244.903 61.7262 246.65 62.7832L247.038 62.1416L247.426 61.5C245.93 60.5943 244.742 59.3128 243.863 57.6334L243.198 57.9814ZM247.038 62.1416L246.657 62.7876C248.448 63.844 250.482 64.3633 252.734 64.3633V63.6133V62.8633C250.721 62.8633 248.956 62.4018 247.419 61.4956L247.038 62.1416ZM252.734 63.6133L252.734 64.3633C256.731 64.3632 260.127 62.9399 262.873 60.1038L262.334 59.582L261.795 59.0603C259.336 61.5997 256.332 62.8632 252.734 62.8633L252.734 63.6133ZM262.334 59.582L261.804 60.1124L265.708 64.0157L266.238 63.4854L266.769 62.955L262.864 59.0516L262.334 59.582ZM266.238 63.4854L265.683 62.9815C264.095 64.7324 262.158 66.1004 259.863 67.0841L260.158 67.7734L260.454 68.4628C262.937 67.3985 265.054 65.9076 266.794 63.9892L266.238 63.4854ZM260.158 67.7734L259.873 67.0797C257.586 68.0191 255.018 68.4961 252.158 68.4961V69.2461V69.9961C255.186 69.9961 257.952 69.4904 260.443 68.4672L260.158 67.7734ZM252.158 69.2461V68.4961C248.765 68.4961 245.844 67.7927 243.371 66.4142L243.006 67.0693L242.641 67.7244C245.373 69.2473 248.554 69.9961 252.158 69.9961V69.2461ZM243.006 67.0693L243.371 66.4142C240.887 65.0296 238.96 63.1226 237.578 60.684L236.926 61.0537L236.273 61.4235C237.793 64.1047 239.92 66.2077 242.641 67.7244L243.006 67.0693ZM236.926 61.0537L237.581 60.6886C236.201 58.213 235.5 55.3337 235.5 52.0293H234.75H234C234 55.5516 234.749 58.6891 236.271 61.4189L236.926 61.0537ZM234.75 52.0293L235.5 52.0293C235.5 48.7247 236.201 45.8693 237.578 43.4391L236.926 43.0693L236.273 42.6996C234.749 45.3892 234 48.5075 234 52.0293L234.75 52.0293ZM236.926 43.0693L237.581 43.4345C238.964 40.9536 240.89 39.0272 243.371 37.6444L243.006 36.9893L242.641 36.3341C239.916 37.8526 237.789 39.9799 236.271 42.7042L236.926 43.0693ZM243.006 36.9893L243.371 37.6444C245.851 36.2621 248.713 35.5413 251.975 35.4999L251.966 34.75L251.956 34.0001C248.478 34.0441 245.366 34.8152 242.641 36.3341L243.006 36.9893ZM65.6543 34.75L65.6543 35.5C68.1988 35.5 70.3265 36.0123 72.068 37.0017L72.4385 36.3496L72.809 35.6975C70.7959 34.5537 68.4003 34 65.6543 34L65.6543 34.75ZM72.4385 36.3496L72.0742 37.0052C73.862 37.9985 75.2056 39.4017 76.1192 41.229L76.79 40.8936L77.4609 40.5581C76.4119 38.4603 74.8546 36.834 72.8027 35.694L72.4385 36.3496ZM76.79 40.8936L76.1283 41.2465C77.0814 43.0336 77.5761 45.2311 77.5762 47.8692L78.3262 47.8691L79.0762 47.8691C79.0761 45.0463 78.5466 42.5933 77.4518 40.5406L76.79 40.8936ZM78.3262 47.8691H77.5762V68.9893H78.3262H79.0762V47.8691H78.3262ZM78.3262 68.9893V68.2393H70.9658V68.9893V69.7393H78.3262V68.9893ZM70.9658 68.9893H71.7158V49.79H70.9658H70.2158V68.9893H70.9658ZM70.9658 49.79H71.7158C71.7158 47.005 70.9487 44.7279 69.328 43.0595L68.79 43.582L68.2521 44.1046C69.5324 45.4228 70.2158 47.2847 70.2158 49.79H70.9658ZM68.79 43.582L69.3353 43.0671C67.7138 41.3502 65.4937 40.5274 62.7744 40.5273L62.7744 41.2773L62.7744 42.0273C65.1747 42.0274 66.9651 42.7421 68.2448 44.097L68.79 43.582ZM62.7744 41.2773L62.7639 40.5274C59.5435 40.5728 56.9373 41.7184 55.0313 43.9962L55.6064 44.4775L56.1816 44.9589C57.7742 43.0556 59.9469 42.0672 62.785 42.0273L62.7744 41.2773ZM55.6064 44.4775L55.0254 44.0033C53.4797 45.8968 52.5994 48.1738 52.3634 50.803L53.1104 50.8701L53.8573 50.9372C54.0695 48.5746 54.8506 46.5895 56.1874 44.9518L55.6064 44.4775ZM53.1104 50.8701H52.3604V68.9893H53.1104H53.8604V50.8701H53.1104ZM53.1104 68.9893V68.2393H45.75V68.9893V69.7393H53.1104V68.9893ZM45.75 68.9893H46.5V35.0059H45.75H45V68.9893H45.75ZM45.75 35.0059V35.7559H53.1104V35.0059V34.2559H45.75V35.0059ZM53.1104 35.0059H52.3604V41.4658H53.1104H53.8604V35.0059H53.1104ZM53.1104 41.4658L53.7746 41.8141C54.8821 39.7022 56.3575 38.1786 58.1966 37.2048L57.8457 36.542L57.4948 35.8792C55.3564 37.0114 53.6766 38.7711 52.4461 41.1175L53.1104 41.4658ZM57.8457 36.542L58.2013 37.2023C60.2921 36.0765 62.7687 35.5 65.6543 35.5V34.75V34C62.5665 34 59.8367 34.6181 57.4901 35.8816L57.8457 36.542ZM178.443 36.8213L178.793 36.1577C177.379 35.4132 175.748 35.1096 173.931 35.2131L173.974 35.9619L174.016 36.7107C175.613 36.6197 176.963 36.8895 178.094 37.4849L178.443 36.8213ZM173.974 35.9619L173.922 35.2137C172.201 35.3314 170.54 35.8715 168.945 36.8155L169.327 37.4609L169.709 38.1064C171.122 37.2701 172.559 36.8105 174.025 36.7102L173.974 35.9619ZM169.327 37.4609L168.945 36.8155C167.368 37.7489 165.879 38.9901 164.476 40.5289L165.03 41.0342L165.585 41.5394C166.902 40.0942 168.278 38.9534 169.709 38.1063L169.327 37.4609ZM165.03 41.0342L164.474 40.5306C163.111 42.0349 161.872 43.7369 160.754 45.634L161.4 46.0146L162.047 46.3953C163.117 44.5783 164.297 42.96 165.586 41.5378L165.03 41.0342ZM161.4 46.0146L160.749 45.643C159.666 47.5417 158.786 49.544 158.11 51.6475L158.824 51.877L159.538 52.1064C160.183 50.1005 161.021 48.1936 162.052 46.3863L161.4 46.0146ZM158.824 51.877L158.111 51.6441C157.431 53.7269 157 55.8232 156.819 57.9311L157.566 57.9951L158.314 58.0591C158.484 56.0704 158.891 54.0873 159.537 52.1098L158.824 51.877ZM157.566 57.9951L156.822 57.9011C156.463 60.7415 156.605 63.068 157.345 64.8023L158.035 64.5078L158.725 64.2133C158.137 62.8356 157.965 60.8202 158.31 58.0891L157.566 57.9951ZM158.035 64.5078L157.345 64.8024C158.075 66.5109 159.224 67.738 160.8 68.408L161.094 67.7178L161.387 67.0275C160.215 66.5294 159.324 65.6166 158.725 64.2133L158.035 64.5078ZM161.094 67.7178L160.8 68.4081C162.314 69.0511 164.038 69.2588 165.946 69.0655L165.87 68.3193L165.795 67.5732C164.084 67.7464 162.623 67.5525 161.387 67.0275L161.094 67.7178ZM165.87 68.3193L165.944 69.0657C167.587 68.9036 169.185 68.3293 170.734 67.3664L170.338 66.7295L169.942 66.0926C168.562 66.9504 167.182 67.4363 165.796 67.573L165.87 68.3193ZM170.338 66.7295L170.734 67.3664C172.27 66.4116 173.685 65.1771 174.982 63.6709L174.413 63.1816L173.845 62.6924C172.637 64.096 171.335 65.2266 169.942 66.0926L170.338 66.7295ZM174.413 63.1816L174.98 63.673C176.304 62.1462 177.471 60.4494 178.482 58.5839L177.822 58.2266L177.163 57.8693C176.201 59.6438 175.095 61.25 173.846 62.6903L174.413 63.1816ZM177.822 58.2266L178.476 58.5934C179.523 56.7268 180.372 54.7928 181.022 52.7924L180.309 52.5605L179.595 52.3287C178.976 54.2339 178.167 56.0776 177.168 57.8597L177.822 58.2266ZM180.309 52.5605L181.023 52.7889C181.67 50.7647 182.091 48.761 182.286 46.7785L181.54 46.7051L180.794 46.6317C180.61 48.5019 180.211 50.4019 179.594 52.3322L180.309 52.5605ZM181.54 46.7051L182.285 46.7956C182.618 44.057 182.511 41.7768 181.899 40.0068L181.19 40.252L180.482 40.4971C180.988 41.9624 181.115 43.9848 180.796 46.6145L181.54 46.7051ZM181.19 40.252L181.899 40.0067C181.29 38.246 180.265 36.9329 178.793 36.1577L178.443 36.8213L178.094 37.4849C179.166 38.0496 179.972 39.0236 180.482 40.4972L181.19 40.252ZM18.0303 40.3818V39.6318C15.8636 39.6318 13.9325 40.13 12.2632 41.1501L12.6543 41.79L13.0454 42.43C14.4481 41.5728 16.1009 41.1318 18.0303 41.1318V40.3818ZM12.6543 41.79L12.2552 41.1551C10.6362 42.1727 9.37259 43.6032 8.46297 45.4224L9.13379 45.7578L9.80461 46.0932C10.6017 44.4991 11.6857 43.2847 13.0534 42.425L12.6543 41.79ZM9.13379 45.7578L8.46642 45.4156C7.84755 46.6225 7.44422 47.9645 7.24691 49.4334L7.99023 49.5332L8.73356 49.6331C8.91085 48.3133 9.26882 47.1382 9.80116 46.1L9.13379 45.7578ZM7.99023 49.5332V50.2832H27.502V49.5332V48.7832H7.99023V49.5332ZM27.502 49.5332L28.2512 49.4999C28.1615 47.4833 27.6886 45.7318 26.7977 44.278L26.1582 44.6699L25.5187 45.0618C26.2488 46.2531 26.6716 47.7438 26.7527 49.5665L27.502 49.5332ZM26.1582 44.6699L26.8119 44.3022C25.9711 42.8075 24.7739 41.6582 23.237 40.8665L22.8936 41.5332L22.5501 42.1999C23.8292 42.8589 24.8093 43.8016 25.5045 45.0376L26.1582 44.6699ZM22.8936 41.5332L23.2526 40.8748C21.7196 40.0387 19.9717 39.6319 18.0303 39.6318L18.0303 40.3818L18.0303 41.1318C19.7575 41.1319 21.2519 41.4922 22.5345 42.1917L22.8936 41.5332ZM252.03 40.3818V39.6318C249.864 39.6318 247.932 40.13 246.263 41.1501L246.654 41.79L247.045 42.43C248.448 41.5728 250.101 41.1318 252.03 41.1318V40.3818ZM246.654 41.79L246.255 41.1551C244.636 42.1727 243.373 43.6032 242.463 45.4224L243.134 45.7578L243.805 46.0932C244.602 44.4991 245.686 43.2847 247.053 42.425L246.654 41.79ZM243.134 45.7578L242.466 45.4156C241.848 46.6225 241.444 47.9645 241.247 49.4334L241.99 49.5332L242.734 49.6331C242.911 48.3133 243.269 47.1382 243.801 46.1L243.134 45.7578ZM241.99 49.5332V50.2832H261.502V49.5332V48.7832H241.99V49.5332ZM261.502 49.5332L262.251 49.4999C262.162 47.4833 261.689 45.7318 260.798 44.278L260.158 44.6699L259.519 45.0618C260.249 46.2531 260.672 47.7438 260.753 49.5665L261.502 49.5332ZM260.158 44.6699L260.812 44.3022C259.971 42.8075 258.774 41.6582 257.237 40.8665L256.894 41.5332L256.55 42.1999C257.829 42.8589 258.809 43.8016 259.505 45.0376L260.158 44.6699ZM256.894 41.5332L257.253 40.8748C255.72 40.0387 253.972 39.6319 252.03 39.6318L252.03 40.3818L252.03 41.1318C253.757 41.1319 255.252 41.4922 256.534 42.1917L256.894 41.5332Z" fill="#D4537E"/>
</svg>
